# This file uses centimeters as units for non-parametric coordinates.

mtllib test2.mtl
g default
v -0.738420 -1.596807 0.908126
v 1.438021 -1.335956 0.258974
v -0.738420 0.524456 1.760521
v 1.346528 -0.275875 0.378197
v -1.438021 1.335956 -0.258974
v 0.336006 1.425128 -0.837707
v -1.438021 -0.785307 -1.111369
v 1.253560 -0.332556 -1.861866
v 0.419684 -1.458006 0.562707
v -0.279917 -0.646506 -1.456788
v -0.279917 1.474758 -0.604394
v 0.328191 -0.397925 0.681929
v -1.030870 0.863683 0.916323
v 0.218727 0.551328 0.696368
v 0.726989 0.505138 0.501733
v 1.660711 -0.804830 -0.686568
v 0.127234 -1.118780 -0.281491
v -1.030870 -1.257581 0.063929
v -1.030870 2.165388 1.439392
v 0.218727 1.853034 1.219436
v -0.279917 2.776463 -0.081325
v -1.438021 2.637662 0.264095
v -0.390218 1.839988 -1.513305
v 0.767885 1.978789 -1.858724
v -0.390218 3.141694 -0.990236
v 0.767885 3.280495 -1.335655
v 0.582423 -0.039229 1.678440
v 0.673916 -1.099310 1.559217
v 1.692253 -0.977261 1.255485
v 1.600760 0.082821 1.374708
vt 0.375000 0.000000
vt 0.625000 0.000000
vt 0.375000 0.250000
vt 0.625000 0.250000
vt 0.375000 0.500000
vt 0.625000 0.500000
vt 0.375000 0.750000
vt 0.625000 0.750000
vt 0.375000 1.000000
vt 0.625000 1.000000
vt 0.875000 0.000000
vt 0.875000 0.250000
vt 0.125000 0.000000
vt 0.125000 0.250000
vt 0.508027 0.000000
vt 0.508027 1.000000
vt 0.508027 0.750000
vt 0.508027 0.500000
vt 0.508027 0.250000
vt 0.270494 0.250000
vt 0.375000 0.354506
vt 0.508027 0.354506
vt 0.625000 0.354506
vt 0.729506 0.250000
vt 0.625000 0.895494
vt 0.729506 0.000000
vt 0.508027 0.895494
vt 0.270494 0.000000
vt 0.375000 0.895494
vt 0.375000 0.354506
vt 0.508027 0.354506
vt 0.508027 0.500000
vt 0.375000 0.500000
vt 0.508027 0.500000
vt 0.375000 0.500000
vt 0.375000 0.500000
vt 0.508027 0.500000
vt 0.508027 0.250000
vt 0.508027 0.000000
vt 0.625000 0.000000
vt 0.625000 0.250000
vn 0.293848 -0.081745 0.952350
vn 0.293848 -0.081745 0.952350
vn 0.293848 -0.081745 0.952350
vn 0.293848 -0.081745 0.952350
vn 0.253903 0.831978 0.493301
vn 0.549918 0.487701 0.678040
vn 0.255657 0.831517 0.493172
vn 0.322218 0.468334 0.822702
vn -0.306022 0.354969 -0.883373
vn -0.306022 0.354969 -0.883373
vn -0.306022 0.354969 -0.883373
vn -0.306022 0.354969 -0.883373
vn 0.072922 -0.902864 -0.423696
vn 0.034834 -0.918476 -0.393941
vn 0.082596 -0.914491 -0.396086
vn 0.047177 -0.921095 -0.386470
vn 0.852032 0.523324 0.013168
vn 0.853917 0.520377 0.005809
vn 0.865404 0.500924 0.012283
vn 0.895651 0.442710 0.042633
vn -0.952025 -0.114102 0.283954
vn -0.952025 -0.114102 0.283954
vn -0.952025 -0.114102 0.283954
vn -0.952025 -0.114102 0.283954
vn -0.000000 -0.927889 -0.372857
vn -0.000000 -0.927889 -0.372857
vn -0.306022 0.354969 -0.883373
vn -0.306022 0.354969 -0.883373
vn 0.291245 0.829227 0.477032
vn 0.160711 0.885819 0.435313
vn 0.193435 0.873594 0.446560
vn 0.000000 0.927889 0.372857
vn 0.293848 -0.081745 0.952350
vn 0.481941 -0.271595 0.833048
vn 0.468235 -0.257074 0.845381
vn 0.524399 -0.317477 0.790072
vn 0.544478 0.069706 0.835874
vn 0.518292 0.705080 0.483979
vn 0.278299 0.920713 0.273564
vn 0.277585 0.068625 0.958247
vn 0.964701 0.054280 0.257692
vn 0.886733 0.461133 0.032569
vn -0.000000 -0.927889 -0.372857
vn 0.038951 -0.890927 -0.452472
vn -0.000000 -0.927889 -0.372857
vn -0.952025 -0.114102 0.283954
vn -0.952025 -0.114102 0.283954
vn 0.069956 -0.371943 0.925616
vn 0.069956 -0.371943 0.925616
vn 0.069956 -0.371943 0.925616
vn 0.069956 -0.371943 0.925616
vn 0.952025 0.114102 -0.283954
vn 0.952025 0.114102 -0.283954
vn 0.952025 0.114102 -0.283954
vn 0.952025 0.114102 -0.283954
vn -0.306022 0.354969 -0.883373
vn -0.306022 0.354969 -0.883373
vn -0.306022 0.354969 -0.883373
vn -0.306022 0.354969 -0.883373
vn -0.952025 -0.114102 0.283954
vn -0.952025 -0.114102 0.283954
vn -0.952025 -0.114102 0.283954
vn -0.952025 -0.114102 0.283954
vn -0.000000 -0.927889 -0.372857
vn -0.000000 -0.927889 -0.372857
vn -0.000000 -0.927889 -0.372857
vn -0.000000 -0.927889 -0.372857
vn -0.790373 0.228422 -0.568449
vn -0.790373 0.228422 -0.568449
vn -0.790373 0.228422 -0.568449
vn -0.790373 0.228422 -0.568449
vn 0.000000 0.927889 0.372857
vn 0.000000 0.927889 0.372857
vn -0.000000 0.927889 0.372857
vn -0.000000 0.927889 0.372856
vn 0.790373 -0.228422 0.568449
vn 0.790373 -0.228422 0.568449
vn 0.790373 -0.228422 0.568449
vn 0.790373 -0.228422 0.568449
vn -0.952025 -0.114102 0.283954
vn -0.952025 -0.114102 0.283954
vn -0.952025 -0.114102 0.283954
vn -0.952025 -0.114102 0.283954
vn 0.197906 -0.937297 0.286892
vn 0.197906 -0.937297 0.286892
vn 0.197906 -0.937297 0.286892
vn 0.197906 -0.937297 0.286891
vn 0.952025 0.114102 -0.283954
vn 0.952025 0.114102 -0.283954
vn 0.952025 0.114102 -0.283954
vn 0.952025 0.114102 -0.283954
vn -0.197906 0.937297 -0.286891
vn -0.197906 0.937297 -0.286891
vn -0.197906 0.937297 -0.286891
vn -0.197906 0.937297 -0.286891
s 1
g pCube1
usemtl initialShadingGroup
f 27/38/1 28/39/2 30/41/3
f 30/41/3 28/39/2 29/40/4
s 2
f 11/18/5 14/22/6 6/6/7
f 6/6/7 14/22/6 15/23/8
s 3
f 11/18/9 6/6/10 10/17/11
f 10/17/11 6/6/10 8/8/12
s 4
f 16/25/13 17/27/14 8/8/15
f 8/8/15 17/27/14 10/17/16
s 5
f 16/26/17 8/11/18 15/24/19
f 15/24/19 8/11/18 6/12/20
s 6
f 7/13/21 18/28/22 5/14/23
f 5/14/23 18/28/22 13/20/24
s 4
f 7/7/25 10/17/16 18/29/26
f 18/29/26 10/17/16 17/27/14
s 3
f 5/5/27 11/18/9 7/7/28
f 7/7/28 11/18/9 10/17/11
s 7
f 20/31/29 21/32/30 19/30/31
f 19/30/31 21/32/30 22/33/32
s 8
f 9/15/33 12/19/34 1/1/35
f 1/1/35 12/19/34 3/3/36
s 2
f 12/19/37 14/22/6 3/3/38
f 3/3/38 14/22/6 13/21/39
f 14/22/6 12/19/37 15/23/8
f 15/23/8 12/19/37 4/4/40
s 5
f 2/2/41 16/26/17 4/4/42
f 4/4/42 16/26/17 15/24/19
s 4
f 9/16/43 17/27/14 2/10/44
f 2/10/44 17/27/14 16/25/13
f 18/29/26 17/27/14 1/9/45
f 1/9/45 17/27/14 9/16/43
s 6
f 13/20/24 18/28/22 3/3/46
f 3/3/46 18/28/22 1/1/47
s 10
f 14/22/48 20/31/49 13/21/50
f 13/21/50 20/31/49 19/30/51
s 11
f 14/22/52 11/18/53 20/31/54
f 20/31/54 11/18/53 21/32/55
s 12
f 24/34/56 23/35/57 26/37/58
f 26/37/58 23/35/57 25/36/59
s 13
f 5/5/60 13/21/61 22/33/62
f 22/33/62 13/21/61 19/30/63
s 14
f 5/5/64 23/35/65 11/18/66
f 11/18/66 23/35/65 24/34/67
s 15
f 5/5/68 22/33/69 23/35/70
f 23/35/70 22/33/69 25/36/71
s 16
f 22/33/72 21/32/73 25/36/74
f 25/36/74 21/32/73 26/37/75
s 17
f 21/32/76 11/18/77 26/37/78
f 26/37/78 11/18/77 24/34/79
s 18
f 9/15/80 28/39/81 12/19/82
f 12/19/82 28/39/81 27/38/83
s 19
f 9/15/84 2/2/85 28/39/86
f 28/39/86 2/2/85 29/40/87
s 20
f 2/2/88 4/4/89 29/40/90
f 29/40/90 4/4/89 30/41/91
s 21
f 4/4/92 12/19/93 30/41/94
f 30/41/94 12/19/93 27/38/95
