# This file uses centimeters as units for non-parametric coordinates.

mtllib test.mtl
g default
v -1.143059 -1.143059 1.143059
v 1.143059 -1.143059 1.143059
v -1.143059 1.143059 1.143059
v 1.143059 -0.114968 0.844082
v -1.143059 1.143059 -1.143059
v 0.720367 1.010015 -1.143059
v -1.143059 -1.143059 -1.143059
v 1.684159 -1.002785 -1.143059
v 0.073405 -1.143059 1.143059
v 0.073405 -1.143059 -1.143059
v 0.073405 1.143059 -1.143059
v 0.073405 -0.114968 0.844082
v -1.143059 1.143059 0.187407
v 0.073405 0.771216 0.486383
v 0.607280 0.655786 0.486383
v 1.684159 -1.002785 0.187407
v 0.073405 -1.143059 0.187407
v -1.143059 -1.143059 0.187407
v -1.143059 2.545927 0.187407
v 0.073405 2.174084 0.486383
v 0.073405 2.545927 -1.143059
v -1.143059 2.545927 -1.143059
v 0.268158 1.143059 -2.109366
v 1.484622 1.143059 -2.109366
v 0.268158 2.545927 -2.109366
v 1.484622 2.545927 -2.109366
v 0.073405 0.589417 1.674848
v 0.073405 -0.438673 1.973824
v 1.143059 -0.438673 1.973824
v 1.143059 0.589417 1.674848
vt 0.375000 0.000000
vt 0.625000 0.000000
vt 0.375000 0.250000
vt 0.625000 0.250000
vt 0.375000 0.500000
vt 0.625000 0.500000
vt 0.375000 0.750000
vt 0.625000 0.750000
vt 0.375000 1.000000
vt 0.625000 1.000000
vt 0.875000 0.000000
vt 0.875000 0.250000
vt 0.125000 0.000000
vt 0.125000 0.250000
vt 0.508027 0.000000
vt 0.508027 1.000000
vt 0.508027 0.750000
vt 0.508027 0.500000
vt 0.508027 0.250000
vt 0.270494 0.250000
vt 0.375000 0.354506
vt 0.508027 0.354506
vt 0.625000 0.354506
vt 0.729506 0.250000
vt 0.625000 0.895494
vt 0.729506 0.000000
vt 0.508027 0.895494
vt 0.270494 0.000000
vt 0.375000 0.895494
vt 0.375000 0.354506
vt 0.508027 0.354506
vt 0.508027 0.500000
vt 0.375000 0.500000
vt 0.508027 0.500000
vt 0.375000 0.500000
vt 0.375000 0.500000
vt 0.508027 0.500000
vt 0.508027 0.250000
vt 0.508027 0.000000
vt 0.625000 0.000000
vt 0.625000 0.250000
vn 0.000000 0.279240 0.960221
vn 0.000000 0.279240 0.960221
vn 0.000000 0.279240 0.960221
vn 0.000000 0.279240 0.960221
vn 0.196577 0.955914 0.218142
vn 0.386651 0.705344 0.594131
vn 0.198231 0.955438 0.218729
vn 0.126588 0.741312 0.659115
vn 0.000000 0.000000 -1.000000
vn 0.000000 0.000000 -1.000000
vn 0.000000 0.000000 -1.000000
vn 0.000000 0.000000 -1.000000
vn 0.086715 -0.995736 -0.031477
vn 0.040223 -0.999127 -0.011307
vn 0.086758 -0.996229 0.000000
vn 0.049555 -0.998771 0.000000
vn 0.867128 0.490497 0.086609
vn 0.870676 0.485018 0.081731
vn 0.877554 0.469382 0.097871
vn 0.891090 0.426682 0.154601
vn -1.000000 0.000000 0.000000
vn -1.000000 0.000000 0.000000
vn -1.000000 0.000000 0.000000
vn -1.000000 0.000000 0.000000
vn 0.000000 -1.000000 0.000000
vn 0.000000 -1.000000 0.000000
vn 0.000000 0.000000 -1.000000
vn 0.000000 0.000000 -1.000000
vn 0.236434 0.947295 0.216175
vn 0.130465 0.984251 0.119286
vn 0.157031 0.977102 0.143576
vn 0.000000 1.000000 0.000000
vn 0.000000 0.279240 0.960221
vn 0.191283 0.058598 0.979784
vn 0.176389 0.076670 0.981330
vn 0.238672 0.000000 0.971100
vn 0.288960 0.376341 0.880267
vn 0.436450 0.834691 0.335861
vn 0.292323 0.956320 0.000000
vn 0.000000 0.420965 0.907077
vn 0.851440 0.146448 0.503590
vn 0.887560 0.440024 0.136442
vn 0.000000 -1.000000 0.000000
vn 0.063907 -0.995389 -0.071531
vn 0.000000 -1.000000 0.000000
vn -1.000000 0.000000 0.000000
vn -1.000000 0.000000 0.000000
vn -0.238672 0.000000 0.971100
vn -0.238672 0.000000 0.971100
vn -0.238672 0.000000 0.971100
vn -0.238672 0.000000 0.971100
vn 1.000000 0.000000 0.000000
vn 1.000000 0.000000 0.000000
vn 1.000000 0.000000 0.000000
vn 1.000000 0.000000 0.000000
vn 0.000000 0.000000 -1.000000
vn 0.000000 0.000000 -1.000000
vn 0.000000 0.000000 -1.000000
vn 0.000000 0.000000 -1.000000
vn -1.000000 0.000000 0.000000
vn -1.000000 0.000000 0.000000
vn -1.000000 0.000000 0.000000
vn -1.000000 0.000000 0.000000
vn 0.000000 -1.000000 0.000000
vn 0.000000 -1.000000 0.000000
vn 0.000000 -1.000000 0.000000
vn 0.000000 -1.000000 0.000000
vn -0.564978 0.000000 -0.825106
vn -0.564978 0.000000 -0.825106
vn -0.564978 0.000000 -0.825106
vn -0.564978 0.000000 -0.825106
vn 0.000000 1.000000 0.000001
vn 0.000000 1.000000 0.000000
vn 0.000000 1.000000 -0.000000
vn 0.000000 1.000000 -0.000001
vn 0.564978 0.000000 0.825106
vn 0.564978 0.000000 0.825106
vn 0.564978 0.000000 0.825106
vn 0.564978 0.000000 0.825106
vn -1.000000 -0.000000 0.000000
vn -1.000000 -0.000000 0.000000
vn -1.000000 -0.000000 0.000000
vn -1.000000 0.000000 0.000000
vn 0.000000 -0.762738 0.646707
vn 0.000000 -0.762738 0.646707
vn 0.000000 -0.762738 0.646707
vn 0.000000 -0.762738 0.646707
vn 1.000000 0.000000 0.000000
vn 1.000000 0.000000 0.000000
vn 1.000000 0.000000 0.000000
vn 1.000000 0.000000 0.000000
vn 0.000000 0.762738 -0.646707
vn 0.000000 0.762738 -0.646707
vn 0.000000 0.762738 -0.646707
vn 0.000000 0.762738 -0.646707
s 1
g pCube1
usemtl initialShadingGroup
f 27/38/1 28/39/2 30/41/3
f 30/41/3 28/39/2 29/40/4
s 2
f 11/18/5 14/22/6 6/6/7
f 6/6/7 14/22/6 15/23/8
s 3
f 11/18/9 6/6/10 10/17/11
f 10/17/11 6/6/10 8/8/12
s 4
f 16/25/13 17/27/14 8/8/15
f 8/8/15 17/27/14 10/17/16
s 5
f 16/26/17 8/11/18 15/24/19
f 15/24/19 8/11/18 6/12/20
s 6
f 7/13/21 18/28/22 5/14/23
f 5/14/23 18/28/22 13/20/24
s 4
f 7/7/25 10/17/16 18/29/26
f 18/29/26 10/17/16 17/27/14
s 3
f 5/5/27 11/18/9 7/7/28
f 7/7/28 11/18/9 10/17/11
s 7
f 20/31/29 21/32/30 19/30/31
f 19/30/31 21/32/30 22/33/32
s 8
f 9/15/33 12/19/34 1/1/35
f 1/1/35 12/19/34 3/3/36
s 2
f 12/19/37 14/22/6 3/3/38
f 3/3/38 14/22/6 13/21/39
f 14/22/6 12/19/37 15/23/8
f 15/23/8 12/19/37 4/4/40
s 5
f 2/2/41 16/26/17 4/4/42
f 4/4/42 16/26/17 15/24/19
s 4
f 9/16/43 17/27/14 2/10/44
f 2/10/44 17/27/14 16/25/13
f 18/29/26 17/27/14 1/9/45
f 1/9/45 17/27/14 9/16/43
s 6
f 13/20/24 18/28/22 3/3/46
f 3/3/46 18/28/22 1/1/47
s 10
f 14/22/48 20/31/49 13/21/50
f 13/21/50 20/31/49 19/30/51
s 11
f 14/22/52 11/18/53 20/31/54
f 20/31/54 11/18/53 21/32/55
s 12
f 24/34/56 23/35/57 26/37/58
f 26/37/58 23/35/57 25/36/59
s 13
f 5/5/60 13/21/61 22/33/62
f 22/33/62 13/21/61 19/30/63
s 14
f 5/5/64 23/35/65 11/18/66
f 11/18/66 23/35/65 24/34/67
s 15
f 5/5/68 22/33/69 23/35/70
f 23/35/70 22/33/69 25/36/71
s 16
f 22/33/72 21/32/73 25/36/74
f 25/36/74 21/32/73 26/37/75
s 17
f 21/32/76 11/18/77 26/37/78
f 26/37/78 11/18/77 24/34/79
s 18
f 9/15/80 28/39/81 12/19/82
f 12/19/82 28/39/81 27/38/83
s 19
f 9/15/84 2/2/85 28/39/86
f 28/39/86 2/2/85 29/40/87
s 20
f 2/2/88 4/4/89 29/40/90
f 29/40/90 4/4/89 30/41/91
s 21
f 4/4/92 12/19/93 30/41/94
f 30/41/94 12/19/93 27/38/95
