P3
50 50
255
0 0 0
0 0 0
0 0 0
0 0 0
0 0 0
0 0 0
0 0 0
0 0 0
0 0 0
0 0 0
0 0 0
0 0 0
0 0 0
0 0 0
0 0 0
0 0 0
0 0 0
0 0 0
0 0 0
0 0 0
0 0 0
0 0 0
0 0 0
0 0 0
0 0 0
0 0 0
0 0 0
0 0 0
0 0 0
0 0 0
0 0 0
0 0 0
0 0 0
0 0 0
0 0 0
0 0 0
0 0 0
0 0 0
0 0 0
0 0 0
0 0 0
0 0 0
0 0 0
0 0 0
0 0 0
0 0 0
0 0 0
0 0 0
0 0 0
0 0 0
0 0 0
0 0 0
0 0 0
0 0 0
0 0 0
0 0 0
0 0 0
0 0 0
0 0 0
0 0 0
0 0 0
0 0 0
0 0 0
0 0 0
0 0 0
0 0 0
0 0 0
0 0 0
0 0 0
0 0 0
0 0 0
0 0 0
0 0 0
0 0 0
0 0 0
0 0 0
0 0 0
0 0 0
0 0 0
0 0 0
0 0 0
0 0 0
0 0 0
0 0 0
0 0 0
0 0 0
0 0 0
0 0 0
0 0 0
0 0 0
0 0 0
0 0 0
0 0 0
0 0 0
0 0 0
0 0 0
0 0 0
0 0 0
0 0 0
0 0 0
0 0 0
0 0 0
0 0 0
0 0 0
0 0 0
0 0 0
0 0 0
0 0 0
0 0 0
0 0 0
0 0 0
0 0 0
0 0 0
0 0 0
0 0 0
0 0 0
0 0 0
0 0 0
0 0 0
0 0 0
0 0 0
0 0 0
0 0 0
0 0 0
0 0 0
0 0 0
0 0 0
0 0 0
0 0 0
0 0 0
0 0 0
0 0 0
0 0 0
0 0 0
0 0 0
0 0 0
0 0 0
0 0 0
0 0 0
0 0 0
0 0 0
0 0 0
0 0 0
0 0 0
0 0 0
0 0 0
0 0 0
0 0 0
0 0 0
0 0 0
0 0 0
0 0 0
0 0 0
0 0 0
0 0 0
0 0 0
0 0 0
0 0 0
0 0 0
0 0 0
0 0 0
0 0 0
0 0 0
0 0 0
0 0 0
0 0 0
0 0 0
0 0 0
0 0 0
0 0 0
0 0 0
0 0 0
0 0 0
0 0 0
0 0 0
0 0 0
0 0 0
0 0 0
0 0 0
0 0 0
0 0 0
0 0 0
0 0 0
0 0 0
0 0 0
0 0 0
0 0 0
0 0 0
0 0 0
0 0 0
0 0 0
0 0 0
0 0 0
0 0 0
0 0 0
0 0 0
0 0 0
0 0 0
0 0 0
0 0 0
0 0 0
0 0 0
0 0 0
0 0 0
0 0 0
0 0 0
0 0 0
0 0 0
0 0 0
0 0 0
0 0 0
0 0 0
0 0 0
0 0 0
0 0 0
0 0 0
0 0 0
0 0 0
0 0 0
0 0 0
0 0 0
0 0 0
0 0 0
0 0 0
0 0 0
0 0 0
0 0 0
0 0 0
0 0 0
0 0 0
0 0 0
0 0 0
0 0 0
0 0 0
0 0 0
0 0 0
0 0 0
0 0 0
0 0 0
0 0 0
0 0 0
0 0 0
0 0 0
0 0 0
0 0 0
0 0 0
0 0 0
0 0 0
0 0 0
0 0 0
0 0 0
0 0 0
0 0 0
0 0 0
0 0 0
0 0 0
0 0 0
0 0 0
0 0 0
0 0 0
0 0 0
0 0 0
0 0 0
0 0 0
0 0 0
0 0 0
0 0 0
0 0 0
0 0 0
0 0 0
0 0 0
0 0 0
0 0 0
0 0 0
0 0 0
0 0 0
0 0 0
0 0 0
0 0 0
0 0 0
0 0 0
0 0 0
0 0 0
0 0 0
0 0 0
0 0 0
0 0 0
0 0 0
0 0 0
0 0 0
0 0 0
0 0 0
0 0 0
0 0 0
0 0 0
0 0 0
0 0 0
0 0 0
0 0 0
0 0 0
0 0 0
0 0 0
0 0 0
0 0 0
0 0 0
0 0 0
0 0 0
0 0 0
0 0 0
0 0 0
0 0 0
0 0 0
0 0 0
0 0 0
0 0 0
0 0 0
0 0 0
0 0 0
0 0 0
0 0 0
0 0 0
0 0 0
0 0 0
0 0 0
0 0 0
0 0 0
0 0 0
0 0 0
0 0 0
0 0 0
0 0 0
0 0 0
0 0 0
0 0 0
0 0 0
0 0 0
0 0 0
0 0 0
0 0 0
0 0 0
0 0 0
0 0 0
0 0 0
0 0 0
0 0 0
0 0 0
0 0 0
0 0 0
0 0 0
0 0 0
0 0 0
0 0 0
0 0 0
0 0 0
0 0 0
0 0 0
0 0 0
0 0 0
0 0 0
0 0 0
0 0 0
0 0 0
0 0 0
0 0 0
0 0 0
0 0 0
0 0 0
0 0 0
0 0 0
0 0 0
0 0 0
0 0 0
0 0 0
0 0 0
0 0 0
0 0 0
0 0 0
0 0 0
0 0 0
0 0 0
0 0 0
0 0 0
0 0 0
0 0 0
0 0 0
0 0 0
0 0 0
0 0 0
0 0 0
0 0 0
0 0 0
0 0 0
0 0 0
0 0 0
0 0 0
0 0 0
0 0 0
0 0 0
0 0 0
0 0 0
0 0 0
0 0 0
0 0 0
0 0 0
0 0 0
0 0 0
0 0 0
0 0 0
0 0 0
0 0 0
0 0 0
0 0 0
0 0 0
0 0 0
0 0 0
0 0 0
0 0 0
0 0 0
0 0 0
0 0 0
0 0 0
0 0 0
0 0 0
0 0 0
0 0 0
0 0 0
0 0 0
0 0 0
0 0 0
0 0 0
0 0 0
0 0 0
0 0 0
0 0 0
0 0 0
0 0 0
0 0 0
0 0 0
0 0 0
0 0 0
0 0 0
0 0 0
0 0 0
0 0 0
0 0 0
0 0 0
0 0 0
0 0 0
0 0 0
0 0 0
0 0 0
0 0 0
0 0 0
0 0 0
0 0 0
0 0 0
0 0 0
0 0 0
0 0 0
0 0 0
0 0 0
0 0 0
0 0 0
0 0 0
0 0 0
0 0 0
0 0 0
0 0 0
0 0 0
0 0 0
0 0 0
0 0 0
0 0 0
0 0 0
0 0 0
0 0 0
0 0 0
0 0 0
0 0 0
0 0 0
0 0 0
0 0 0
0 0 0
0 0 0
0 0 0
0 0 0
0 0 0
0 0 0
0 0 0
0 0 0
0 0 0
0 0 0
0 0 0
0 0 0
0 0 0
0 0 0
0 0 0
0 0 0
0 0 0
0 0 0
0 0 0
0 0 0
0 0 0
0 0 0
0 0 0
0 0 0
0 0 0
0 0 0
0 0 0
0 0 0
0 0 0
0 0 0
0 0 0
0 0 0
0 0 0
0 0 0
0 0 0
0 0 0
0 0 0
0 0 0
0 0 0
0 0 0
0 0 0
0 0 0
16 16 16
27 27 27
19 19 19
0 0 0
0 0 0
0 0 0
19 19 19
0 0 0
0 0 0
0 0 0
0 0 0
0 0 0
0 0 0
0 0 0
0 0 0
0 0 0
0 0 0
0 0 0
0 0 0
0 0 0
0 0 0
0 0 0
0 0 0
0 0 0
0 0 0
0 0 0
0 0 0
0 0 0
0 0 0
0 0 0
0 0 0
0 0 0
0 0 0
0 0 0
0 0 0
0 0 0
0 0 0
0 0 0
0 0 0
0 0 0
0 0 0
0 0 0
0 0 0
0 0 0
0 0 0
0 0 0
0 0 0
0 0 0
0 0 0
0 0 0
16 16 16
0 0 0
19 19 19
6 13 7
33 33 33
39 39 39
33 33 33
0 0 0
0 0 0
0 0 0
0 0 0
0 0 0
0 0 0
0 0 0
0 0 0
0 0 0
0 0 0
0 0 0
0 0 0
0 0 0
0 0 0
0 0 0
0 0 0
0 0 0
0 0 0
0 0 0
0 0 0
0 0 0
0 0 0
0 0 0
0 0 0
0 0 0
0 0 0
0 0 0
0 0 0
0 0 0
0 0 0
0 0 0
0 0 0
0 0 0
0 0 0
0 0 0
0 0 0
0 0 0
0 0 0
0 0 0
0 0 0
19 19 19
0 0 0
0 0 0
0 0 0
36 36 36
51 51 51
39 39 39
39 39 39
64 64 64
39 39 39
32 32 32
19 19 19
0 0 0
0 0 0
0 0 0
0 0 0
0 0 0
0 0 0
0 0 0
0 0 0
0 0 0
0 0 0
0 0 0
0 0 0
0 0 0
0 0 0
0 0 0
0 0 0
0 0 0
0 0 0
0 0 0
0 0 0
0 0 0
0 0 0
0 0 0
0 0 0
0 0 0
0 0 0
0 0 0
0 0 0
0 0 0
0 0 0
0 0 0
0 0 0
0 0 0
0 0 0
0 0 0
16 16 16
0 0 0
0 0 0
0 0 0
0 0 0
27 27 27
39 39 39
39 39 39
55 55 55
46 46 46
56 56 56
47 47 47
47 47 47
43 43 43
39 39 39
19 19 19
0 0 0
0 0 0
0 0 0
0 0 0
0 0 0
0 0 0
0 0 0
0 0 0
0 0 0
0 0 0
0 0 0
0 0 0
0 0 0
0 0 0
0 0 0
0 0 0
0 0 0
0 0 0
0 0 0
0 0 0
0 0 0
0 0 0
0 0 0
0 0 0
0 0 0
0 0 0
0 0 0
0 0 0
0 0 0
0 0 0
0 0 0
0 0 0
0 0 0
0 0 0
12 12 12
0 0 0
16 16 16
16 16 16
25 25 25
39 39 39
51 51 51
51 51 51
67 67 67
73 74 73
89 90 89
61 61 61
58 58 58
54 54 54
46 46 46
19 19 19
0 0 0
0 0 0
0 0 0
0 0 0
0 0 0
0 0 0
0 0 0
0 0 0
0 0 0
0 0 0
0 0 0
0 0 0
0 0 0
0 0 0
0 0 0
0 0 0
0 0 0
0 0 0
0 0 0
0 0 0
0 0 0
0 0 0
0 0 0
0 0 0
0 0 0
0 0 0
0 0 0
0 0 0
0 0 0
0 0 0
0 0 0
0 0 0
16 16 16
16 16 16
0 0 0
16 16 16
25 25 25
28 28 28
19 19 19
30 30 30
59 59 59
53 53 53
61 61 61
86 86 86
76 77 76
82 82 82
97 98 97
89 90 89
64 64 64
54 54 54
0 0 0
0 0 0
0 0 0
0 0 0
0 0 0
0 0 0
0 0 0
0 0 0
0 0 0
0 0 0
0 0 0
0 0 0
0 0 0
0 0 0
0 0 0
0 0 0
0 0 0
0 0 0
0 0 0
0 0 0
0 0 0
0 0 0
0 0 0
0 0 0
0 0 0
0 0 0
0 0 0
0 0 0
0 0 0
0 0 0
0 0 0
0 0 0
0 0 0
16 16 16
16 16 16
0 0 0
16 16 16
25 25 25
41 41 41
41 41 41
61 61 61
78 78 78
97 97 97
94 94 94
93 95 93
106 106 106
111 112 111
101 102 101
66 66 66
68 68 68
16 16 16
0 0 0
0 0 0
0 0 0
0 0 0
0 0 0
0 0 0
0 0 0
0 0 0
0 0 0
0 0 0
0 0 0
0 0 0
0 0 0
0 0 0
0 0 0
0 0 0
0 0 0
0 0 0
0 0 0
0 0 0
0 0 0
0 0 0
0 0 0
0 0 0
0 0 0
0 0 0
0 0 0
0 0 0
0 0 0
0 0 0
0 0 0
16 16 16
23 23 23
20 20 20
16 16 16
38 38 38
28 28 28
24 24 24
25 25 25
45 45 45
78 78 78
74 74 74
110 112 111
105 106 105
107 107 107
102 104 102
84 85 84
108 108 108
71 72 71
42 42 42
19 19 19
0 0 0
0 0 0
0 0 0
0 0 0
0 0 0
0 0 0
0 0 0
0 0 0
0 0 0
0 0 0
0 0 0
0 0 0
0 0 0
0 0 0
0 0 0
0 0 0
0 0 0
0 0 0
0 0 0
0 0 0
0 0 0
0 0 0
0 0 0
0 0 0
0 0 0
0 0 0
0 0 0
0 0 0
0 0 0
23 23 23
0 0 0
0 0 0
16 16 16
0 0 0
16 16 16
23 23 23
33 33 33
32 32 32
25 25 25
30 30 30
64 64 64
113 113 113
134 134 134
113 113 113
130 132 130
123 124 123
110 110 110
87 87 87
36 36 36
0 0 0
0 0 0
0 0 0
0 0 0
32 32 32
32 32 32
0 0 0
0 0 0
0 0 0
0 0 0
0 0 0
0 0 0
0 0 0
0 0 0
0 0 0
0 0 0
0 0 0
0 0 0
0 0 0
0 0 0
0 0 0
0 0 0
0 0 0
0 0 0
0 0 0
0 0 0
0 0 0
0 0 0
0 0 0
0 0 0
23 23 23
23 23 23
14 14 14
23 23 23
20 20 20
31 31 31
16 16 16
36 36 36
38 38 38
57 57 57
43 43 43
68 68 68
114 115 114
134 134 134
126 127 126
109 112 109
138 139 138
127 128 127
88 88 88
50 50 50
0 0 0
0 0 0
0 0 0
0 0 0
255 255 255
255 255 255
255 255 255
255 255 255
255 255 255
0 0 0
0 0 0
0 0 0
0 0 0
0 0 0
0 0 0
0 0 0
0 0 0
0 0 0
0 0 0
0 0 0
0 0 0
0 0 0
0 0 0
0 0 0
0 0 0
0 0 0
0 0 0
0 0 0
0 0 0
0 0 0
16 16 16
16 16 16
21 21 21
27 27 27
16 16 16
32 32 32
42 42 42
37 37 37
32 32 32
49 49 49
56 56 56
52 52 52
104 105 104
131 133 131
144 145 144
130 133 131
130 132 130
117 118 117
108 109 108
59 59 59
16 16 16
0 0 0
0 0 0
0 0 0
255 255 255
255 255 255
255 255 255
255 255 255
255 255 255
0 0 0
0 0 0
0 0 0
0 0 0
0 0 0
0 0 0
0 0 0
0 0 0
0 0 0
0 0 0
0 0 0
0 0 0
0 0 0
0 0 0
0 0 0
0 0 0
0 0 0
0 0 0
0 0 0
0 0 0
16 16 16
37 37 37
0 0 0
20 20 20
33 33 33
34 34 34
23 23 23
45 45 45
60 60 60
59 59 59
66 66 66
37 37 37
76 76 76
110 110 110
124 125 124
141 142 141
147 149 147
149 150 149
130 131 130
92 93 92
52 52 52
0 0 0
0 0 0
0 0 0
0 0 0
255 255 255
255 255 255
255 255 255
255 255 255
255 255 255
22 22 22
0 0 0
0 0 0
0 0 0
0 0 0
0 0 0
0 0 0
0 0 0
0 0 0
0 0 0
0 0 0
0 0 0
0 0 0
0 0 0
0 0 0
0 0 0
0 0 0
0 0 0
0 0 0
0 0 0
0 0 0
16 16 16
28 28 28
30 30 30
19 19 19
40 40 40
43 43 43
43 43 43
49 49 49
56 56 56
77 77 77
63 63 63
77 77 77
113 113 113
125 127 125
148 150 148
144 147 144
131 133 132
125 125 125
85 86 85
25 25 25
0 0 0
0 0 0
0 0 0
0 0 0
255 255 255
255 255 255
255 255 255
255 255 255
255 255 255
0 0 0
0 0 0
0 0 0
0 0 0
0 0 0
0 0 0
0 0 0
0 0 0
0 0 0
0 0 0
0 0 0
0 0 0
0 0 0
0 0 0
0 0 0
0 0 0
0 0 0
0 0 0
0 0 0
0 0 0
0 0 0
16 16 16
40 40 40
27 27 27
32 32 32
33 33 33
44 44 44
46 46 46
38 38 38
54 54 54
56 56 56
74 74 74
83 84 83
116 116 116
122 123 122
131 132 131
153 155 153
120 120 120
99 99 99
59 59 59
0 0 0
0 0 0
0 0 0
0 0 0
0 0 0
255 255 255
255 255 255
255 255 255
255 255 255
255 255 255
22 22 22
0 0 0
0 0 0
0 0 0
0 0 0
0 0 0
0 0 0
0 0 0
0 0 0
0 0 0
0 0 0
0 0 0
0 0 0
0 0 0
0 0 0
0 0 0
0 0 0
0 0 0
0 0 0
0 0 0
0 0 0
16 16 16
33 33 33
42 42 42
37 37 37
37 37 37
42 42 42
45 45 45
34 34 34
43 43 43
78 78 78
59 59 59
111 111 111
107 108 107
124 125 124
138 138 138
125 128 126
117 118 117
109 109 109
52 52 52
0 0 0
0 0 0
0 0 0
0 0 0
0 0 0
255 255 255
255 255 255
255 255 255
255 255 255
255 255 255
0 0 0
0 0 0
0 0 0
0 0 0
0 0 0
0 0 0
0 0 0
0 0 0
0 0 0
0 0 0
0 0 0
0 0 0
0 0 0
0 0 0
0 0 0
0 0 0
0 0 0
0 0 0
0 0 0
0 0 0
0 0 0
0 0 0
22 22 22
37 37 37
32 32 32
28 28 28
26 26 26
48 49 48
56 56 56
65 65 65
74 74 74
85 85 85
93 93 93
120 121 120
121 123 121
127 127 127
108 109 108
93 93 93
79 79 79
19 19 19
0 0 0
0 0 0
0 0 0
0 0 0
0 0 0
255 255 255
255 255 255
255 255 255
255 255 255
255 255 255
0 0 0
0 0 0
0 0 0
0 0 0
0 0 0
0 0 0
0 0 0
0 0 0
0 0 0
0 0 0
0 0 0
0 0 0
0 0 0
0 0 0
0 0 0
0 0 0
0 0 0
0 0 0
0 0 0
0 0 0
0 0 0
0 0 0
16 16 16
33 33 33
40 40 40
42 42 42
46 46 46
46 46 46
50 50 50
70 70 70
57 57 57
69 69 69
86 86 86
110 110 110
107 108 107
108 108 108
109 109 109
73 73 73
29 29 29
0 0 0
0 0 0
0 0 0
0 0 0
0 0 0
0 0 0
255 255 255
255 255 255
255 255 255
255 255 255
255 255 255
0 0 0
0 0 0
0 0 0
0 0 0
0 0 0
0 0 0
0 0 0
0 0 0
0 0 0
0 0 0
0 0 0
0 0 0
0 0 0
0 0 0
0 0 0
0 0 0
0 0 0
0 0 0
0 0 0
0 0 0
0 0 0
0 0 0
0 0 0
16 16 16
40 40 40
38 38 38
44 44 44
41 41 41
38 38 38
56 56 56
63 63 63
74 74 74
40 40 40
27 27 27
57 57 57
92 92 92
57 57 57
27 27 27
0 0 0
0 0 0
0 0 0
0 0 0
0 0 0
0 0 0
0 0 0
255 255 255
255 255 255
255 255 255
255 255 255
255 255 255
22 22 22
0 0 0
0 0 0
0 0 0
0 0 0
0 0 0
0 0 0
0 0 0
0 0 0
0 0 0
0 0 0
0 0 0
0 0 0
0 0 0
0 0 0
0 0 0
0 0 0
0 0 0
0 0 0
0 0 0
0 0 0
0 0 0
0 0 0
0 0 0
0 0 0
28 28 28
25 25 25
41 41 41
54 54 54
58 58 58
63 63 63
54 54 54
19 19 19
0 0 0
45 45 45
52 52 52
0 0 0
0 0 0
0 0 0
0 0 0
19 19 19
0 0 0
0 0 0
0 0 0
0 0 0
255 255 255
255 255 255
255 255 255
255 255 255
255 255 255
0 0 0
0 0 0
0 0 0
0 0 0
0 0 0
0 0 0
0 0 0
0 0 0
0 0 0
0 0 0
0 0 0
0 0 0
0 0 0
0 0 0
0 0 0
0 0 0
0 0 0
0 0 0
0 0 0
0 0 0
0 0 0
0 0 0
0 0 0
0 0 0
0 0 0
0 0 0
0 0 0
16 16 16
43 43 43
42 42 42
37 37 37
30 30 30
0 0 0
0 0 0
0 0 0
0 0 0
0 0 0
0 0 0
0 0 0
0 0 0
0 0 0
0 0 0
0 0 0
0 0 0
0 0 0
255 255 255
255 255 255
255 255 255
255 255 255
255 255 255
0 0 0
0 0 0
0 0 0
0 0 0
0 0 0
0 0 0
0 0 0
0 0 0
0 0 0
0 0 0
0 0 0
0 0 0
0 0 0
0 0 0
0 0 0
0 0 0
0 0 0
0 0 0
0 0 0
0 0 0
0 0 0
0 0 0
0 0 0
0 0 0
0 0 0
0 0 0
0 0 0
0 0 0
0 0 0
0 0 0
0 0 0
0 0 0
0 0 0
0 0 0
0 0 0
0 0 0
0 0 0
0 0 0
0 0 0
0 0 0
0 0 0
0 0 0
0 0 0
0 0 0
19 19 19
255 255 255
255 255 255
255 255 255
255 255 255
255 255 255
0 0 0
0 0 0
19 19 19
0 0 0
0 0 0
0 0 0
0 0 0
0 0 0
0 0 0
0 0 0
0 0 0
0 0 0
0 0 0
0 0 0
0 0 0
0 0 0
0 0 0
0 0 0
0 0 0
0 0 0
0 0 0
0 0 0
0 0 0
0 0 0
0 0 0
19 19 19
0 0 0
0 0 0
0 0 0
0 0 0
0 0 0
0 0 0
0 0 0
0 0 0
0 0 0
0 0 0
0 0 0
0 0 0
0 0 0
27 27 27
19 19 19
0 0 0
14 14 14
0 0 0
19 19 19
68 68 68
146 146 146
255 255 255
255 255 255
255 255 255
0 0 0
19 19 19
0 0 0
0 0 0
19 19 19
0 0 0
0 0 0
0 0 0
0 0 0
0 0 0
0 0 0
0 0 0
0 0 0
0 0 0
0 0 0
19 19 19
0 0 0
0 0 0
19 19 19
0 0 0
0 0 0
0 0 0
0 0 0
0 0 0
0 0 0
14 14 14
0 0 0
0 0 0
0 0 0
0 0 0
0 0 0
0 0 0
0 0 0
0 0 0
0 0 0
0 0 0
0 0 0
0 0 0
0 0 0
14 14 14
0 0 0
0 0 0
24 24 24
0 0 0
0 0 0
0 0 0
14 14 14
19 19 19
19 19 19
19 19 19
0 0 0
19 19 19
0 0 0
19 19 19
19 19 19
0 0 0
0 0 0
19 19 19
0 0 0
0 0 0
0 0 0
0 0 0
0 0 0
19 19 19
0 0 0
0 0 0
0 0 0
14 14 14
24 24 24
0 0 0
0 0 0
35 35 35
0 0 0
0 0 0
0 0 0
19 19 19
0 0 0
19 19 19
22 22 22
0 0 0
19 19 19
0 0 0
0 0 0
0 0 0
0 0 0
10 10 10
0 0 0
0 0 0
19 19 19
0 0 0
0 0 0
19 19 19
19 19 19
19 19 19
0 0 0
27 27 27
43 43 43
19 19 19
0 0 0
39 39 39
19 19 19
19 19 19
47 47 47
41 41 41
33 33 33
39 39 39
39 39 39
25 25 25
27 27 27
33 33 33
19 19 19
33 33 33
27 27 27
27 27 27
33 33 33
40 40 40
0 0 0
33 33 33
31 31 31
19 19 19
36 36 36
31 31 31
40 40 40
14 14 14
43 43 43
32 32 32
32 32 32
33 33 33
46 46 46
27 27 27
6 13 7
16 16 16
0 0 0
0 0 0
16 16 16
41 41 41
29 29 29
19 19 19
21 21 21
19 19 19
29 29 29
34 34 34
27 27 27
25 25 25
31 31 31
28 28 28
27 27 27
50 50 50
51 51 51
39 39 39
46 46 46
71 71 71
50 50 50
52 52 52
54 54 54
39 39 39
28 28 28
33 33 33
39 39 39
19 19 19
31 31 31
33 33 33
33 33 33
0 0 0
33 33 33
31 31 31
43 43 43
44 44 44
43 43 43
53 53 53
47 47 47
43 43 43
39 39 39
51 51 51
47 47 47
56 56 56
65 65 65
59 59 59
53 53 53
74 74 74
58 58 58
58 58 58
40 42 40
0 0 0
54 54 54
72 72 72
67 67 67
64 64 64
69 69 69
45 45 45
46 46 46
61 61 61
40 40 40
35 35 35
67 67 67
65 65 65
78 78 78
69 69 69
77 77 77
90 90 90
86 86 86
95 95 95
92 92 92
96 96 96
78 78 78
73 73 73
0 0 0
33 33 33
39 39 39
27 27 27
58 58 58
39 39 39
55 55 55
48 48 48
36 36 36
53 53 53
35 35 35
55 55 55
43 43 43
31 31 31
55 55 55
46 46 46
62 62 62
57 57 57
61 61 61
76 76 76
64 64 64
65 65 65
99 99 99
81 81 81
70 70 70
105 105 105
91 91 91
89 89 89
95 96 95
108 108 108
107 107 107
115 115 115
121 121 121
111 112 111
119 119 119
108 108 108
134 134 134
100 100 100
90 90 90
69 69 69
76 76 76
93 93 93
121 121 121
123 123 123
116 116 116
124 124 124
144 144 144
128 128 128
128 128 128
130 130 130
39 39 39
33 33 33
33 33 33
39 39 39
27 27 27
39 39 39
19 19 19
43 43 43
37 37 37
63 63 63
53 53 53
33 33 33
55 55 55
41 41 41
33 33 33
55 55 55
57 57 57
63 63 63
71 71 71
76 76 76
74 74 74
98 98 98
87 87 87
91 91 91
84 84 84
90 90 90
111 111 111
94 94 94
96 96 96
133 133 133
122 122 122
123 123 123
135 135 135
131 131 131
146 146 146
127 127 127
137 137 137
142 142 142
139 139 139
128 129 128
109 109 109
58 58 58
76 76 76
77 77 77
133 133 133
127 127 127
141 141 141
142 142 142
143 143 143
133 133 133
33 33 33
47 47 47
27 27 27
39 39 39
46 46 46
33 33 33
33 33 33
46 46 46
39 39 39
50 50 50
58 58 58
33 33 33
67 67 67
67 67 67
64 64 64
64 64 64
58 58 58
64 64 64
81 81 81
77 77 77
58 58 58
70 70 70
71 71 71
87 87 87
99 99 99
84 84 84
89 89 89
95 95 95
84 84 84
93 93 93
114 114 114
97 97 97
110 110 110
85 85 85
115 115 115
94 94 94
140 140 140
116 116 116
120 120 120
108 108 108
115 115 115
93 93 93
83 83 83
55 55 55
57 57 57
41 41 41
61 61 61
64 64 64
84 84 84
91 91 91
19 19 19
33 33 33
43 43 43
19 19 19
39 39 39
33 33 33
43 43 43
43 43 43
51 51 51
42 42 42
52 52 52
47 47 47
39 39 39
51 51 51
55 55 55
65 65 65
52 52 52
57 57 57
58 58 58
19 19 19
73 73 73
72 73 72
55 55 55
47 47 47
71 71 71
70 70 70
75 75 75
77 77 77
67 67 67
70 70 70
77 77 77
76 76 76
78 78 78
85 85 85
73 73 73
96 96 96
85 85 85
87 87 87
78 78 78
73 73 73
80 80 80
56 56 56
64 64 64
50 50 50
63 63 63
29 29 29
32 32 32
19 19 19
44 44 44
27 27 27
47 47 47
27 27 27
33 33 33
30 30 30
43 43 43
33 33 33
27 27 27
39 39 39
55 55 55
47 47 47
46 46 46
33 33 33
43 43 43
43 43 43
61 61 61
27 27 27
44 44 44
51 51 51
51 52 52
55 55 55
64 64 64
67 67 67
64 64 64
63 63 63
61 61 61
51 51 51
64 64 64
50 50 50
73 73 73
66 66 66
47 47 47
61 61 61
64 64 64
43 43 43
71 71 71
64 64 64
39 39 39
27 27 27
57 57 57
53 53 53
43 43 43
41 41 41
51 51 51
63 64 63
27 27 27
44 44 44
42 42 42
24 24 24
0 0 0
24 24 24
33 33 33
58 58 58
33 33 33
33 33 33
27 27 27
47 47 47
19 19 19
0 0 0
39 39 39
27 27 27
19 19 19
25 25 25
0 0 0
33 33 33
43 43 43
47 47 47
39 39 39
33 33 33
27 27 27
47 47 47
37 37 37
46 46 46
43 43 43
39 39 39
56 56 56
55 55 55
50 50 50
33 33 33
43 43 43
43 43 43
55 55 55
50 50 50
51 51 51
51 51 51
37 37 37
43 43 43
33 33 33
36 36 36
19 19 19
47 47 47
33 33 33
33 33 33
42 42 42
25 25 25
33 33 33
0 0 0
0 0 0
19 19 19
27 27 27
43 43 43
19 19 19
46 46 46
27 27 27
39 39 39
0 0 0
19 19 19
27 27 27
33 33 33
36 36 36
19 19 19
19 19 19
19 19 19
43 43 43
41 41 41
27 27 27
27 27 27
33 33 33
39 39 39
0 0 0
43 43 43
0 0 0
43 43 43
50 50 50
33 33 33
19 19 19
32 32 32
25 25 25
48 48 48
43 43 43
19 19 19
50 50 50
47 47 47
33 33 33
27 27 27
19 19 19
55 55 55
37 37 37
42 42 42
33 33 33
33 33 33
43 43 43
39 39 39
39 39 39
33 33 33
0 0 0
39 39 39
27 27 27
27 27 27
19 19 19
0 0 0
27 27 27
19 19 19
19 19 19
27 27 27
24 24 24
0 0 0
33 33 33
0 0 0
19 19 19
19 19 19
25 25 25
27 27 27
27 27 27
19 19 19
27 27 27
0 0 0
19 19 19
27 27 27
33 33 33
33 33 33
27 27 27
46 46 46
33 33 33
33 33 33
33 33 33
0 0 0
27 27 27
33 33 33
33 33 33
33 33 33
47 47 47
33 33 33
37 37 37
39 39 39
47 47 47
33 33 33
32 32 32
0 0 0
27 27 27
47 47 47
31 31 31
27 27 27
27 27 27
0 0 0
0 0 0
19 19 19
19 19 19
0 0 0
19 19 19
19 19 19
27 27 27
0 0 0
19 19 19
47 47 47
27 27 27
46 46 46
27 27 27
39 39 39
23 23 23
27 27 27
33 33 33
33 33 33
19 19 19
43 43 43
33 33 33
19 19 19
19 19 19
27 27 27
0 0 0
0 0 0
27 27 27
19 19 19
16 16 16
42 42 42
0 0 0
19 19 19
25 25 25
25 25 25
0 0 0
39 39 39
39 39 39
19 19 19
43 43 43
39 39 39
33 33 33
33 33 33
16 16 16
29 29 29
19 19 19
19 19 19
39 39 39
27 27 27
27 27 27
30 30 30
27 27 27
27 27 27
19 19 19
27 27 27
19 19 19
19 19 19
25 25 25
0 0 0
19 19 19
0 0 0
19 19 19
33 33 33
27 27 27
33 33 33
33 33 33
25 25 25
27 27 27
19 19 19
19 19 19
19 19 19
19 19 19
19 19 19
27 27 27
0 0 0
27 27 27
25 25 25
19 19 19
27 27 27
19 19 19
19 19 19
28 29 28
0 0 0
32 32 32
19 19 19
16 16 16
0 0 0
19 19 19
19 19 19
0 0 0
32 32 32
0 0 0
19 19 19
32 32 32
19 19 19
19 19 19
27 27 27
27 27 27
19 19 19
27 27 27
0 0 0
0 0 0
19 19 19
27 27 27
19 19 19
19 19 19
19 19 19
0 0 0
19 19 19
19 19 19
0 0 0
27 27 27
0 0 0
0 0 0
19 19 19
19 19 19
0 0 0
27 27 27
32 32 32
0 0 0
0 0 0
0 0 0
33 33 33
39 39 39
19 19 19
0 0 0
27 27 27
19 19 19
27 27 27
22 22 22
19 19 19
19 19 19
0 0 0
16 16 16
19 19 19
0 0 0
0 0 0
19 19 19
25 25 25
27 27 27
19 19 19
19 19 19
0 0 0
19 19 19
0 0 0
19 19 19
27 27 27
33 33 33
27 27 27
0 0 0
14 14 14
19 19 19
0 0 0
0 0 0
19 19 19
14 14 14
27 27 27
19 19 19
0 0 0
19 19 19
19 19 19
27 27 27
19 19 19
19 19 19
19 19 19
0 0 0
0 0 0
27 27 27
42 42 42
0 0 0
14 14 14
24 24 24
33 33 33
19 19 19
0 0 0
19 19 19
0 0 0
19 19 19
19 19 19
0 0 0
19 19 19
19 19 19
39 39 39
25 25 25
33 33 33
19 19 19
19 19 19
19 19 19
19 19 19
0 0 0
0 0 0
0 0 0
0 0 0
23 23 23
31 31 31
0 0 0
0 0 0
0 0 0
27 27 27
0 0 0
0 0 0
19 19 19
19 19 19
16 16 16
27 27 27
19 19 19
19 19 19
27 27 27
0 0 0
14 14 14
19 19 19
19 19 19
19 19 19
19 19 19
0 0 0
0 0 0
19 19 19
14 14 14
19 19 19
0 0 0
16 16 16
0 0 0
0 0 0
19 19 19
19 19 19
0 0 0
19 19 19
27 27 27
19 19 19
19 19 19
0 0 0
19 19 19
19 19 19
0 0 0
0 0 0
0 0 0
12 12 12
19 19 19
0 0 0
0 0 0
0 0 0
19 19 19
0 0 0
19 19 19
19 19 19
0 0 0
0 0 0
16 16 16
19 19 19
19 19 19
0 0 0
25 25 25
19 19 19
0 0 0
0 0 0
27 27 27
32 32 32
19 19 19
16 16 16
0 0 0
19 19 19
19 19 19
19 19 19
0 0 0
19 19 19
0 0 0
19 19 19
19 19 19
0 0 0
16 16 16
0 0 0
0 0 0
19 19 19
19 19 19
0 0 0
27 27 27
19 19 19
19 19 19
24 24 24
27 27 27
27 27 27
27 27 27
0 0 0
0 0 0
14 14 14
19 19 19
0 0 0
27 27 27
0 0 0
0 0 0
0 0 0
0 0 0
0 0 0
0 0 0
0 0 0
19 19 19
0 0 0
19 19 19
0 0 0
19 19 19
0 0 0
0 0 0
19 19 19
0 0 0
0 0 0
19 19 19
0 0 0
