P3
50 50
255
147 30 30
139 37 37
155 41 41
62 4 4
162 42 42
143 37 37
174 102 102
255 255 255
255 255 255
255 255 255
255 255 255
255 255 255
255 255 255
255 255 255
255 255 255
255 255 255
255 255 255
255 255 255
255 255 255
255 255 255
255 255 255
255 255 255
255 255 255
255 255 255
250 194 194
195 167 167
212 108 108
215 54 54
126 30 30
223 56 56
133 30 30
161 37 37
126 30 30
92 21 21
109 30 30
125 30 30
109 30 30
141 22 22
135 28 28
135 30 30
157 31 31
99 21 21
142 37 37
114 21 21
200 43 43
100 21 21
77 21 21
0 0 0
100 21 21
40 0 0
125 28 28
176 37 37
186 36 36
148 29 29
110 28 28
118 21 21
255 237 237
255 255 255
255 255 255
255 255 255
255 255 255
255 255 255
255 255 255
255 255 255
255 255 255
255 255 255
255 255 255
255 255 255
255 255 255
255 255 255
255 255 255
255 255 255
255 255 255
255 255 255
255 255 255
255 255 255
255 255 255
255 255 255
255 255 255
255 255 255
255 255 255
255 255 255
255 255 255
0 0 0
121 33 33
111 21 21
74 4 4
111 21 21
183 46 46
50 1 1
87 21 21
157 37 37
125 28 28
123 7 7
120 28 28
62 4 4
111 18 18
160 37 37
92 21 21
113 6 6
62 4 4
176 46 46
124 22 22
137 35 35
158 28 28
57 0 0
255 255 255
255 255 255
255 255 255
255 255 255
255 255 255
255 255 255
255 255 255
255 255 255
255 255 255
255 255 255
255 255 255
255 255 255
255 255 255
255 255 255
255 255 255
255 255 255
255 255 255
255 255 255
255 255 255
255 255 255
255 255 255
255 255 255
255 255 255
255 255 255
255 255 255
255 255 255
253 253 253
109 28 28
110 6 6
154 42 42
74 4 4
107 4 4
40 0 0
109 28 28
143 37 37
116 30 30
111 21 21
138 28 28
110 19 19
62 4 4
107 21 21
133 28 28
42 0 0
110 19 19
100 1 1
117 19 19
150 35 35
64 1 1
109 28 28
119 2 2
255 255 255
255 255 255
255 255 255
255 255 255
255 255 255
255 255 255
255 255 255
255 255 255
255 255 255
255 255 255
255 255 255
255 255 255
255 255 255
255 255 255
255 255 255
255 255 255
255 255 255
255 255 255
255 255 255
255 255 255
255 255 255
255 255 255
255 255 255
255 255 255
255 255 255
143 98 98
87 21 21
150 22 22
171 30 30
66 4 4
156 37 37
113 21 21
87 21 21
143 30 30
130 19 19
142 37 37
131 22 22
0 0 0
127 35 35
136 22 22
136 22 22
62 4 4
119 28 28
70 0 0
0 0 0
160 39 39
78 1 1
77 21 21
130 7 7
111 95 95
255 255 255
255 255 255
255 255 255
255 255 255
255 255 255
255 255 255
255 255 255
255 255 255
255 255 255
255 255 255
255 255 255
255 255 255
255 255 255
255 255 255
255 255 255
255 255 255
255 255 255
255 255 255
255 255 255
255 255 255
255 255 255
255 255 255
255 255 255
255 255 255
135 30 30
50 1 1
90 18 18
108 21 21
149 34 34
50 1 1
116 30 30
74 4 4
105 4 4
79 4 4
74 4 4
165 31 31
77 21 21
82 1 1
112 26 26
79 4 4
103 18 18
125 28 28
79 4 4
135 30 30
0 0 0
117 22 22
103 18 18
107 5 5
87 5 5
70 1 1
255 255 255
255 255 255
255 255 255
255 255 255
255 255 255
255 255 255
255 255 255
255 255 255
255 255 255
255 255 255
255 255 255
255 255 255
255 255 255
255 255 255
255 255 255
255 255 255
255 255 255
255 255 255
255 255 255
255 255 255
255 255 255
255 255 255
224 214 214
143 22 22
73 4 4
84 18 18
121 21 21
111 21 21
0 0 0
114 21 21
82 18 18
100 21 21
70 1 1
94 5 5
65 18 18
0 0 0
101 6 6
64 1 1
123 22 22
99 18 18
79 4 4
82 18 18
71 0 0
91 1 1
77 21 21
0 0 0
82 18 18
82 18 18
70 1 1
121 7 7
64 1 1
62 4 4
40 0 0
140 28 28
149 96 96
167 97 97
245 216 216
227 215 215
255 255 255
255 255 255
255 255 255
255 255 255
255 255 255
255 255 255
255 255 255
255 255 255
255 255 255
255 255 255
255 255 255
255 255 255
255 255 255
82 18 18
104 21 21
81 1 1
97 6 6
40 0 0
117 22 22
138 30 30
77 21 21
0 0 0
127 28 28
62 4 4
83 4 4
124 26 26
81 6 6
99 18 18
109 21 21
113 28 28
77 1 1
0 0 0
96 18 18
64 1 1
99 18 18
62 4 4
0 0 0
40 0 0
50 1 1
70 1 1
50 1 1
53 4 4
87 21 21
140 31 31
146 31 31
147 35 35
79 4 4
128 28 28
82 18 18
113 21 21
50 1 1
113 21 21
64 1 1
76 1 1
62 4 4
91 6 6
81 6 6
89 4 4
141 135 135
214 214 214
255 253 253
255 255 255
62 4 4
0 0 0
114 7 7
50 1 1
57 0 0
42 0 0
50 1 1
111 18 18
102 5 5
74 4 4
88 6 6
62 4 4
40 0 0
127 22 22
42 0 0
114 6 6
65 18 18
62 4 4
143 28 28
0 0 0
64 1 1
58 0 0
123 22 22
50 1 1
53 4 4
0 0 0
40 0 0
0 0 0
50 1 1
50 1 1
99 18 18
118 7 7
81 1 1
77 5 5
114 21 21
115 5 5
101 25 25
77 21 21
103 18 18
121 21 21
86 1 1
53 4 4
40 0 0
40 0 0
0 0 0
62 4 4
0 0 0
92 4 4
40 0 0
53 4 4
0 0 0
40 0 0
53 4 4
92 21 21
67 3 3
127 35 35
77 21 21
50 1 1
58 0 0
40 0 0
77 18 18
99 6 6
104 21 21
100 21 21
0 0 0
76 1 1
74 4 4
0 0 0
50 1 1
62 4 4
134 26 26
65 18 18
64 1 1
77 18 18
88 6 6
89 4 4
62 4 4
0 0 0
64 1 1
40 0 0
65 18 18
77 21 21
87 5 5
136 20 20
92 18 18
95 4 4
50 1 1
127 7 7
118 7 7
74 4 4
65 18 18
0 0 0
70 1 1
40 0 0
0 0 0
98 18 18
0 0 0
79 4 4
40 0 0
40 0 0
66 4 4
0 0 0
0 0 0
0 0 0
0 0 0
42 0 0
94 5 5
0 0 0
62 4 4
0 0 0
79 4 4
96 6 6
141 33 33
134 28 28
0 0 0
0 0 0
79 4 4
67 3 3
50 1 1
110 7 7
86 1 1
97 6 6
66 1 1
96 6 6
88 21 21
82 18 18
0 0 0
89 4 4
0 0 0
50 1 1
0 0 0
81 6 6
96 18 18
0 0 0
74 3 3
105 6 6
0 0 0
75 4 4
150 31 31
82 18 18
40 0 0
73 4 4
77 21 21
0 0 0
50 1 1
40 0 0
86 1 1
62 4 4
88 4 4
0 0 0
66 4 4
0 0 0
53 4 4
53 4 4
66 4 4
58 0 0
0 0 0
87 21 21
58 0 0
50 1 1
62 4 4
81 1 1
62 4 4
64 1 1
92 21 21
64 1 1
79 4 4
62 4 4
40 0 0
68 4 4
88 6 6
120 6 6
84 4 4
40 0 0
50 1 1
0 0 0
77 1 1
0 0 0
77 1 1
53 4 4
0 0 0
92 18 18
65 18 18
70 1 1
53 4 4
93 18 18
90 18 18
92 18 18
108 18 18
0 0 0
0 0 0
58 0 0
75 5 5
57 0 0
0 0 0
0 0 0
65 18 18
75 4 4
50 1 1
62 4 4
40 0 0
53 4 4
50 1 1
66 1 1
40 0 0
0 0 0
64 1 1
40 0 0
85 4 4
40 0 0
81 6 6
50 1 1
77 21 21
97 1 1
66 4 4
124 25 25
82 18 18
50 1 1
130 28 28
70 1 1
64 1 1
0 0 0
0 0 0
0 0 0
0 0 0
53 4 4
79 4 4
62 4 4
77 18 18
50 1 1
50 1 1
65 18 18
92 18 18
125 19 19
53 4 4
92 18 18
75 4 4
105 6 6
0 0 0
40 0 0
40 0 0
40 0 0
53 4 4
0 0 0
75 4 4
70 1 1
70 1 1
0 0 0
0 0 0
50 1 1
82 1 1
87 1 1
50 1 1
0 0 0
50 1 1
0 0 0
74 4 4
0 0 0
57 0 0
73 4 4
64 1 1
50 1 1
88 4 4
65 18 18
89 4 4
79 4 4
94 5 5
96 18 18
40 0 0
0 0 0
90 18 18
64 1 1
78 1 1
40 0 0
92 21 21
40 0 0
50 1 1
101 21 21
0 0 0
107 21 21
92 21 21
0 0 0
102 5 5
64 1 1
94 18 18
88 6 6
0 0 0
53 4 4
79 4 4
40 0 0
0 0 0
0 0 0
0 0 0
92 21 21
50 1 1
40 0 0
0 0 0
0 0 0
0 0 0
0 0 0
0 0 0
0 0 0
70 1 1
0 0 0
40 0 0
64 1 1
0 0 0
91 6 6
76 1 1
0 0 0
75 4 4
0 0 0
42 0 0
62 4 4
89 4 4
40 0 0
81 1 1
126 6 6
40 0 0
88 6 6
40 0 0
53 4 4
0 0 0
0 0 0
77 21 21
101 6 6
66 1 1
0 0 0
78 4 4
0 0 0
101 21 21
77 21 21
89 4 4
0 0 0
0 0 0
77 18 18
40 0 0
42 0 0
58 0 0
50 1 1
62 4 4
79 4 4
74 4 4
64 1 1
0 0 0
0 0 0
0 0 0
0 0 0
0 0 0
0 0 0
0 0 0
0 0 0
0 0 0
0 0 0
0 0 0
102 21 21
96 21 21
66 4 4
120 7 7
92 21 21
0 0 0
92 18 18
40 0 0
64 1 1
0 0 0
92 18 18
0 0 0
50 1 1
40 0 0
0 0 0
107 5 5
0 0 0
57 0 0
0 0 0
0 0 0
40 0 0
86 1 1
50 1 1
99 21 21
58 0 0
77 21 21
0 0 0
64 1 1
106 21 21
111 21 21
40 0 0
90 4 4
50 1 1
73 4 4
110 5 5
62 4 4
53 4 4
87 18 18
50 1 1
40 0 0
0 0 0
0 0 0
0 0 0
0 0 0
0 0 0
0 0 0
0 0 0
0 0 0
0 0 0
0 0 0
0 0 0
0 0 0
50 1 1
57 0 0
90 4 4
40 0 0
50 1 1
40 0 0
90 4 4
75 4 4
108 21 21
0 0 0
101 25 25
86 1 1
40 0 0
77 21 21
91 6 6
98 4 4
62 4 4
0 0 0
96 6 6
125 30 30
96 6 6
62 4 4
70 1 1
79 4 4
89 4 4
77 21 21
77 21 21
95 4 4
101 28 28
116 21 21
75 4 4
57 0 0
0 0 0
64 1 1
78 18 18
70 1 1
81 1 1
0 0 0
0 0 0
0 0 0
0 0 0
0 0 0
0 0 0
0 0 0
0 0 0
0 0 0
0 0 0
0 0 0
0 0 0
0 0 0
0 0 0
81 1 1
79 4 4
0 0 0
53 4 4
0 0 0
0 0 0
99 21 21
57 0 0
0 0 0
40 0 0
88 21 21
57 0 0
88 6 6
100 18 18
50 1 1
64 1 1
0 0 0
65 18 18
131 22 22
0 0 0
50 1 1
99 18 18
0 0 0
118 21 21
0 0 0
70 1 1
106 21 21
125 28 28
89 4 4
74 4 4
161 41 41
79 4 4
127 22 22
87 21 21
96 6 6
101 6 6
0 0 0
0 0 0
0 0 0
0 0 0
0 0 0
0 0 0
0 0 0
0 0 0
0 0 0
0 0 0
0 0 0
0 0 0
0 0 0
0 0 0
73 4 4
0 0 0
73 4 4
50 1 1
135 30 30
57 0 0
125 28 28
42 0 0
88 21 21
120 7 7
94 5 5
87 21 21
0 0 0
115 21 21
50 1 1
50 1 1
0 0 0
123 21 21
93 21 21
137 35 35
117 19 19
92 21 21
100 21 21
74 4 4
102 5 5
96 6 6
64 1 1
62 4 4
141 35 35
40 0 0
126 30 30
70 1 1
53 4 4
40 0 0
65 18 18
79 4 4
0 0 0
0 0 0
0 0 0
0 0 0
0 0 0
0 0 0
0 0 0
0 0 0
0 0 0
0 0 0
0 0 0
0 0 0
0 0 0
0 0 0
0 0 0
118 21 21
87 21 21
40 0 0
133 22 22
0 0 0
0 0 0
62 4 4
84 4 4
99 21 21
131 22 22
94 5 5
62 4 4
62 4 4
132 30 30
77 21 21
0 0 0
50 1 1
107 8 8
62 4 4
106 5 5
156 29 29
79 4 4
131 33 33
92 21 21
134 18 18
76 1 1
62 4 4
57 0 0
50 1 1
0 0 0
153 37 37
74 4 4
88 21 21
94 5 5
79 4 4
0 0 0
0 0 0
0 0 0
0 0 0
0 0 0
0 0 0
0 0 0
0 0 0
0 0 0
0 0 0
0 0 0
0 0 0
0 0 0
0 0 0
0 0 0
108 21 21
142 37 37
96 18 18
120 30 30
91 6 6
0 0 0
70 1 1
76 1 1
87 21 21
101 28 28
50 1 1
77 21 21
40 0 0
40 0 0
99 21 21
0 0 0
105 6 6
141 35 35
62 4 4
92 4 4
74 4 4
101 25 25
142 37 37
106 21 21
111 21 21
89 4 4
87 21 21
107 21 21
130 28 28
109 30 30
152 37 37
132 30 30
124 21 21
77 21 21
0 0 0
0 0 0
0 0 0
0 0 0
0 0 0
0 0 0
0 0 0
0 0 0
0 0 0
0 0 0
0 0 0
0 0 0
0 0 0
0 0 0
0 0 0
74 4 4
128 21 21
76 1 1
62 4 4
74 4 4
64 1 1
40 0 0
99 21 21
62 4 4
111 21 21
116 6 6
57 0 0
50 1 1
74 4 4
92 21 21
64 1 1
0 0 0
116 30 30
116 28 28
88 6 6
89 4 4
108 21 21
0 0 0
62 4 4
117 22 22
115 21 21
101 28 28
106 4 4
127 35 35
82 1 1
88 4 4
79 4 4
156 31 31
77 21 21
92 21 21
114 21 21
0 0 0
0 0 0
0 0 0
0 0 0
0 0 0
0 0 0
0 0 0
0 0 0
0 0 0
0 0 0
0 0 0
0 0 0
0 0 0
0 0 0
89 4 4
0 0 0
94 5 5
107 21 21
144 22 22
62 4 4
162 34 34
58 0 0
100 21 21
101 21 21
94 5 5
88 6 6
98 4 4
50 1 1
64 1 1
104 21 21
40 0 0
79 4 4
118 21 21
120 30 30
96 6 6
190 46 46
77 21 21
149 28 28
58 0 0
77 21 21
64 1 1
88 6 6
62 4 4
77 18 18
45 3 3
141 30 30
125 30 30
109 30 30
120 30 30
87 21 21
0 0 0
0 0 0
0 0 0
0 0 0
0 0 0
0 0 0
0 0 0
0 0 0
0 0 0
0 0 0
0 0 0
0 0 0
40 0 0
104 21 21
77 18 18
79 4 4
109 30 30
66 4 4
0 0 0
92 21 21
127 35 35
0 0 0
112 21 21
79 4 4
64 1 1
97 6 6
141 30 30
50 1 1
107 18 18
83 4 4
161 37 37
120 6 6
148 23 23
163 37 37
105 6 6
100 18 18
118 21 21
50 1 1
148 37 37
92 21 21
64 1 1
101 28 28
93 21 21
175 46 46
77 21 21
89 4 4
87 4 4
92 1 1
165 37 37
91 6 6
113 28 28
0 0 0
0 0 0
0 0 0
0 0 0
0 0 0
0 0 0
0 0 0
0 0 0
0 0 0
0 0 0
0 0 0
93 21 21
42 0 0
166 37 37
99 21 21
62 4 4
109 30 30
50 1 1
65 18 18
87 21 21
103 4 4
40 0 0
50 1 1
107 21 21
87 4 4
96 6 6
86 5 5
90 18 18
0 0 0
97 6 6
101 6 6
99 21 21
140 30 30
141 22 22
141 30 30
120 9 9
87 18 18
93 18 18
96 18 18
124 30 30
139 22 22
91 6 6
77 21 21
131 22 22
138 22 22
116 30 30
116 30 30
132 8 8
146 31 31
92 21 21
62 4 4
0 0 0
0 0 0
0 0 0
0 0 0
0 0 0
0 0 0
0 0 0
0 0 0
50 1 1
99 21 21
165 37 37
125 30 30
129 22 22
93 21 21
152 29 29
127 30 30
50 1 1
79 4 4
152 22 22
50 1 1
76 1 1
75 4 4
123 22 22
132 30 30
116 30 30
77 21 21
118 21 21
109 30 30
92 21 21
0 0 0
151 37 37
0 0 0
149 28 28
40 0 0
107 8 8
107 21 21
123 22 22
84 18 18
120 6 6
96 6 6
77 21 21
99 21 21
136 30 30
99 21 21
117 22 22
71 0 0
95 1 1
99 21 21
77 21 21
126 28 28
66 4 4
50 1 1
0 0 0
65 18 18
0 0 0
0 0 0
0 0 0
109 30 30
65 18 18
143 22 22
120 25 25
111 18 18
111 21 21
123 22 22
99 21 21
106 21 21
62 4 4
121 30 30
0 0 0
64 1 1
144 20 20
62 4 4
87 21 21
135 30 30
77 21 21
109 30 30
158 31 31
82 18 18
146 19 19
0 0 0
157 29 29
153 37 37
99 21 21
166 37 37
98 18 18
153 30 30
77 21 21
123 30 30
138 30 30
87 21 21
77 21 21
141 35 35
94 5 5
110 19 19
40 0 0
57 0 0
77 21 21
120 22 22
120 30 30
104 21 21
50 1 1
117 22 22
99 21 21
117 22 22
50 1 1
77 21 21
77 21 21
75 5 5
170 31 31
144 30 30
161 37 37
104 21 21
166 37 37
142 37 37
42 0 0
40 0 0
162 31 31
0 0 0
117 22 22
136 30 30
124 22 22
104 21 21
137 30 30
106 21 21
97 21 21
140 28 28
81 1 1
77 21 21
161 20 20
50 1 1
124 18 18
126 30 30
82 18 18
123 22 22
94 5 5
104 6 6
65 18 18
140 31 31
125 30 30
74 4 4
65 18 18
58 0 0
77 21 21
108 21 21
78 18 18
151 9 9
113 28 28
133 22 22
77 21 21
99 21 21
120 30 30
109 30 30
117 22 22
81 6 6
92 21 21
92 21 21
77 21 21
130 9 9
107 21 21
159 31 31
117 22 22
87 21 21
75 4 4
58 0 0
97 21 21
116 30 30
0 0 0
146 30 30
92 21 21
150 30 30
135 8 8
106 5 5
66 4 4
50 1 1
82 18 18
108 21 21
83 4 4
145 22 22
163 41 41
109 21 21
62 4 4
112 21 21
0 0 0
89 4 4
142 35 35
40 0 0
92 18 18
101 28 28
87 21 21
104 21 21
108 21 21
141 30 30
140 35 35
107 21 21
109 30 30
0 0 0
118 18 18
96 6 6
123 22 22
64 1 1
115 8 8
171 31 31
99 21 21
111 21 21
158 37 37
161 30 30
99 21 21
140 35 35
62 4 4
135 22 22
117 22 22
81 6 6
99 21 21
127 22 22
124 6 6
77 21 21
40 0 0
146 22 22
114 21 21
118 21 21
50 1 1
96 6 6
127 22 22
142 35 35
120 30 30
87 21 21
92 21 21
81 6 6
144 30 30
117 22 22
111 21 21
138 30 30
0 0 0
127 18 18
120 30 30
116 8 8
88 6 6
92 21 21
127 22 22
105 6 6
135 28 28
102 5 5
105 6 6
77 18 18
57 0 0
79 4 4
122 19 19
62 4 4
40 0 0
108 6 6
62 4 4
142 35 35
96 6 6
116 30 30
114 7 7
40 0 0
40 0 0
79 4 4
62 4 4
101 21 21
66 4 4
98 4 4
96 21 21
93 21 21
120 30 30
104 21 21
57 0 0
77 21 21
62 4 4
94 4 4
155 37 37
170 31 31
111 21 21
79 4 4
108 21 21
116 21 21
128 28 28
123 22 22
74 4 4
82 18 18
132 22 22
77 21 21
152 39 39
130 22 22
133 37 37
113 28 28
147 22 22
101 28 28
109 30 30
77 21 21
0 0 0
75 4 4
77 21 21
108 21 21
50 1 1
0 0 0
77 21 21
77 21 21
160 30 30
92 21 21
79 4 4
108 21 21
120 6 6
50 1 1
129 28 28
157 41 41
120 19 19
94 5 5
141 30 30
148 31 31
99 21 21
124 9 9
100 21 21
77 21 21
132 30 30
93 18 18
124 9 9
42 0 0
123 22 22
123 30 30
0 0 0
89 4 4
88 21 21
125 30 30
40 0 0
89 4 4
157 31 31
128 22 22
128 30 30
136 22 22
87 21 21
132 8 8
84 4 4
117 30 30
88 6 6
79 4 4
109 30 30
75 5 5
50 1 1
104 21 21
111 21 21
182 45 45
100 21 21
87 18 18
112 21 21
70 1 1
62 4 4
92 21 21
100 21 21
81 6 6
70 1 1
50 1 1
0 0 0
106 4 4
138 22 22
45 3 3
89 21 21
124 30 30
62 4 4
92 21 21
136 30 30
77 1 1
0 0 0
93 21 21
159 42 42
143 33 33
180 31 31
88 21 21
164 42 42
181 43 43
151 22 22
124 22 22
169 37 37
88 6 6
125 30 30
125 30 30
107 8 8
135 22 22
121 21 21
127 35 35
101 6 6
125 21 21
92 21 21
70 1 1
120 30 30
101 28 28
42 0 0
112 22 22
115 21 21
159 42 42
45 3 3
62 4 4
40 0 0
74 4 4
109 30 30
100 21 21
0 0 0
112 21 21
0 0 0
130 22 22
147 37 37
133 37 37
88 18 18
101 28 28
106 21 21
181 43 43
62 4 4
127 35 35
128 21 21
111 21 21
125 30 30
141 22 22
94 5 5
134 22 22
92 21 21
101 21 21
101 28 28
168 36 36
98 21 21
74 4 4
186 38 38
77 21 21
153 30 30
92 4 4
137 30 30
101 18 18
76 1 1
140 31 31
92 21 21
50 1 1
99 21 21
126 28 28
86 1 1
113 4 4
57 0 0
150 35 35
0 0 0
99 21 21
99 21 21
120 30 30
87 21 21
70 1 1
79 4 4
64 1 1
123 22 22
62 4 4
137 30 30
53 4 4
109 30 30
64 1 1
87 21 21
96 21 21
99 21 21
77 21 21
130 30 30
122 22 22
133 22 22
96 21 21
116 21 21
177 43 43
87 21 21
125 30 30
50 1 1
74 4 4
99 21 21
101 21 21
50 1 1
161 31 31
130 22 22
111 21 21
89 4 4
149 37 37
92 21 21
50 1 1
87 21 21
122 6 6
100 21 21
106 4 4
190 38 38
127 22 22
100 2 2
102 7 7
104 21 21
40 0 0
66 1 1
153 35 35
103 18 18
79 4 4
87 21 21
109 30 30
40 0 0
40 0 0
95 4 4
109 30 30
94 5 5
129 28 28
125 21 21
143 22 22
112 22 22
79 4 4
87 21 21
166 43 43
0 0 0
120 30 30
138 30 30
107 21 21
150 30 30
92 21 21
57 0 0
66 1 1
108 21 21
157 37 37
77 21 21
109 30 30
125 30 30
62 4 4
100 21 21
173 31 31
77 21 21
125 30 30
42 0 0
135 30 30
109 21 21
107 8 8
103 21 21
74 4 4
133 37 37
104 21 21
154 23 23
92 21 21
82 1 1
133 28 28
162 31 31
109 30 30
64 1 1
40 0 0
74 4 4
70 1 1
155 30 30
121 21 21
77 21 21
0 0 0
40 0 0
92 21 21
88 21 21
148 22 22
101 6 6
77 18 18
104 21 21
84 3 3
107 21 21
133 37 37
151 37 37
99 21 21
120 30 30
77 21 21
0 0 0
92 21 21
107 21 21
77 21 21
133 35 35
94 5 5
79 4 4
99 21 21
179 43 43
192 43 43
133 37 37
117 22 22
142 37 37
77 21 21
119 21 21
169 42 42
109 30 30
50 1 1
136 30 30
120 30 30
116 30 30
118 5 5
130 30 30
137 21 21
154 31 31
40 0 0
0 0 0
89 4 4
0 0 0
111 21 21
136 22 22
123 22 22
120 30 30
132 30 30
132 22 22
128 30 30
87 21 21
62 4 4
0 0 0
127 22 22
130 30 30
133 37 37
133 22 22
117 22 22
133 37 37
107 21 21
168 43 43
0 0 0
165 31 31
158 31 31
128 30 30
130 30 30
123 28 28
176 38 38
146 31 31
148 31 31
92 21 21
183 43 43
141 30 30
85 4 4
132 30 30
182 43 43
109 30 30
176 37 37
141 30 30
113 6 6
92 21 21
193 43 43
77 21 21
173 37 37
109 30 30
132 30 30
101 6 6
141 30 30
126 30 30
109 30 30
0 0 0
123 22 22
109 30 30
57 0 0
109 30 30
100 21 21
152 37 37
116 21 21
101 6 6
109 30 30
40 0 0
129 22 22
40 0 0
50 1 1
96 21 21
152 37 37
141 30 30
66 4 4
120 30 30
126 30 30
77 21 21
135 30 30
0 0 0
75 4 4
40 0 0
130 30 30
97 21 21
133 37 37
0 0 0
135 30 30
139 30 30
79 4 4
165 37 37
153 37 37
102 5 5
94 5 5
169 42 42
107 21 21
77 21 21
106 21 21
140 31 31
121 18 18
87 21 21
92 21 21
155 30 30
89 4 4
102 5 5
116 30 30
114 21 21
0 0 0
77 21 21
108 21 21
81 1 1
148 37 37
99 21 21
97 21 21
79 4 4
126 30 30
62 4 4
110 6 6
92 21 21
77 21 21
70 1 1
74 4 4
88 6 6
123 22 22
153 37 37
109 30 30
116 30 30
197 52 52
169 37 37
151 37 37
121 21 21
179 46 46
113 28 28
161 37 37
156 37 37
77 21 21
0 0 0
0 0 0
154 42 42
114 21 21
129 30 30
74 4 4
109 21 21
177 43 43
169 31 31
127 22 22
161 37 37
141 30 30
109 30 30
131 28 28
177 43 43
135 30 30
192 43 43
135 30 30
0 0 0
146 37 37
120 30 30
40 0 0
62 4 4
64 1 1
40 0 0
118 5 5
148 37 37
92 21 21
93 21 21
0 0 0
70 1 1
77 21 21
77 21 21
77 21 21
0 0 0
99 21 21
0 0 0
90 4 4
79 4 4
127 22 22
139 84 84
110 18 18
112 22 22
40 0 0
203 54 54
163 43 43
185 122 122
155 36 36
139 37 37
50 1 1
124 30 30
50 1 1
116 30 30
125 30 30
109 30 30
151 37 37
107 21 21
100 21 21
212 52 52
117 22 22
123 30 30
203 48 48
139 28 28
143 30 30
144 30 30
99 21 21
155 22 22
146 30 30
62 4 4
142 37 37
126 30 30
62 4 4
40 0 0
57 0 0
64 1 1
96 21 21
100 21 21
0 0 0
0 0 0
81 81 81
97 81 81
77 21 21
156 141 141
103 18 18
115 115 115
136 86 86
97 81 81
155 117 117
161 118 118
92 81 81
0 0 0
219 184 184
145 115 115
200 183 183
132 85 85
190 165 165
138 85 85
121 83 83
82 18 18
172 121 121
167 42 42
119 22 22
130 30 30
77 21 21
166 37 37
107 21 21
104 21 21
134 30 30
143 37 37
205 52 52
94 5 5
127 22 22
159 30 30
136 30 30
130 30 30
161 37 37
175 37 37
0 0 0
174 92 92
129 28 28
67 3 3
77 18 18
115 115 115
123 115 115
164 117 117
163 141 141
130 85 85
176 164 164
144 118 118
179 120 120
81 81 81
133 117 117
190 146 146
163 85 85
162 142 142
177 163 163
148 141 141
170 142 142
138 85 85
146 117 117
172 163 163
140 117 117
196 143 143
162 142 142
115 115 115
170 142 142
110 24 24
156 142 142
158 117 117
187 183 183
174 120 120
90 4 4
120 30 30
163 37 37
179 38 38
176 32 32
109 30 30
96 6 6
87 21 21
116 30 30
139 37 37
134 21 21
125 30 30
164 42 42
155 37 37
144 30 30
0 0 0
88 6 6
146 87 87
115 115 115
92 81 81
105 83 83
78 18 18
135 116 116
125 83 83
205 200 200
230 202 202
171 143 143
138 115 115
170 142 142
148 141 141
0 0 0
205 200 200
198 183 183
81 81 81
175 144 144
148 118 118
172 163 163
194 183 183
148 141 141
181 164 164
182 182 182
205 184 184
113 28 28
175 144 144
237 231 231
110 24 24
115 115 115
218 200 200
139 117 117
170 117 117
134 115 115
130 115 115
77 21 21
136 30 30
177 47 47
147 37 37
148 37 37
149 37 37
108 21 21
109 30 30
173 43 43
117 22 22
144 30 30
136 30 30
148 37 37
116 30 30
79 4 4
110 24 24
153 87 87
151 141 141
92 81 81
126 85 85
156 142 142
177 144 144
184 164 164
105 83 83
115 115 115
115 115 115
68 4 4
249 202 202
126 85 85
215 201 201
200 164 164
164 142 142
211 201 201
200 200 200
158 142 142
174 143 143
176 164 164
205 200 200
222 216 216
169 163 163
208 184 184
97 81 81
202 165 165
202 183 183
211 165 165
114 81 81
200 200 200
135 116 116
148 118 118
141 141 141
158 87 87
123 22 22
155 37 37
125 30 30
187 47 47
143 30 30
138 30 30
109 30 30
42 0 0
109 30 30
152 37 37
160 37 37
40 0 0
169 42 42
177 47 47
172 163 163
115 115 115
154 141 141
194 183 183
160 141 141
194 183 183
180 121 121
184 164 164
181 164 164
200 165 165
119 82 82
199 164 164
108 19 19
143 117 117
182 182 182
194 183 183
206 183 183
159 117 117
148 141 141
154 141 141
250 232 232
194 143 143
211 201 201
163 163 163
132 83 83
202 165 165
210 183 183
163 163 163
201 164 164
141 85 85
188 164 164
97 81 81
170 142 142
171 141 141
199 183 183
99 83 83
211 200 200
97 81 81
146 115 115
156 89 89
116 30 30
109 30 30
142 37 37
127 22 22
160 37 37
114 21 21
153 31 31
181 43 43
101 6 6
164 31 31
108 83 83
109 4 4
156 142 142
176 164 164
141 115 115
237 216 216
204 165 165
65 18 18
124 85 85
117 83 83
180 163 163
195 183 183
161 89 89
134 115 115
154 141 141
181 164 164
199 166 166
249 232 232
113 83 83
157 141 141
200 200 200
224 201 201
220 216 216
197 144 144
113 83 83
145 116 116
212 166 166
144 118 118
197 165 165
231 231 231
123 115 115
149 116 116
158 141 141
134 115 115
137 115 115
123 84 84
119 82 82
203 183 183
151 141 141
154 141 141
65 18 18
154 42 42
136 30 30
96 21 21
109 30 30
125 30 30
120 30 30
172 42 42
145 30 30
181 43 43
179 143 143
194 183 183
184 164 164
124 85 85
209 184 184
130 115 115
245 245 245
166 118 118
195 183 183
145 116 116
129 84 84
182 163 163
246 232 232
169 163 163
175 144 144
156 142 142
158 141 141
195 145 145
195 165 165
163 163 163
172 163 163
237 217 217
107 26 26
139 116 116
172 163 163
255 246 246
181 164 164
127 115 115
184 164 164
206 166 166
65 18 18
135 85 85
197 165 165
213 200 200
142 115 115
135 115 115
115 115 115
109 83 83
167 87 87
143 117 117
143 85 85
100 18 18
89 21 21
120 30 30
142 30 30
141 30 30
125 30 30
176 43 43
146 31 31
160 42 42
156 87 87
123 115 115
255 247 247
180 144 144
123 115 115
190 163 163
227 202 202
133 117 117
238 232 232
148 141 141
165 142 142
188 165 165
194 183 183
143 117 117
156 142 142
156 142 142
199 183 183
117 83 83
68 4 4
126 84 84
154 141 141
133 84 84
165 142 142
199 183 183
197 144 144
117 83 83
184 164 164
178 143 143
81 81 81
154 118 118
115 115 115
182 163 163
123 115 115
124 83 83
190 165 165
165 142 142
97 81 81
171 120 120
182 182 182
187 122 122
158 142 142
84 18 18
141 115 115
158 84 84
176 121 121
187 48 48
111 21 21
87 21 21
99 21 21
62 4 4
204 165 165
143 117 117
92 81 81
130 115 115
144 115 115
202 184 184
126 84 84
152 142 142
224 216 216
195 183 183
194 183 183
203 183 183
148 141 141
159 142 142
127 115 115
217 164 164
161 142 142
148 141 141
235 202 202
210 183 183
205 200 200
223 184 184
215 201 201
127 115 115
185 163 163
133 117 117
163 141 141
124 85 85
141 115 115
138 115 115
169 143 143
211 201 201
143 117 117
134 115 115
97 81 81
229 167 167
171 141 141
193 183 183
195 183 183
157 141 141
131 85 85
200 163 163
53 4 4
143 117 117
162 142 142
170 142 142
177 38 38
95 1 1
125 30 30
99 21 21
129 84 84
190 118 118
154 141 141
97 81 81
163 163 163
179 143 143
154 118 118
163 163 163
185 144 144
224 201 201
168 116 116
138 115 115
165 142 142
102 25 25
187 183 183
171 143 143
175 121 121
195 183 183
172 163 163
160 141 141
162 142 142
177 118 118
169 141 141
211 200 200
176 164 164
190 183 183
203 183 183
181 164 164
92 81 81
147 117 117
172 163 163
180 163 163
197 165 165
185 144 144
162 142 142
196 164 164
160 141 141
163 163 163
116 83 83
113 83 83
158 119 119
193 121 121
129 84 84
139 117 117
113 83 83
199 164 164
78 18 18
153 119 119
122 22 22
122 8 8
