P3
50 50
255
0 0 0
0 0 0
0 0 0
0 0 0
0 0 0
0 0 0
0 0 0
0 0 0
0 0 0
0 0 0
0 0 0
0 0 0
0 0 0
0 0 0
0 0 0
0 0 0
0 0 0
0 0 0
0 0 0
0 0 0
0 0 0
0 0 0
0 0 0
0 0 0
0 0 0
0 0 0
0 0 0
0 0 0
0 0 0
0 0 0
0 0 0
0 0 0
0 0 0
0 0 0
0 0 0
0 0 0
0 0 0
0 0 0
0 0 0
0 0 0
0 0 0
0 0 0
0 0 0
0 0 0
0 0 0
0 0 0
0 0 0
0 0 0
0 0 0
0 0 0
0 0 0
0 0 0
0 0 0
0 0 0
0 0 0
0 0 0
0 0 0
0 0 0
0 0 0
0 0 0
0 0 0
0 0 0
0 0 0
0 0 0
0 0 0
0 0 0
0 0 0
0 0 0
0 0 0
0 0 0
0 0 0
0 0 0
0 0 0
0 0 0
0 0 0
0 0 0
0 0 0
0 0 0
0 0 0
0 0 0
0 0 0
0 0 0
0 0 0
0 0 0
0 0 0
0 0 0
0 0 0
0 0 0
0 0 0
0 0 0
0 0 0
0 0 0
0 0 0
0 0 0
0 0 0
0 0 0
0 0 0
0 0 0
0 0 0
0 0 0
0 0 0
0 0 0
0 0 0
0 0 0
0 0 0
0 0 0
0 0 0
0 0 0
0 0 0
0 0 0
0 0 0
0 0 0
0 0 0
0 0 0
0 0 0
0 0 0
0 0 0
0 0 0
0 0 0
0 0 0
0 0 0
0 0 0
0 0 0
0 0 0
0 0 0
0 0 0
0 0 0
0 0 0
0 0 0
0 0 0
0 0 0
0 0 0
0 0 0
0 0 0
0 0 0
0 0 0
0 0 0
0 0 0
0 0 0
0 0 0
0 0 0
0 0 0
0 0 0
0 0 0
0 0 0
0 0 0
0 0 0
0 0 0
0 0 0
0 0 0
0 0 0
0 0 0
0 0 0
0 0 0
0 0 0
0 0 0
0 0 0
0 0 0
0 0 0
0 0 0
0 0 0
0 0 0
0 0 0
0 0 0
0 0 0
0 0 0
0 0 0
0 0 0
0 0 0
0 0 0
0 0 0
0 0 0
0 0 0
0 0 0
0 0 0
0 0 0
0 0 0
0 0 0
0 0 0
0 0 0
0 0 0
0 0 0
0 0 0
0 0 0
0 0 0
0 0 0
0 0 0
0 0 0
0 0 0
0 0 0
0 0 0
0 0 0
0 0 0
0 0 0
0 0 0
0 0 0
0 0 0
0 0 0
0 0 0
0 0 0
0 0 0
0 0 0
0 0 0
0 0 0
0 0 0
0 0 0
0 0 0
0 0 0
0 0 0
0 0 0
0 0 0
0 0 0
0 0 0
0 0 0
0 0 0
0 0 0
0 0 0
0 0 0
0 0 0
0 0 0
0 0 0
0 0 0
0 0 0
0 0 0
0 0 0
0 0 0
0 0 0
0 0 0
0 0 0
0 0 0
0 0 0
0 0 0
0 0 0
0 0 0
0 0 0
0 0 0
0 0 0
0 0 0
0 0 0
0 0 0
0 0 0
0 0 0
0 0 0
0 0 0
0 0 0
0 0 0
0 0 0
0 0 0
0 0 0
0 0 0
0 0 0
0 0 0
0 0 0
0 0 0
0 0 0
0 0 0
0 0 0
0 0 0
0 0 0
0 0 0
0 0 0
0 0 0
0 0 0
0 0 0
0 0 0
0 0 0
0 0 0
0 0 0
0 0 0
0 0 0
0 0 0
0 0 0
0 0 0
0 0 0
0 0 0
0 0 0
0 0 0
0 0 0
0 0 0
0 0 0
0 0 0
0 0 0
0 0 0
0 0 0
0 0 0
0 0 0
0 0 0
0 0 0
0 0 0
0 0 0
0 0 0
0 0 0
0 0 0
0 0 0
0 0 0
0 0 0
0 0 0
0 0 0
0 0 0
0 0 0
0 0 0
0 0 0
0 0 0
0 0 0
0 0 0
0 0 0
0 0 0
0 0 0
0 0 0
0 0 0
0 0 0
0 0 0
0 0 0
0 0 0
0 0 0
0 0 0
0 0 0
0 0 0
0 0 0
0 0 0
0 0 0
0 0 0
0 0 0
0 0 0
0 0 0
0 0 0
0 0 0
0 0 0
0 0 0
0 0 0
0 0 0
0 0 0
0 0 0
0 0 0
0 0 0
0 0 0
0 0 0
0 0 0
0 0 0
0 0 0
0 0 0
0 0 0
0 0 0
0 0 0
0 0 0
0 0 0
0 0 0
0 0 0
0 0 0
0 0 0
0 0 0
0 0 0
0 0 0
0 0 0
0 0 0
0 0 0
0 0 0
0 0 0
0 0 0
0 0 0
0 0 0
0 0 0
0 0 0
0 0 0
0 0 0
0 0 0
0 0 0
0 0 0
0 0 0
0 0 0
0 0 0
0 0 0
0 0 0
0 0 0
0 0 0
0 0 0
0 0 0
0 0 0
0 0 0
0 0 0
0 0 0
0 0 0
0 0 0
0 0 0
0 0 0
0 0 0
0 0 0
0 0 0
0 0 0
0 0 0
0 0 0
0 0 0
0 0 0
0 0 0
0 0 0
0 0 0
0 0 0
0 0 0
0 0 0
0 0 0
0 0 0
0 0 0
0 0 0
0 0 0
0 0 0
0 0 0
0 0 0
0 0 0
0 0 0
0 0 0
0 0 0
0 0 0
0 0 0
0 0 0
0 0 0
0 0 0
0 0 0
0 0 0
0 0 0
0 0 0
0 0 0
0 0 0
0 0 0
0 0 0
0 0 0
0 0 0
0 0 0
0 0 0
0 0 0
0 0 0
0 0 0
0 0 0
0 0 0
0 0 0
0 0 0
0 0 0
0 0 0
0 0 0
0 0 0
0 0 0
0 0 0
0 0 0
0 0 0
0 0 0
0 0 0
0 0 0
0 0 0
0 0 0
0 0 0
0 0 0
0 0 0
0 0 0
0 0 0
0 0 0
0 0 0
0 0 0
0 0 0
0 0 0
0 0 0
0 0 0
0 0 0
0 0 0
0 0 0
0 0 0
0 0 0
0 0 0
0 0 0
0 0 0
0 0 0
0 0 0
0 0 0
0 0 0
0 0 0
0 0 0
0 0 0
0 0 0
0 0 0
0 0 0
0 0 0
0 0 0
0 0 0
0 0 0
0 0 0
0 0 0
0 0 0
0 0 0
0 0 0
0 0 0
0 0 0
0 0 0
0 0 0
0 0 0
0 0 0
0 0 0
0 0 0
0 0 0
0 0 0
0 0 0
0 0 0
0 0 0
0 0 0
0 0 0
0 0 0
0 0 0
0 0 0
0 0 0
0 0 0
0 0 0
0 0 0
0 0 0
0 0 0
0 0 0
0 0 0
0 0 0
0 0 0
0 0 0
0 0 0
0 0 0
0 0 0
0 0 0
0 0 0
0 0 0
0 0 0
0 0 0
0 0 0
0 0 0
0 0 0
0 0 0
0 0 0
0 0 0
0 0 0
0 0 0
0 0 0
0 0 0
0 0 0
0 0 0
0 0 0
0 0 0
0 0 0
0 0 0
0 0 0
0 0 0
0 0 0
0 0 0
0 0 0
0 0 0
0 0 0
0 0 0
0 0 0
0 0 0
0 0 0
0 0 0
0 0 0
0 0 0
0 0 0
0 0 0
0 0 0
0 0 0
0 0 0
0 0 0
0 0 0
0 0 0
0 0 0
0 0 0
0 0 0
0 0 0
0 0 0
0 0 0
0 0 0
0 0 0
0 0 0
0 0 0
0 0 0
0 0 0
0 0 0
0 0 0
0 0 0
0 0 0
0 0 0
0 0 0
0 0 0
0 0 0
0 0 0
0 0 0
0 0 0
0 0 0
0 0 0
0 0 0
0 0 0
0 0 0
0 0 0
0 0 0
0 0 0
0 0 0
0 0 0
0 0 0
0 0 0
0 0 0
0 0 0
0 0 0
0 0 0
0 0 0
0 0 0
0 0 0
0 0 0
0 0 0
0 0 0
0 0 0
0 0 0
0 0 0
0 0 0
0 0 0
0 0 0
0 0 0
0 0 0
0 0 0
0 0 0
0 0 0
0 0 0
0 0 0
0 0 0
0 0 0
0 0 0
0 0 0
0 0 0
0 0 0
0 0 0
0 0 0
0 0 0
0 0 0
0 0 0
0 0 0
0 0 0
0 0 0
0 0 0
0 0 0
0 0 0
0 0 0
0 0 0
0 0 0
0 0 0
0 0 0
0 0 0
0 0 0
0 0 0
0 0 0
0 0 0
0 0 0
0 0 0
0 0 0
0 0 0
0 0 0
0 0 0
0 0 0
0 0 0
0 0 0
0 0 0
0 0 0
0 0 0
0 0 0
0 0 0
0 0 0
0 0 0
0 0 0
0 0 0
0 0 0
0 0 0
0 0 0
0 0 0
0 0 0
0 0 0
0 0 0
0 0 0
0 0 0
0 0 0
0 0 0
0 0 0
0 0 0
0 0 0
0 0 0
0 0 0
0 0 0
0 0 0
0 0 0
0 0 0
0 0 0
0 0 0
0 0 0
0 0 0
0 0 0
0 0 0
0 0 0
0 0 0
0 0 0
0 0 0
0 0 0
0 0 0
0 0 0
0 0 0
0 0 0
0 0 0
0 0 0
0 0 0
0 0 0
0 0 0
0 0 0
0 0 0
0 0 0
0 0 0
0 0 0
0 0 0
0 0 0
0 0 0
0 0 0
0 0 0
0 0 0
0 0 0
0 0 0
0 0 0
0 0 0
0 0 0
0 0 0
0 0 0
0 0 0
0 0 0
0 0 0
0 0 0
0 0 0
0 0 0
0 0 0
0 0 0
0 0 0
0 0 0
0 0 0
0 0 0
0 0 0
0 0 0
0 0 0
0 0 0
0 0 0
0 0 0
0 0 0
0 0 0
0 0 0
0 0 0
0 0 0
0 0 0
0 0 0
0 0 0
0 0 0
0 0 0
0 0 0
0 0 0
0 0 0
0 0 0
0 0 0
0 0 0
0 0 0
0 0 0
0 0 0
0 0 0
0 0 0
0 0 0
0 0 0
0 0 0
0 0 0
0 0 0
0 0 0
0 0 0
0 0 0
0 0 0
0 0 0
0 0 0
0 0 0
0 0 0
13 26 15
17 34 19
7 15 8
0 0 0
13 26 15
0 0 0
0 0 0
0 0 0
0 0 0
0 0 0
0 0 0
0 0 0
0 0 0
0 0 0
0 0 0
0 0 0
0 0 0
0 0 0
0 0 0
0 0 0
0 0 0
0 0 0
0 0 0
0 0 0
0 0 0
0 0 0
0 0 0
0 0 0
0 0 0
0 0 0
0 0 0
0 0 0
0 0 0
0 0 0
0 0 0
0 0 0
0 0 0
0 0 0
0 0 0
0 0 0
0 0 0
0 0 0
0 0 0
0 0 0
0 0 0
0 0 0
0 0 0
0 0 0
13 26 15
7 15 8
19 37 21
11 21 12
22 43 25
15 30 17
25 48 28
13 26 15
11 21 12
0 0 0
0 0 0
0 0 0
0 0 0
0 0 0
0 0 0
0 0 0
0 0 0
0 0 0
0 0 0
0 0 0
0 0 0
0 0 0
0 0 0
0 0 0
0 0 0
0 0 0
0 0 0
0 0 0
0 0 0
0 0 0
0 0 0
0 0 0
0 0 0
0 0 0
0 0 0
0 0 0
0 0 0
0 0 0
0 0 0
0 0 0
0 0 0
0 0 0
0 0 0
0 0 0
0 0 0
0 0 0
6 13 7
0 0 0
0 0 0
13 25 14
0 0 0
13 26 15
23 46 26
35 69 40
20 40 23
23 46 26
34 66 38
23 45 26
22 43 25
0 0 0
0 0 0
0 0 0
0 0 0
0 0 0
0 0 0
0 0 0
0 0 0
0 0 0
0 0 0
0 0 0
0 0 0
0 0 0
0 0 0
0 0 0
0 0 0
0 0 0
0 0 0
0 0 0
0 0 0
0 0 0
0 0 0
0 0 0
0 0 0
0 0 0
0 0 0
0 0 0
0 0 0
0 0 0
0 0 0
0 0 0
0 0 0
0 0 0
0 0 0
0 0 0
0 0 0
0 0 0
0 0 0
0 0 0
9 18 10
17 33 19
11 21 12
23 46 26
29 56 32
27 53 30
30 59 34
35 68 39
39 76 44
32 62 36
29 57 33
17 34 19
7 15 8
0 0 0
0 0 0
0 0 0
0 0 0
0 0 0
22 22 22
32 32 32
22 22 22
32 32 32
0 0 0
0 0 0
0 0 0
0 0 0
0 0 0
0 0 0
0 0 0
0 0 0
0 0 0
0 0 0
0 0 0
0 0 0
0 0 0
0 0 0
0 0 0
0 0 0
0 0 0
0 0 0
0 0 0
0 0 0
0 0 0
0 0 0
0 0 0
6 13 7
6 13 7
0 0 0
0 0 0
0 0 0
17 33 19
10 20 11
22 43 25
23 46 26
29 57 33
36 71 41
42 82 47
35 69 40
37 73 42
44 85 49
38 74 42
26 50 29
15 30 17
0 0 0
0 0 0
0 0 0
0 0 0
0 0 0
255 255 255
255 255 255
255 255 255
255 255 255
255 255 255
22 22 22
0 0 0
0 0 0
0 0 0
0 0 0
0 0 0
0 0 0
0 0 0
0 0 0
0 0 0
0 0 0
0 0 0
0 0 0
0 0 0
0 0 0
0 0 0
0 0 0
0 0 0
0 0 0
0 0 0
0 0 0
0 0 0
0 0 0
0 0 0
0 0 0
11 22 13
11 21 12
15 29 17
15 30 17
19 37 21
26 51 30
37 73 42
34 66 38
39 75 43
48 93 53
46 89 51
44 86 49
39 76 44
35 68 39
19 37 21
7 15 8
0 0 0
0 0 0
0 0 0
0 0 0
255 255 255
255 255 255
255 255 255
255 255 255
255 255 255
22 22 22
0 0 0
0 0 0
0 0 0
0 0 0
0 0 0
0 0 0
0 0 0
0 0 0
0 0 0
0 0 0
0 0 0
0 0 0
0 0 0
0 0 0
0 0 0
0 0 0
0 0 0
0 0 0
0 0 0
0 0 0
0 0 0
2 7 2
6 13 7
9 18 10
9 18 10
10 20 11
15 29 17
18 34 20
23 44 25
25 49 28
35 69 39
41 79 45
51 98 57
57 111 64
55 107 62
50 97 56
45 87 50
45 87 50
32 62 35
18 34 20
0 0 0
0 0 0
0 0 0
0 0 0
255 255 255
255 255 255
255 255 255
255 255 255
255 255 255
0 0 0
0 0 0
0 0 0
0 0 0
0 0 0
0 0 0
0 0 0
0 0 0
0 0 0
0 0 0
0 0 0
0 0 0
0 0 0
0 0 0
0 0 0
0 0 0
0 0 0
0 0 0
0 0 0
0 0 0
6 13 7
6 13 7
9 18 10
0 0 0
0 0 0
6 13 7
7 15 8
17 34 19
31 60 34
33 64 37
29 58 33
41 79 46
41 79 46
49 95 55
49 95 54
57 111 64
45 87 50
54 105 61
47 92 53
32 63 36
22 43 25
0 0 0
0 0 0
0 0 0
0 0 0
255 255 255
255 255 255
255 255 255
255 255 255
255 255 255
0 0 0
0 0 0
0 0 0
0 0 0
0 0 0
0 0 0
0 0 0
0 0 0
0 0 0
0 0 0
0 0 0
0 0 0
0 0 0
0 0 0
0 0 0
0 0 0
0 0 0
0 0 0
0 0 0
0 0 0
6 13 7
6 13 7
0 0 0
9 18 10
6 13 7
0 0 0
19 37 21
21 41 24
28 55 31
33 64 37
37 73 42
40 78 45
46 89 51
46 89 51
53 104 60
57 111 64
59 114 66
58 113 65
51 99 57
37 74 42
27 53 30
0 0 0
0 0 0
0 0 0
0 0 0
255 255 255
255 255 255
255 255 255
255 255 255
255 255 255
0 0 0
0 0 0
0 0 0
0 0 0
0 0 0
0 0 0
0 0 0
0 0 0
0 0 0
0 0 0
0 0 0
0 0 0
0 0 0
0 0 0
0 0 0
0 0 0
0 0 0
0 0 0
0 0 0
0 0 0
0 0 0
6 13 7
9 18 10
11 22 13
11 22 13
14 27 15
15 29 17
22 43 24
27 54 31
37 72 41
41 81 46
42 82 47
48 93 54
49 95 55
59 114 66
64 124 72
61 118 68
50 98 56
50 97 56
38 75 43
22 43 25
0 0 0
0 0 0
0 0 0
0 0 0
255 255 255
255 255 255
255 255 255
255 255 255
255 255 255
22 22 22
0 0 0
0 0 0
0 0 0
0 0 0
0 0 0
0 0 0
0 0 0
0 0 0
0 0 0
0 0 0
0 0 0
0 0 0
0 0 0
0 0 0
0 0 0
0 0 0
0 0 0
0 0 0
6 13 7
0 0 0
9 18 10
9 21 11
9 18 10
13 26 15
16 31 18
12 24 13
17 35 19
24 48 27
28 55 31
32 63 36
45 88 51
48 93 54
51 99 57
51 99 57
63 123 71
57 111 64
63 122 70
53 103 59
41 79 45
26 51 29
6 13 7
0 0 0
0 0 0
0 0 0
255 255 255
255 255 255
255 255 255
255 255 255
255 255 255
0 0 0
0 0 0
0 0 0
0 0 0
0 0 0
0 0 0
0 0 0
0 0 0
0 0 0
0 0 0
0 0 0
0 0 0
0 0 0
0 0 0
0 0 0
0 0 0
0 0 0
0 0 0
0 0 0
0 0 0
0 0 0
6 13 7
6 13 7
9 18 10
13 26 15
15 30 17
21 42 23
23 45 26
25 49 28
32 63 36
42 82 47
44 86 49
46 91 52
53 103 59
55 107 62
61 118 68
59 115 66
58 113 65
46 90 52
34 67 38
24 47 27
0 0 0
0 0 0
0 0 0
0 0 0
255 255 255
255 255 255
255 255 255
255 255 255
255 255 255
22 22 22
0 0 0
0 0 0
0 0 0
0 0 0
0 0 0
0 0 0
0 0 0
0 0 0
0 0 0
0 0 0
0 0 0
0 0 0
0 0 0
0 0 0
0 0 0
0 0 0
0 0 0
0 0 0
0 0 0
9 18 10
0 0 0
9 18 10
7 15 7
15 31 17
12 26 14
15 31 17
15 30 17
24 47 27
38 74 42
37 73 42
44 87 50
47 91 52
53 104 60
50 98 56
67 130 75
61 120 69
51 99 57
49 95 55
36 71 41
17 34 19
0 0 0
0 0 0
0 0 0
0 0 0
255 255 255
255 255 255
255 255 255
255 255 255
255 255 255
0 0 0
0 0 0
0 0 0
0 0 0
0 0 0
0 0 0
0 0 0
0 0 0
0 0 0
0 0 0
0 0 0
0 0 0
0 0 0
0 0 0
0 0 0
0 0 0
0 0 0
0 0 0
0 0 0
0 0 0
6 13 7
9 18 10
6 13 7
9 20 11
15 29 16
15 30 17
18 37 20
23 47 26
29 58 33
28 57 32
32 63 35
45 87 50
49 95 55
46 90 51
52 102 58
51 100 57
51 100 57
49 96 55
46 90 52
32 62 36
13 25 14
0 0 0
0 0 0
0 0 0
0 0 0
255 255 255
255 255 255
255 255 255
255 255 255
255 255 255
0 0 0
19 19 19
0 0 0
0 0 0
0 0 0
0 0 0
0 0 0
0 0 0
0 0 0
0 0 0
0 0 0
0 0 0
0 0 0
0 0 0
0 0 0
0 0 0
0 0 0
0 0 0
0 0 0
0 0 0
0 0 0
11 22 13
9 20 11
15 31 17
19 38 21
15 30 17
21 42 24
23 44 25
28 56 32
32 64 35
33 65 37
35 70 40
43 84 48
47 92 52
51 100 57
52 103 59
45 89 50
44 86 49
38 75 43
15 32 17
0 0 0
0 0 0
0 0 0
0 0 0
0 0 0
255 255 255
255 255 255
255 255 255
255 255 255
255 255 255
0 0 0
0 0 0
0 0 0
19 19 19
0 0 0
0 0 0
0 0 0
0 0 0
0 0 0
0 0 0
0 0 0
0 0 0
0 0 0
0 0 0
0 0 0
0 0 0
0 0 0
0 0 0
0 0 0
0 0 0
0 0 0
2 7 2
6 13 7
9 18 10
23 46 26
13 26 15
20 42 23
20 38 22
20 40 22
29 57 32
30 60 34
40 79 45
39 77 44
48 93 53
36 71 40
38 76 43
46 90 51
42 84 48
27 54 31
10 20 11
0 0 0
0 0 0
0 0 0
0 0 0
0 0 0
255 255 255
255 255 255
255 255 255
255 255 255
255 255 255
0 0 0
0 0 0
19 19 19
0 0 0
0 0 0
19 19 19
0 0 0
0 0 0
0 0 0
0 0 0
0 0 0
0 0 0
0 0 0
0 0 0
0 0 0
0 0 0
0 0 0
0 0 0
0 0 0
0 0 0
0 0 0
0 0 0
6 13 7
9 18 10
13 26 15
11 24 13
17 36 19
19 38 21
27 54 30
24 48 27
32 63 35
37 74 42
26 53 29
38 75 42
41 80 46
44 88 50
34 67 38
25 51 29
7 15 8
0 0 0
0 0 0
0 0 0
0 0 0
19 19 19
19 19 19
39 39 39
155 155 155
255 255 255
255 255 255
255 255 255
19 19 19
0 0 0
19 19 19
0 0 0
0 0 0
19 19 19
0 0 0
0 0 0
0 0 0
0 0 0
0 0 0
0 0 0
0 0 0
0 0 0
0 0 0
0 0 0
0 0 0
0 0 0
0 0 0
0 0 0
0 0 0
0 0 0
0 0 0
6 13 7
12 26 13
22 44 25
22 46 25
18 37 20
21 44 24
23 47 26
29 59 33
31 64 35
30 62 33
30 63 34
33 66 37
38 76 43
25 49 28
12 25 14
0 0 0
0 0 0
19 19 19
0 0 0
0 0 0
0 0 0
0 0 0
0 0 0
0 0 0
19 19 19
0 0 0
19 19 19
27 27 27
19 19 19
27 27 27
27 27 27
19 19 19
0 0 0
0 0 0
0 0 0
0 0 0
0 0 0
0 0 0
0 0 0
0 0 0
0 0 0
0 0 0
0 0 0
0 0 0
0 0 0
0 0 0
0 0 0
0 0 0
0 0 0
0 0 0
0 0 0
7 15 7
15 29 16
9 19 10
22 45 25
23 48 26
21 46 24
24 49 27
26 54 29
21 46 23
26 55 30
27 54 31
20 42 23
12 24 13
19 19 19
0 0 0
0 0 0
19 19 19
19 19 19
19 19 19
19 19 19
33 33 33
19 19 19
39 39 39
44 45 44
27 27 27
19 19 19
19 19 19
39 39 39
27 27 27
39 39 39
0 0 0
33 33 33
0 0 0
0 0 0
27 27 27
0 0 0
0 0 0
0 0 0
19 19 19
0 0 0
19 19 19
0 0 0
0 0 0
0 0 0
0 0 0
27 27 27
0 3 0
0 0 0
0 0 0
0 0 0
1 6 2
0 0 0
19 19 19
25 39 27
15 32 17
16 35 19
30 51 32
27 42 28
21 43 23
19 40 22
21 27 22
43 44 43
7 15 8
35 39 35
28 31 29
20 23 20
19 19 19
0 4 0
20 22 20
27 27 27
43 43 43
47 47 47
33 33 33
39 39 39
27 27 27
43 43 43
67 67 67
55 55 55
43 43 43
47 47 47
47 47 47
51 51 51
27 27 27
0 0 0
19 19 19
27 27 27
33 33 33
0 0 0
19 19 19
39 39 39
33 33 33
27 27 27
39 42 40
39 40 39
0 0 0
19 19 19
27 27 27
34 36 34
48 49 48
33 34 33
53 57 53
21 27 22
52 55 53
44 47 45
52 55 52
48 52 48
36 45 37
75 82 76
46 53 47
78 87 79
66 76 67
70 77 71
75 80 75
63 69 64
47 58 48
58 65 58
65 68 65
49 54 50
29 32 29
25 38 26
28 29 28
39 41 39
52 55 53
81 84 81
78 79 78
85 87 85
73 74 73
89 89 89
98 100 98
71 73 71
85 85 85
67 67 67
19 19 19
47 47 47
39 39 39
19 19 19
47 47 47
27 27 27
39 39 39
33 33 33
0 0 0
39 39 39
33 33 33
43 43 43
39 39 39
52 52 52
52 54 52
52 53 52
40 44 40
68 68 68
78 80 78
62 64 62
76 78 76
76 79 76
93 97 93
88 92 89
104 108 105
83 86 83
95 99 95
108 113 109
113 116 113
86 90 86
108 110 108
124 127 125
96 99 96
127 133 127
108 111 108
113 117 114
105 107 106
103 105 104
72 77 72
64 69 64
66 69 66
83 84 83
114 116 114
109 111 109
114 114 114
127 128 127
131 133 131
129 130 129
112 112 112
125 125 125
19 19 19
28 29 28
43 43 43
64 64 64
43 43 43
39 39 39
47 47 47
19 19 19
33 33 33
43 43 43
64 64 64
58 59 59
56 57 56
49 54 50
58 58 58
49 52 49
70 70 70
47 48 47
65 67 65
81 82 81
78 80 79
62 65 63
73 76 74
85 85 85
109 109 109
96 98 96
102 103 102
94 95 94
102 104 102
113 115 113
112 114 113
122 122 122
145 147 145
134 137 135
145 146 145
139 142 139
138 139 138
141 143 141
126 126 126
102 103 102
85 87 85
52 54 52
73 74 73
71 72 71
102 103 102
122 122 122
122 124 122
117 118 117
126 126 126
131 131 131
39 39 39
19 19 19
27 27 27
44 45 44
51 51 51
27 27 27
48 49 48
51 51 51
55 56 55
58 58 58
51 51 51
44 45 44
58 58 58
59 61 59
39 40 39
59 60 59
64 64 64
65 67 65
67 67 67
64 64 64
95 95 95
73 75 73
62 63 62
73 73 73
83 83 83
89 90 89
85 87 85
89 90 89
101 102 101
107 107 107
96 96 96
111 112 111
122 123 122
109 110 109
90 91 90
122 122 122
119 120 119
111 112 111
110 110 110
103 103 103
97 97 97
92 95 93
75 75 75
48 51 49
58 58 58
52 54 52
55 56 55
89 90 89
78 78 78
90 91 90
27 27 27
19 19 19
39 39 39
27 27 27
39 39 39
43 43 43
27 27 27
58 58 58
43 43 43
39 39 39
0 0 0
55 55 55
43 43 43
44 45 44
40 42 40
55 55 55
33 33 33
55 55 55
51 51 51
39 41 39
61 61 61
55 55 55
68 68 68
70 70 70
70 71 70
44 45 44
55 56 55
78 78 78
61 61 61
85 85 85
73 73 73
86 88 86
73 73 73
99 100 100
70 70 70
89 89 89
70 70 70
64 64 64
70 71 70
62 64 62
61 61 61
55 55 55
55 55 55
55 55 55
44 47 45
44 45 44
27 27 27
33 33 33
29 33 29
27 27 27
33 33 33
33 33 33
47 47 47
39 39 39
39 39 39
33 33 33
27 27 27
39 41 39
43 43 43
43 43 43
51 51 51
47 47 47
34 35 34
48 49 48
48 49 48
51 51 51
64 64 64
55 55 55
59 60 59
48 49 48
43 43 43
59 60 59
34 36 34
43 43 43
51 51 51
33 33 33
68 69 68
70 70 70
47 47 47
47 47 47
51 51 51
39 39 39
51 52 51
67 67 67
47 47 47
48 49 48
62 64 62
39 39 39
58 58 58
43 43 43
59 60 59
48 49 48
39 39 39
58 58 58
39 39 39
39 41 39
28 30 28
6 13 7
19 19 19
0 0 0
39 39 39
19 19 19
27 27 27
27 27 27
0 0 0
19 19 19
28 30 28
20 23 20
33 33 33
34 36 34
39 39 39
33 33 33
44 47 44
34 36 34
34 36 34
33 33 33
48 49 48
39 39 39
28 30 28
27 27 27
51 51 51
43 43 43
47 47 47
47 47 47
39 39 39
28 30 28
44 45 44
47 47 47
43 43 43
43 43 43
43 43 43
43 43 43
20 23 20
55 55 55
55 55 55
43 43 43
43 43 43
51 51 51
43 43 43
33 33 33
47 47 47
43 43 43
39 39 39
19 19 19
19 19 19
28 30 28
19 19 19
39 39 39
0 0 0
19 19 19
19 19 19
19 19 19
39 39 39
19 19 19
33 33 33
27 27 27
19 19 19
44 45 44
47 48 47
19 19 19
19 19 19
33 33 33
33 33 33
0 0 0
43 43 43
39 39 39
44 45 44
33 33 33
28 29 28
19 19 19
34 36 34
27 27 27
34 36 34
39 41 39
0 0 0
39 41 39
43 43 43
39 39 39
33 33 33
27 27 27
47 47 47
43 43 43
44 47 45
47 47 47
28 30 28
43 44 43
39 39 39
33 33 33
33 33 33
48 49 48
47 47 47
27 27 27
27 27 27
28 30 28
20 23 20
19 19 19
0 0 0
0 0 0
27 28 27
20 23 20
19 19 19
19 19 19
27 27 27
19 19 19
19 19 19
19 19 19
19 19 19
19 19 19
20 23 20
33 33 33
28 30 28
33 33 33
33 33 33
43 43 43
28 30 28
39 39 39
44 45 44
27 27 27
27 27 27
39 39 39
27 27 27
20 23 20
33 33 33
33 33 33
39 41 39
35 38 35
33 33 33
22 29 23
19 19 19
33 33 33
19 19 19
40 43 40
27 27 27
0 0 0
39 39 39
27 27 27
39 39 39
27 27 27
27 27 27
28 30 28
33 33 33
19 19 19
19 19 19
19 19 19
6 13 7
20 23 20
19 19 19
19 19 19
28 30 28
0 0 0
39 39 39
33 33 33
19 19 19
19 19 19
0 0 0
33 33 33
19 19 19
19 19 19
19 19 19
19 19 19
27 27 27
33 33 33
28 30 28
0 0 0
0 0 0
19 19 19
19 19 19
0 0 0
27 27 27
28 30 28
19 19 19
0 0 0
19 19 19
33 33 33
0 0 0
33 33 33
19 19 19
0 0 0
43 43 43
39 39 39
6 13 7
27 27 27
19 19 19
19 19 19
33 33 33
19 19 19
19 19 19
19 19 19
33 33 33
0 0 0
34 36 34
19 19 19
20 23 20
0 0 0
0 0 0
19 19 19
27 27 27
0 0 0
0 0 0
5 11 6
27 27 27
19 19 19
19 19 19
47 47 47
19 19 19
0 0 0
27 27 27
5 11 6
27 27 27
33 33 33
0 0 0
27 27 27
0 3 0
6 13 7
27 27 27
0 0 0
0 0 0
27 27 27
33 33 33
19 19 19
27 27 27
27 27 27
19 19 19
27 27 27
27 27 27
19 19 19
19 19 19
0 0 0
5 11 6
19 19 19
19 19 19
19 19 19
0 0 0
28 29 28
33 33 33
33 33 33
27 28 27
19 19 19
33 33 33
19 19 19
33 33 33
19 19 19
27 27 27
19 19 19
20 23 20
0 0 0
19 19 19
0 0 0
5 11 6
6 13 7
27 27 27
20 23 20
27 27 27
28 30 28
20 23 20
19 19 19
27 27 27
0 0 0
0 0 0
0 0 0
19 19 19
47 47 47
0 0 0
33 33 33
20 23 20
19 19 19
0 0 0
27 27 27
0 0 0
0 0 0
0 0 0
19 19 19
0 0 0
0 0 0
0 0 0
0 0 0
0 0 0
27 27 27
6 13 7
19 19 19
19 19 19
0 0 0
27 27 27
0 0 0
19 19 19
33 33 33
27 27 27
27 27 27
20 23 20
19 19 19
28 30 28
19 19 19
19 19 19
0 0 0
19 19 19
19 19 19
27 27 27
0 0 0
0 0 0
19 19 19
19 19 19
0 0 0
19 19 19
19 19 19
0 0 0
27 27 27
19 19 19
27 27 27
6 13 7
5 11 6
27 27 27
33 33 33
27 27 27
34 36 34
0 0 0
0 0 0
0 0 0
19 19 19
19 19 19
27 27 27
27 27 27
33 33 33
19 19 19
19 19 19
0 0 0
0 0 0
19 19 19
0 0 0
0 0 0
0 0 0
6 13 7
0 0 0
0 0 0
27 27 27
0 0 0
27 27 27
0 0 0
0 0 0
0 0 0
0 0 0
5 11 6
0 0 0
0 0 0
0 0 0
0 0 0
0 0 0
19 19 19
19 19 19
19 19 19
0 0 0
19 19 19
19 19 19
0 0 0
19 19 19
0 0 0
19 19 19
0 0 0
19 19 19
0 0 0
19 19 19
0 0 0
0 0 0
0 0 0
20 23 20
0 0 0
27 27 27
27 27 27
0 0 0
27 27 27
19 19 19
0 0 0
27 27 27
0 0 0
27 27 27
27 27 27
0 0 0
19 19 19
0 0 0
19 19 19
0 0 0
0 0 0
0 0 0
0 0 0
19 19 19
0 0 0
0 0 0
19 19 19
27 27 27
19 19 19
19 19 19
0 0 0
19 19 19
0 0 0
0 0 0
0 0 0
0 0 0
19 19 19
19 19 19
0 0 0
0 0 0
0 0 0
19 19 19
0 0 0
19 19 19
0 0 0
6 13 7
19 19 19
19 19 19
6 13 7
0 0 0
19 19 19
0 0 0
0 0 0
0 0 0
27 27 27
0 0 0
19 19 19
0 0 0
19 19 19
19 19 19
33 33 33
0 0 0
0 0 0
0 0 0
19 19 19
0 0 0
27 27 27
0 0 0
0 0 0
0 0 0
1 6 2
0 0 0
19 19 19
19 19 19
19 19 19
0 0 0
0 0 0
0 0 0
0 0 0
27 27 27
0 0 0
19 19 19
0 0 0
19 19 19
0 0 0
19 19 19
19 19 19
19 19 19
0 0 0
0 0 0
