P3
50 50
255
0 0 0
0 0 0
0 0 0
0 0 0
0 0 0
0 0 0
165 165 165
255 255 255
255 255 255
255 255 255
255 255 255
255 255 255
255 255 255
255 255 255
255 255 255
255 255 255
255 255 255
255 255 255
255 255 255
255 255 255
255 255 255
255 255 255
255 255 255
255 255 255
191 191 191
165 165 165
95 95 95
0 0 0
0 0 0
0 0 0
0 0 0
0 0 0
0 0 0
0 0 0
0 0 0
0 0 0
0 0 0
0 0 0
0 0 0
0 0 0
0 0 0
0 0 0
0 0 0
0 0 0
0 0 0
52 52 71
0 0 0
0 0 0
91 91 91
0 0 0
0 0 0
0 0 0
0 0 0
0 0 0
0 0 0
0 0 0
234 234 234
255 255 255
255 255 255
255 255 255
255 255 255
255 255 255
255 255 255
255 255 255
255 255 255
255 255 255
255 255 255
255 255 255
255 255 255
255 255 255
255 255 255
255 255 255
255 255 255
255 255 255
255 255 255
255 255 255
255 255 255
255 255 255
255 255 255
255 255 255
255 255 255
255 255 255
214 214 214
0 0 0
0 0 0
0 0 0
0 0 0
0 0 0
0 0 0
0 0 0
0 0 0
0 0 0
0 0 0
0 0 0
91 91 91
0 0 0
81 81 81
71 71 97
91 91 91
0 0 0
0 0 0
0 0 0
0 0 0
0 0 0
0 0 0
0 0 0
255 255 255
255 255 255
255 255 255
255 255 255
255 255 255
255 255 255
255 255 255
255 255 255
255 255 255
255 255 255
255 255 255
255 255 255
255 255 255
255 255 255
255 255 255
255 255 255
255 255 255
255 255 255
255 255 255
255 255 255
255 255 255
255 255 255
255 255 255
255 255 255
255 255 255
255 255 255
95 95 95
0 0 0
0 0 0
0 0 0
0 0 0
0 0 0
0 0 0
0 0 0
0 0 0
0 0 0
0 0 0
107 107 107
81 81 81
83 83 114
0 0 0
0 0 0
115 115 115
69 69 69
0 0 0
0 0 0
0 0 0
0 0 0
0 0 0
0 0 0
255 255 255
255 255 255
255 255 255
255 255 255
255 255 255
255 255 255
255 255 255
255 255 255
255 255 255
255 255 255
255 255 255
255 255 255
255 255 255
255 255 255
255 255 255
255 255 255
255 255 255
255 255 255
255 255 255
255 255 255
255 255 255
255 255 255
255 255 255
255 255 255
255 255 255
95 95 95
0 0 0
0 0 0
0 0 0
0 0 0
0 0 0
0 0 0
0 0 0
0 0 0
61 61 83
101 101 101
135 135 135
107 107 126
69 69 69
92 92 101
153 153 153
115 115 115
0 0 0
0 0 0
0 0 0
0 0 0
0 0 0
0 0 0
0 0 0
95 95 95
255 255 255
255 255 255
255 255 255
255 255 255
255 255 255
255 255 255
255 255 255
255 255 255
255 255 255
255 255 255
255 255 255
255 255 255
255 255 255
255 255 255
255 255 255
255 255 255
255 255 255
255 255 255
255 255 255
255 255 255
255 255 255
255 255 255
255 255 255
255 255 255
0 0 0
0 0 0
0 0 0
0 0 0
0 0 0
0 0 0
0 0 0
0 0 0
82 82 89
108 108 127
152 152 152
115 115 115
147 147 147
81 81 81
69 69 69
13 13 58
158 158 158
109 109 133
117 117 140
81 81 81
0 0 0
0 0 0
0 0 0
0 0 0
0 0 0
95 95 95
255 255 255
255 255 255
255 255 255
255 255 255
255 255 255
255 255 255
255 255 255
255 255 255
255 255 255
255 255 255
255 255 255
255 255 255
255 255 255
255 255 255
255 255 255
255 255 255
255 255 255
255 255 255
255 255 255
255 255 255
255 255 255
255 255 255
253 253 253
0 0 0
0 0 0
0 0 0
0 0 0
0 0 0
0 0 0
0 0 0
0 0 0
0 0 0
102 102 116
117 117 140
128 128 128
117 117 140
167 167 167
81 81 81
107 107 107
158 158 158
135 135 135
81 81 81
0 0 0
81 81 81
0 0 0
0 0 0
0 0 0
0 0 0
0 0 0
0 0 0
0 0 0
0 0 0
0 0 0
0 0 0
0 0 0
135 135 135
253 253 253
253 253 253
255 255 255
255 255 255
255 255 255
255 255 255
255 255 255
255 255 255
255 255 255
255 255 255
255 255 255
255 255 255
255 255 255
255 255 255
255 255 255
135 135 135
0 0 0
0 0 0
0 0 0
0 0 0
0 0 0
0 0 0
121 121 121
81 81 81
168 168 168
158 158 158
139 139 159
54 54 94
163 163 163
158 158 158
169 169 186
217 217 230
130 130 130
81 81 81
128 128 128
123 123 123
13 13 58
83 83 114
0 0 0
0 0 0
0 0 0
0 0 0
0 0 0
0 0 0
0 0 0
0 0 0
0 0 0
0 0 0
0 0 0
0 0 0
0 0 0
0 0 0
0 0 0
0 0 0
0 0 0
0 0 0
0 0 0
0 0 0
0 0 0
95 95 95
165 165 165
214 214 214
135 135 135
255 255 255
95 95 95
0 0 0
0 0 0
0 0 0
0 0 0
0 0 0
0 0 0
115 115 115
0 0 0
118 118 165
163 163 163
123 123 123
159 159 179
158 158 158
174 174 174
170 170 170
0 0 0
178 178 195
178 178 195
158 158 158
126 126 126
98 98 98
102 102 128
0 0 0
0 0 0
0 0 0
0 0 0
0 0 0
0 0 0
0 0 0
0 0 0
0 0 0
0 0 0
0 0 0
0 0 0
0 0 0
0 0 0
0 0 0
0 0 0
0 0 0
0 0 0
0 0 0
0 0 0
0 0 0
0 0 0
0 0 0
0 0 0
0 0 0
0 0 0
0 0 0
0 0 0
0 0 0
0 0 0
0 0 0
0 0 0
0 0 0
123 123 123
81 81 81
141 141 141
107 107 107
54 54 94
183 183 199
215 215 215
231 231 238
168 168 168
217 217 231
123 123 123
146 146 183
129 129 151
196 196 211
168 168 168
101 101 101
81 81 81
0 0 0
0 0 0
0 0 0
0 0 0
0 0 0
0 0 0
0 0 0
0 0 0
0 0 0
0 0 0
0 0 0
0 0 0
0 0 0
0 0 0
0 0 0
0 0 0
0 0 0
0 0 0
0 0 0
0 0 0
0 0 0
0 0 0
0 0 0
0 0 0
0 0 0
0 0 0
0 0 0
0 0 0
0 0 0
0 0 0
0 0 0
69 69 69
115 115 115
59 59 59
113 113 113
171 171 171
141 141 141
212 212 212
227 227 227
163 163 176
195 195 195
163 163 163
135 135 135
224 224 224
174 174 186
200 200 208
135 135 135
192 192 218
116 116 116
115 115 115
15 15 68
0 0 0
0 0 0
0 0 0
0 0 0
0 0 0
0 0 0
0 0 0
0 0 0
0 0 0
0 0 0
0 0 0
0 0 0
0 0 0
0 0 0
0 0 0
0 0 0
0 0 0
0 0 0
0 0 0
0 0 0
0 0 0
0 0 0
0 0 0
0 0 0
0 0 0
0 0 0
0 0 0
0 0 0
0 0 0
158 158 158
123 123 132
0 0 0
81 81 81
222 222 241
168 168 168
238 238 238
255 255 255
234 234 234
255 255 255
163 163 163
224 224 224
128 128 128
183 183 195
154 154 197
182 182 182
115 115 115
116 116 129
203 203 203
135 135 135
0 0 0
0 0 0
0 0 0
0 0 0
0 0 0
0 0 0
0 0 0
0 0 0
0 0 0
0 0 0
0 0 0
0 0 0
0 0 0
0 0 0
0 0 0
0 0 0
0 0 0
0 0 0
0 0 0
0 0 0
0 0 0
0 0 0
0 0 0
0 0 0
0 0 0
0 0 0
0 0 0
0 0 0
0 0 0
0 0 0
59 59 59
107 107 107
159 159 177
130 130 130
174 174 174
212 212 212
227 227 227
81 81 81
171 171 171
248 248 248
182 182 182
141 141 141
128 128 128
201 201 215
163 163 163
205 205 219
255 255 255
141 141 152
11 11 49
153 153 171
0 0 0
0 0 0
0 0 0
0 0 0
0 0 0
0 0 0
0 0 0
0 0 0
0 0 0
0 0 0
0 0 0
0 0 0
0 0 0
0 0 0
0 0 0
0 0 0
0 0 0
0 0 0
0 0 0
0 0 0
0 0 0
0 0 0
0 0 0
0 0 0
0 0 0
0 0 0
0 0 0
0 0 0
0 0 0
0 0 0
174 174 174
115 115 115
107 107 107
163 163 163
107 107 113
245 245 252
241 241 241
182 182 182
168 168 168
208 208 215
217 217 227
218 218 218
164 164 173
142 142 162
208 208 222
159 159 177
83 83 114
0 0 0
158 158 158
153 153 153
51 51 51
0 0 0
0 0 0
0 0 0
0 0 0
0 0 0
0 0 0
0 0 0
0 0 0
0 0 0
0 0 0
0 0 0
0 0 0
0 0 0
0 0 0
0 0 0
0 0 0
0 0 0
0 0 0
0 0 0
0 0 0
0 0 0
0 0 0
0 0 0
0 0 0
0 0 0
0 0 0
0 0 0
0 0 0
0 0 0
0 0 0
168 168 168
164 164 177
135 135 135
235 235 235
135 135 135
255 255 255
213 213 233
235 235 235
83 83 132
163 163 163
227 227 227
174 174 174
171 171 171
212 212 220
195 195 195
118 118 161
83 83 114
164 164 182
65 65 127
107 107 107
0 0 0
0 0 0
0 0 0
0 0 0
0 0 0
0 0 0
0 0 0
0 0 0
0 0 0
0 0 0
0 0 0
0 0 0
0 0 0
0 0 0
0 0 0
0 0 0
0 0 0
0 0 0
0 0 0
0 0 0
0 0 0
0 0 0
0 0 0
0 0 0
0 0 0
0 0 0
0 0 0
0 0 0
0 0 0
135 135 135
116 116 129
142 142 147
189 189 189
255 255 255
200 200 201
232 232 244
238 238 245
135 135 135
200 200 200
164 164 171
232 232 255
142 142 153
146 146 165
83 83 114
141 141 141
192 192 207
130 130 130
123 123 123
136 136 156
0 0 0
0 0 0
0 0 0
0 0 0
0 0 0
0 0 0
0 0 0
0 0 0
0 0 0
0 0 0
0 0 0
0 0 0
0 0 0
0 0 0
0 0 0
0 0 0
0 0 0
0 0 0
0 0 0
0 0 0
0 0 0
0 0 0
0 0 0
0 0 0
0 0 0
0 0 0
0 0 0
0 0 0
0 0 0
0 0 0
98 98 98
115 115 115
130 130 130
217 217 222
158 158 158
235 235 235
199 199 199
224 224 224
203 203 217
195 195 195
205 205 209
184 184 207
172 172 172
217 217 230
177 177 177
147 147 147
128 128 128
202 202 230
178 178 195
147 147 161
81 81 81
0 0 0
0 0 0
0 0 0
0 0 0
0 0 0
0 0 0
0 0 0
0 0 0
0 0 0
0 0 0
0 0 0
0 0 0
0 0 0
0 0 0
0 0 0
0 0 0
0 0 0
0 0 0
0 0 0
0 0 0
0 0 0
0 0 0
0 0 0
0 0 0
0 0 0
0 0 0
0 0 0
0 0 0
0 0 0
81 81 81
115 115 115
188 188 188
182 182 182
141 141 141
209 209 209
204 204 204
173 173 173
255 255 255
83 83 114
204 204 204
165 165 198
196 196 207
158 158 158
158 158 158
202 202 239
152 152 152
196 196 211
24 24 104
116 116 134
69 69 69
0 0 0
0 0 0
0 0 0
0 0 0
0 0 0
0 0 0
0 0 0
0 0 0
0 0 0
0 0 0
0 0 0
0 0 0
0 0 0
0 0 0
0 0 0
0 0 0
0 0 0
0 0 0
0 0 0
0 0 0
0 0 0
0 0 0
0 0 0
0 0 0
0 0 0
0 0 0
0 0 0
0 0 0
0 0 0
0 0 0
178 178 190
163 163 163
189 189 189
196 196 207
249 249 249
195 195 195
163 163 163
200 200 200
227 227 227
208 208 210
245 245 245
200 200 205
190 190 206
135 135 135
83 83 114
178 178 195
115 115 115
142 142 162
147 147 147
0 0 0
0 0 0
0 0 0
0 0 0
0 0 0
0 0 0
0 0 0
0 0 0
0 0 0
0 0 0
0 0 0
0 0 0
0 0 0
0 0 0
0 0 0
0 0 0
0 0 0
0 0 0
0 0 0
0 0 0
0 0 0
0 0 0
0 0 0
0 0 0
0 0 0
0 0 0
0 0 0
0 0 0
0 0 0
0 0 0
57 57 57
177 177 177
153 153 153
128 128 128
177 177 177
141 141 141
213 213 226
216 216 216
183 183 199
227 227 227
228 228 241
255 255 255
212 212 212
152 152 152
182 182 182
146 146 213
109 109 133
81 81 81
135 135 135
160 160 198
0 0 0
0 0 0
0 0 0
0 0 0
0 0 0
0 0 0
0 0 0
0 0 0
0 0 0
0 0 0
0 0 0
0 0 0
0 0 0
0 0 0
0 0 0
0 0 0
0 0 0
0 0 0
0 0 0
0 0 0
0 0 0
0 0 0
0 0 0
0 0 0
0 0 0
0 0 0
0 0 0
0 0 0
0 0 0
0 0 0
158 158 158
158 158 158
158 158 158
141 141 141
209 209 209
130 130 130
177 177 177
245 245 245
117 117 146
184 184 184
191 191 191
186 186 239
227 227 227
213 213 248
113 113 194
115 115 115
201 201 215
159 159 177
81 81 81
72 72 106
69 69 69
0 0 0
0 0 0
0 0 0
0 0 0
0 0 0
0 0 0
0 0 0
0 0 0
0 0 0
0 0 0
0 0 0
0 0 0
0 0 0
0 0 0
0 0 0
0 0 0
0 0 0
0 0 0
0 0 0
0 0 0
0 0 0
0 0 0
0 0 0
0 0 0
0 0 0
0 0 0
0 0 0
0 0 0
0 0 0
141 141 141
113 113 113
163 163 163
222 222 222
216 216 216
117 117 140
177 177 177
202 202 202
228 228 235
192 192 208
158 158 158
197 197 226
195 195 195
187 187 199
170 170 203
116 116 134
191 191 191
142 142 162
102 102 128
131 131 152
81 81 81
0 0 0
0 0 0
0 0 0
0 0 0
0 0 0
0 0 0
0 0 0
0 0 0
0 0 0
0 0 0
0 0 0
0 0 0
0 0 0
0 0 0
0 0 0
0 0 0
0 0 0
0 0 0
0 0 0
0 0 0
0 0 0
0 0 0
0 0 0
0 0 0
0 0 0
0 0 0
0 0 0
0 0 0
0 0 0
146 146 146
136 136 136
126 126 126
193 193 193
200 200 200
168 168 168
206 207 220
177 177 177
191 191 191
179 179 201
208 208 218
208 208 222
213 213 226
201 201 215
174 174 202
117 117 140
115 115 115
119 119 171
83 83 121
142 142 157
0 0 0
0 0 0
0 0 0
0 0 0
0 0 0
0 0 0
0 0 0
0 0 0
0 0 0
0 0 0
0 0 0
0 0 0
0 0 0
0 0 0
0 0 0
0 0 0
0 0 0
0 0 0
0 0 0
0 0 0
0 0 0
0 0 0
0 0 0
0 0 0
0 0 0
0 0 0
0 0 0
0 0 0
0 0 0
0 0 0
143 143 143
69 69 69
191 191 191
200 200 200
163 163 163
135 135 135
222 222 222
212 212 218
139 139 159
223 223 223
135 135 135
195 195 210
110 110 155
153 153 171
118 118 161
198 198 229
18 18 79
18 18 79
115 115 115
83 83 114
0 0 0
0 0 0
0 0 0
0 0 0
0 0 0
0 0 0
0 0 0
0 0 0
0 0 0
0 0 0
0 0 0
0 0 0
0 0 0
0 0 0
0 0 0
0 0 0
0 0 0
0 0 0
0 0 0
0 0 0
0 0 0
0 0 0
0 0 0
0 0 0
0 0 0
0 0 0
0 0 0
0 0 0
0 0 0
0 0 0
115 115 115
173 173 190
163 163 163
182 182 182
163 163 163
141 141 141
126 126 126
214 214 237
197 197 226
158 158 168
150 150 150
129 129 151
130 130 130
115 115 115
173 173 190
143 143 176
85 85 133
142 142 157
36 36 159
115 115 115
0 0 0
0 0 0
0 0 0
0 0 0
0 0 0
0 0 0
0 0 0
0 0 0
0 0 0
0 0 0
0 0 0
0 0 0
0 0 0
0 0 0
0 0 0
0 0 0
0 0 0
0 0 0
0 0 0
0 0 0
0 0 0
0 0 0
0 0 0
0 0 0
0 0 0
0 0 0
0 0 0
0 0 0
0 0 0
0 0 0
0 0 0
115 115 115
163 163 163
183 183 189
135 135 135
163 163 163
169 169 169
153 153 166
172 172 172
200 200 200
223 223 223
109 109 133
142 142 162
102 102 128
184 184 210
197 197 218
147 147 147
165 165 194
204 204 231
117 117 140
18 18 79
0 0 0
0 0 0
0 0 0
0 0 0
0 0 0
0 0 0
0 0 0
0 0 0
0 0 0
0 0 0
0 0 0
0 0 0
0 0 0
0 0 0
0 0 0
0 0 0
0 0 0
0 0 0
0 0 0
0 0 0
0 0 0
0 0 0
0 0 0
0 0 0
0 0 0
0 0 0
0 0 0
0 0 0
0 0 0
59 59 59
0 0 0
141 141 141
203 203 203
163 163 163
183 183 191
249 249 249
83 83 114
148 148 167
128 128 128
148 148 167
202 202 230
185 185 238
103 103 140
193 193 208
129 129 151
86 86 145
159 159 177
117 117 140
81 81 81
0 0 0
0 0 0
0 0 0
0 0 0
0 0 0
0 0 0
0 0 0
0 0 0
0 0 0
0 0 0
0 0 0
0 0 0
0 0 0
0 0 0
0 0 0
0 0 0
0 0 0
0 0 0
0 0 0
0 0 0
0 0 0
0 0 0
0 0 0
0 0 0
0 0 0
0 0 0
0 0 0
0 0 0
0 0 0
0 0 0
168 168 168
141 141 141
135 135 135
135 135 135
174 174 174
107 107 107
153 153 153
232 232 248
139 139 139
216 216 216
143 143 172
119 119 171
206 206 233
120 120 180
135 135 147
24 24 104
104 104 151
183 183 215
68 71 145
110 110 150
96 96 96
0 0 0
0 0 0
0 0 0
0 0 0
0 0 0
0 0 0
0 0 0
0 0 0
0 0 0
0 0 0
0 0 0
0 0 0
0 0 0
0 0 0
0 0 0
0 0 0
0 0 0
0 0 0
0 0 0
0 0 0
0 0 0
0 0 0
0 0 0
0 0 0
0 0 0
0 0 0
0 0 0
0 0 0
0 0 0
115 115 115
163 163 163
148 148 152
200 200 200
101 101 101
107 107 113
152 152 152
183 183 192
171 171 176
163 163 163
117 117 140
117 117 150
132 132 167
27 27 119
144 144 189
149 149 180
136 136 156
83 83 106
86 86 147
115 115 115
81 81 81
0 0 0
0 0 0
0 0 0
0 0 0
0 0 0
0 0 0
0 0 0
0 0 0
0 0 0
0 0 0
0 0 0
0 0 0
0 0 0
0 0 0
0 0 0
0 0 0
0 0 0
0 0 0
0 0 0
0 0 0
0 0 0
0 0 0
0 0 0
0 0 0
0 0 0
0 0 0
0 0 0
0 0 0
0 0 0
109 112 109
172 172 172
152 152 152
115 115 115
135 135 135
153 153 153
121 121 121
174 174 202
137 137 171
154 154 189
209 209 236
160 160 194
97 97 170
215 215 255
164 164 193
224 224 224
163 163 176
72 72 106
82 82 129
76 76 168
107 107 107
0 0 0
0 0 0
0 0 0
0 0 0
0 0 0
0 0 0
0 0 0
0 0 0
0 0 0
0 0 0
0 0 0
0 0 0
0 0 0
0 0 0
0 0 0
0 0 0
0 0 0
0 0 0
0 0 0
0 0 0
0 0 0
0 0 0
0 0 0
0 0 0
0 0 0
0 0 0
0 0 0
0 0 0
0 0 0
135 135 135
69 69 69
177 177 177
170 170 170
128 128 128
82 82 92
174 174 174
120 120 180
192 192 192
204 204 204
110 110 155
196 196 211
181 181 222
136 136 165
116 116 134
154 154 184
142 142 162
41 41 180
110 110 160
108 108 127
18 18 79
0 0 0
0 0 0
0 0 0
0 0 0
0 0 0
0 0 0
0 0 0
0 0 0
0 0 0
0 0 0
0 0 0
0 0 0
0 0 0
0 0 0
0 0 0
0 0 0
0 0 0
0 0 0
0 0 0
0 0 0
0 0 0
0 0 0
0 0 0
0 0 0
0 0 0
0 0 0
21 21 93
21 21 93
21 21 93
44 44 192
97 97 242
122 122 171
135 135 135
139 139 205
89 89 181
89 89 174
79 79 255
140 140 226
89 89 174
35 35 172
88 88 179
122 122 224
163 163 176
109 109 142
160 160 194
144 144 181
158 158 168
24 24 104
101 101 121
0 0 0
0 0 0
0 0 0
0 0 0
0 0 0
0 0 0
0 0 0
0 0 0
0 0 0
0 0 0
0 0 0
0 0 0
0 0 0
0 0 0
0 0 0
0 0 0
0 0 0
0 0 0
0 0 0
0 0 0
0 0 0
0 0 0
0 0 0
0 0 0
0 0 0
0 0 0
38 38 168
33 33 146
52 52 228
35 35 154
50 50 229
52 52 228
38 38 168
44 44 195
42 42 186
53 53 243
47 47 208
37 37 161
49 49 239
28 28 122
41 41 180
35 35 172
37 37 179
42 42 183
51 51 223
33 33 165
41 41 186
84 84 220
45 45 198
142 142 162
0 0 0
0 0 0
0 0 0
0 0 0
0 0 0
0 0 0
0 0 0
0 0 0
0 0 0
0 0 0
0 0 0
0 0 0
0 0 0
0 0 0
0 0 0
0 0 0
0 0 0
0 0 0
0 0 0
0 0 0
0 0 0
0 0 0
0 0 0
0 0 0
0 0 0
0 0 0
26 26 139
24 24 104
24 24 104
21 21 93
0 0 0
18 18 79
46 46 203
42 42 186
30 30 132
45 45 197
47 47 208
30 30 132
45 45 197
46 46 203
49 49 227
21 21 93
37 37 161
39 39 188
21 21 93
39 39 173
35 35 154
37 37 164
42 42 186
30 30 132
37 37 161
0 0 0
0 0 0
0 0 0
0 0 0
0 0 0
0 0 0
0 0 0
0 0 0
0 0 0
0 0 0
0 0 0
0 0 0
0 0 0
0 0 0
0 0 0
0 0 0
0 0 0
0 0 0
0 0 0
0 0 0
0 0 0
0 0 0
0 0 0
0 0 0
0 0 0
35 35 154
41 41 180
18 18 79
26 26 115
25 25 112
37 37 164
21 21 93
27 28 118
18 18 79
18 18 79
21 21 93
13 13 58
37 37 195
37 37 161
30 30 132
37 37 161
21 21 93
41 41 180
46 46 203
21 21 93
21 21 93
28 28 122
30 30 132
30 30 132
30 30 132
0 0 0
0 0 0
0 0 0
0 0 0
0 0 0
0 0 0
0 0 0
0 0 0
0 0 0
0 0 0
0 0 0
0 0 0
0 0 0
0 0 0
0 0 0
0 0 0
0 0 0
0 0 0
0 0 0
0 0 0
0 0 0
0 0 0
0 0 0
0 0 0
0 0 0
0 0 0
32 32 142
37 37 163
34 34 149
33 33 146
28 28 122
34 35 169
18 18 79
0 0 0
25 25 112
28 28 122
3 3 66
0 0 0
31 31 135
0 0 0
33 33 146
42 42 186
42 42 186
37 37 161
25 25 112
0 0 0
21 21 93
31 31 135
21 21 93
21 21 93
0 0 0
0 0 0
0 0 0
0 0 0
0 0 0
0 0 0
0 0 0
0 0 0
0 0 0
0 0 0
0 0 0
0 0 0
0 0 0
0 0 0
0 0 0
0 0 0
0 0 0
0 0 0
0 0 0
0 0 0
0 0 0
0 0 0
0 0 0
0 0 0
0 0 0
25 25 112
35 35 154
0 0 0
45 46 200
0 0 0
21 21 93
13 13 58
37 37 161
30 30 153
21 21 93
30 30 132
18 18 111
28 28 122
0 0 0
0 0 0
0 0 0
16 16 95
0 0 0
37 37 161
21 21 93
0 0 0
0 0 0
15 15 68
21 21 93
0 0 0
0 0 0
0 0 0
0 0 0
0 0 0
0 0 0
0 0 0
0 0 0
0 0 0
0 0 0
0 0 0
0 0 0
0 0 0
0 0 0
0 0 0
0 0 0
0 0 0
0 0 0
0 0 0
0 0 0
0 0 0
0 0 0
0 0 0
0 0 0
0 0 0
0 0 0
24 24 104
42 42 186
28 28 122
18 18 79
25 25 125
37 37 163
26 26 115
18 18 103
22 22 98
18 18 79
38 38 168
18 18 79
18 18 79
25 25 112
28 28 122
18 18 79
0 0 0
18 18 79
18 18 79
0 0 0
0 0 0
0 0 0
0 0 0
0 0 0
0 0 0
0 0 0
0 0 0
0 0 0
0 0 0
0 0 0
0 0 0
0 0 0
0 0 0
0 0 0
0 0 0
0 0 0
0 0 0
0 0 0
0 0 0
0 0 0
0 0 0
0 0 0
0 0 0
0 0 0
0 0 0
0 0 0
0 0 0
0 0 0
0 0 0
0 0 0
18 18 79
18 18 97
40 40 194
33 33 146
18 18 79
29 30 129
18 18 79
28 28 122
25 25 112
18 18 79
33 33 165
21 21 93
0 0 0
0 0 0
25 25 112
0 0 0
18 18 103
0 0 0
0 0 0
0 0 0
0 0 0
0 0 0
0 0 0
0 0 0
0 0 0
0 0 0
0 0 0
0 0 0
0 0 0
0 0 0
0 0 0
0 0 0
0 0 0
0 0 0
0 0 0
0 0 0
0 0 0
0 0 0
0 0 0
0 0 0
0 0 0
0 0 0
0 0 0
0 0 0
0 0 0
0 0 0
0 0 0
0 0 0
0 0 0
0 0 0
18 18 79
35 35 158
32 32 142
35 35 154
28 28 122
35 35 154
18 18 79
24 24 104
18 18 79
24 24 104
18 18 111
0 0 0
2 2 41
18 18 79
30 30 131
15 15 68
18 18 79
21 21 93
21 21 93
0 0 0
0 0 0
0 0 0
0 0 0
0 0 0
0 0 0
0 0 0
0 0 0
0 0 0
0 0 0
0 0 0
0 0 0
0 0 0
0 0 0
0 0 0
0 0 0
0 0 0
0 0 0
0 0 0
0 0 0
0 0 0
0 0 0
0 0 0
0 0 0
0 0 0
0 0 0
0 0 0
0 0 0
0 0 0
28 54 31
0 0 0
28 28 122
0 0 0
22 22 119
31 31 135
32 32 140
15 15 68
25 25 112
15 15 68
39 39 174
26 26 128
30 30 132
22 22 96
0 0 0
18 18 79
18 18 79
21 21 93
23 25 101
0 0 0
0 0 0
15 15 68
0 0 0
0 0 0
0 0 0
0 0 0
0 0 0
0 0 0
0 0 0
0 0 0
0 0 0
0 0 0
0 0 0
0 0 0
0 0 0
0 0 0
0 0 0
0 0 0
4 8 22
20 40 23
37 72 41
28 54 31
49 95 54
40 78 52
40 77 44
40 83 46
56 109 63
49 95 62
49 95 58
50 97 73
99 136 103
150 161 154
66 94 145
26 27 115
29 31 172
33 33 166
18 18 97
28 28 124
0 0 0
37 37 161
41 41 180
21 21 93
18 18 79
18 18 79
0 0 0
21 21 93
28 28 122
18 18 79
0 0 0
21 21 93
0 0 0
0 0 0
0 0 0
0 0 0
0 0 0
0 0 0
0 0 0
0 0 0
81 81 81
81 81 81
141 141 141
0 0 0
17 17 76
141 141 141
130 130 130
115 115 115
75 145 86
78 152 88
52 102 58
79 154 92
51 99 57
59 118 67
72 143 81
42 82 47
58 115 65
75 145 83
40 83 46
40 78 48
49 95 54
40 83 46
49 95 54
28 55 38
49 95 54
0 0 0
33 33 146
25 25 112
28 30 126
28 28 122
37 37 164
24 24 104
43 43 202
0 0 0
0 0 0
37 37 161
24 24 104
0 0 0
21 21 93
3 3 66
0 0 0
0 0 0
0 0 0
30 30 132
0 0 0
0 0 0
0 0 0
0 0 0
0 0 0
191 191 191
163 163 163
204 204 204
148 148 158
115 115 115
163 163 163
158 158 168
107 107 115
111 120 112
46 90 52
40 77 44
49 95 54
0 0 0
28 54 31
46 90 52
30 64 45
28 55 33
37 72 41
0 0 0
24 46 27
40 77 44
28 54 31
28 55 41
32 65 44
0 0 0
28 54 31
36 36 157
31 34 137
39 39 182
29 29 126
29 29 148
25 25 112
21 21 121
0 0 0
25 25 110
18 18 111
0 0 0
26 26 115
0 0 0
24 24 104
3 3 66
16 16 103
25 25 112
21 21 93
0 0 0
0 0 0
0 0 0
0 0 0
0 0 0
0 0 0
163 163 163
200 200 200
147 147 147
191 191 191
123 123 123
227 227 227
200 200 200
168 168 168
81 81 81
0 0 0
0 0 0
0 0 0
0 0 0
0 0 0
0 0 0
0 0 0
0 0 0
0 0 0
0 0 0
0 0 0
0 0 0
0 0 0
0 0 0
0 0 0
0 0 0
39 39 173
41 41 201
24 24 104
35 35 154
32 35 143
27 27 123
24 24 108
25 25 112
28 28 122
22 22 98
26 26 115
25 25 112
28 28 122
0 0 0
25 25 112
0 0 0
21 21 93
30 32 135
0 0 0
0 0 0
0 0 0
0 0 0
0 0 0
0 0 0
0 0 0
202 202 208
81 81 81
117 117 117
70 70 81
177 177 195
178 178 187
177 177 177
158 158 158
222 222 222
107 107 107
154 154 159
152 152 152
209 209 209
194 194 194
177 177 177
81 81 81
158 158 168
163 163 163
158 158 158
115 115 115
211 211 218
164 164 173
136 136 157
59 59 59
135 135 135
88 89 172
45 45 197
30 30 153
35 37 157
19 21 107
18 18 103
35 35 154
18 18 79
18 18 79
18 18 79
24 24 104
18 18 79
19 22 85
18 18 79
28 28 122
0 0 0
0 0 55
26 26 115
2 2 41
0 0 0
0 0 0
0 0 0
0 0 0
0 0 0
0 0 0
157 157 170
149 149 149
229 229 238
182 182 182
177 177 177
135 135 135
119 119 119
191 191 191
172 172 172
135 135 135
81 81 81
142 142 150
115 115 115
152 152 152
141 141 141
163 163 163
238 238 238
173 173 177
198 198 220
116 116 129
131 131 152
174 174 194
119 119 119
216 216 218
142 142 147
144 144 181
41 42 180
31 34 139
30 30 131
28 30 126
33 33 146
33 33 146
28 28 122
18 18 79
39 39 182
26 26 126
26 26 115
0 0 0
0 0 0
0 0 0
18 18 79
15 15 68
24 24 104
0 0 0
0 0 0
0 0 0
0 0 0
0 0 0
0 0 0
0 0 0
158 158 158
115 115 115
179 179 179
158 158 158
163 163 163
187 187 187
159 159 165
163 163 163
235 235 235
191 191 191
158 158 158
227 227 227
212 212 212
107 107 107
182 182 182
164 164 177
174 174 187
137 137 137
142 142 162
153 153 153
158 158 172
163 163 163
81 81 81
158 158 158
201 201 216
122 122 212
38 39 181
0 0 0
42 44 187
3 3 66
4 4 87
0 0 0
39 39 173
21 21 93
21 21 132
24 24 130
25 25 112
0 0 0
13 13 58
0 0 0
0 0 0
0 0 0
18 18 79
24 24 104
0 0 0
0 0 0
0 0 0
0 0 0
0 0 0
0 0 0
200 200 200
163 163 163
141 141 141
174 174 174
172 173 174
212 214 212
182 182 182
182 182 182
101 101 101
123 123 123
159 164 160
223 223 228
171 171 171
184 188 184
182 182 182
142 142 162
156 161 170
117 117 148
81 82 84
130 130 130
202 205 220
144 148 158
120 133 121
0 0 0
165 169 178
121 136 139
102 102 122
42 42 184
46 46 203
18 18 79
18 18 79
11 11 49
7 15 38
24 24 104
0 0 0
12 15 56
0 0 0
0 0 0
0 0 0
0 0 0
5 10 26
21 21 93
0 0 0
35 35 154
0 0 0
0 0 0
0 0 0
0 0 0
0 0 0
0 0 0
82 82 95
195 195 195
163 163 163
137 141 137
192 196 193
154 154 173
146 156 155
174 179 174
204 204 204
143 143 172
195 195 206
141 141 141
115 115 115
216 216 216
182 182 182
115 115 115
190 190 202
144 150 159
153 153 153
184 186 207
166 170 179
115 115 115
164 164 177
165 165 202
115 116 118
143 149 144
164 164 177
83 83 108
35 37 157
39 39 173
22 22 113
28 28 122
0 0 0
0 0 0
0 0 0
0 0 0
0 0 0
21 23 96
21 21 93
18 18 79
0 0 0
26 27 115
21 21 93
3 3 66
0 0 0
0 0 0
0 0 0
0 0 0
0 0 0
0 0 0
152 158 153
61 61 83
136 136 151
223 227 224
142 142 157
141 141 141
133 139 149
158 158 158
195 195 195
96 96 99
111 118 131
92 92 92
164 164 173
158 158 158
158 158 158
175 175 191
228 228 229
184 184 206
152 162 158
178 178 190
232 236 233
195 195 195
183 183 183
143 143 171
0 0 0
158 158 172
118 118 169
119 123 157
22 24 99
0 0 0
0 0 0
5 10 26
42 42 186
21 21 93
15 15 68
0 0 0
18 18 79
21 21 93
1 5 7
15 15 68
0 0 0
18 18 79
0 0 0
15 15 68
0 0 0
0 0 0
0 0 0
0 0 0
0 0 0
0 0 0
