P3
50 50
255
0 0 0
0 0 0
0 0 0
0 0 0
0 0 0
0 0 0
0 0 0
0 0 0
0 0 0
0 0 0
0 0 0
0 0 0
0 0 0
0 0 0
0 0 0
0 0 0
0 0 0
0 0 0
0 0 0
0 0 0
0 0 0
0 0 0
0 0 0
0 0 0
0 0 0
0 0 0
0 0 0
0 0 0
0 0 0
0 0 0
0 0 0
0 0 0
0 0 0
0 0 0
0 0 0
0 0 0
0 0 0
0 0 0
0 0 0
0 0 0
0 0 0
0 0 0
0 0 0
0 0 0
0 0 0
0 0 0
0 0 0
0 0 0
0 0 0
0 0 0
0 0 0
0 0 0
72 72 72
52 52 52
72 72 72
0 0 0
0 0 0
72 72 72
61 61 61
0 0 0
0 0 0
61 61 61
89 89 89
0 0 0
61 61 61
72 72 72
61 61 61
0 0 0
0 0 0
0 0 0
0 0 0
125 125 125
72 72 72
0 0 0
72 72 72
52 52 52
72 72 72
61 61 61
52 52 52
89 89 89
61 61 61
102 102 102
0 0 0
0 0 0
61 61 61
108 108 108
0 0 0
72 72 72
72 72 72
52 52 52
0 0 0
61 61 61
0 0 0
0 0 0
74 74 74
0 0 0
72 72 72
0 0 0
0 0 0
0 0 0
0 0 0
0 0 0
0 0 0
0 0 0
72 72 72
95 95 95
72 72 72
95 95 95
95 95 95
87 73 73
52 52 52
0 0 0
52 52 52
95 95 95
72 72 72
61 61 61
0 0 0
72 72 72
72 72 72
0 0 0
72 72 72
0 0 0
72 72 72
0 0 0
89 89 89
102 102 102
130 130 130
0 0 0
115 115 115
89 89 89
0 0 0
0 0 0
61 61 61
145 145 145
95 95 95
52 52 52
0 0 0
107 107 107
49 13 13
102 102 102
81 81 81
52 52 52
0 0 0
89 89 89
0 0 0
61 61 61
61 61 61
0 0 0
0 0 0
0 0 0
0 0 0
72 72 72
72 72 72
72 72 72
72 72 72
128 110 110
89 89 89
61 61 61
72 72 72
52 52 52
95 95 95
61 61 61
102 102 102
72 72 72
61 61 61
95 95 95
0 0 0
0 0 0
0 0 0
125 125 125
0 0 0
72 72 72
0 0 0
0 0 0
104 104 104
104 104 104
0 0 0
132 115 115
95 95 95
0 0 0
52 52 52
0 0 0
104 104 104
0 0 0
61 61 61
113 113 113
95 95 95
72 72 72
0 0 0
72 72 72
72 72 72
115 115 115
0 0 0
102 102 102
95 95 95
52 52 52
61 61 61
0 0 0
0 0 0
0 0 0
0 0 0
0 0 0
84 84 84
61 61 61
61 61 61
61 61 61
102 102 102
52 52 52
89 89 89
107 96 96
0 0 0
151 140 140
0 0 0
0 0 0
0 0 0
0 0 0
0 0 0
72 72 72
169 169 169
0 0 0
0 0 0
61 61 61
119 119 119
0 0 0
72 72 72
0 0 0
52 52 52
72 72 72
0 0 0
102 102 102
0 0 0
119 119 119
0 0 0
72 72 72
129 129 129
89 89 89
0 0 0
52 52 52
102 102 102
61 61 61
108 108 108
52 52 52
0 0 0
0 0 0
115 115 115
127 127 127
72 72 72
72 72 72
0 0 0
0 0 0
0 0 0
95 95 95
84 84 84
68 18 18
0 0 0
61 61 61
72 72 72
0 0 0
0 0 0
144 144 144
0 0 0
0 0 0
0 0 0
61 61 61
52 52 52
52 52 52
123 104 104
72 72 72
0 0 0
125 125 125
117 97 97
104 104 104
0 0 0
125 125 125
95 95 95
72 72 72
72 72 72
89 89 89
61 61 61
115 115 115
72 72 72
72 72 72
96 96 96
92 64 64
72 72 72
72 72 72
0 0 0
72 72 72
61 61 61
87 73 73
72 72 72
0 0 0
0 0 0
0 0 0
89 89 89
127 127 127
111 111 111
0 0 0
0 0 0
0 0 0
72 72 72
84 84 84
0 0 0
72 72 72
61 61 61
0 0 0
72 72 72
89 89 89
61 61 61
58 16 16
61 61 61
89 89 89
91 91 91
72 72 72
104 104 104
0 0 0
108 108 108
95 95 95
72 72 72
155 155 155
255 255 255
255 255 255
255 255 255
255 255 255
255 255 255
255 255 255
255 255 255
255 255 255
255 255 255
107 83 83
52 52 52
122 103 103
115 115 115
95 95 95
0 0 0
52 52 52
81 81 81
0 0 0
52 52 52
108 108 108
61 61 61
72 72 72
68 18 18
146 146 146
0 0 0
78 55 55
52 52 52
61 61 61
0 0 0
0 0 0
0 0 0
113 113 113
104 104 104
0 0 0
84 84 84
81 81 81
72 72 72
87 87 87
61 61 61
72 72 72
81 81 81
119 119 119
115 115 115
102 102 102
95 95 95
102 102 102
0 0 0
0 0 0
136 136 136
102 102 102
255 255 255
255 255 255
255 255 255
255 255 255
255 255 255
255 255 255
255 255 255
255 255 255
255 255 255
95 95 95
89 89 89
0 0 0
61 61 61
52 52 52
72 72 72
72 72 72
0 0 0
99 74 74
52 52 52
49 13 13
125 125 125
89 89 89
177 177 177
0 0 0
72 72 72
111 111 111
99 99 99
84 84 84
0 0 0
0 0 0
0 0 0
0 0 0
52 52 52
84 84 84
127 127 127
52 52 52
137 137 137
0 0 0
87 87 87
108 108 108
102 102 102
144 144 144
72 72 72
0 0 0
72 72 72
52 52 52
0 0 0
144 144 144
119 119 119
72 72 72
253 253 253
255 255 255
255 255 255
255 255 255
255 255 255
255 255 255
255 255 255
255 255 255
153 153 153
125 125 125
0 0 0
0 0 0
104 104 104
72 72 72
61 61 61
0 0 0
52 52 52
72 72 72
126 126 126
102 102 102
76 21 21
0 0 0
72 72 72
0 0 0
0 0 0
0 0 0
0 0 0
0 0 0
0 0 0
0 0 0
0 0 0
61 61 61
0 0 0
52 52 52
134 134 134
52 52 52
111 111 111
111 111 111
52 52 52
0 0 0
96 96 96
126 126 126
115 115 115
113 113 113
108 108 108
139 139 139
72 72 72
87 87 87
108 108 108
102 102 102
0 0 0
72 72 72
108 108 108
92 74 74
0 0 0
52 52 52
113 113 113
61 61 61
151 127 127
113 113 113
61 61 61
0 0 0
49 13 13
119 119 119
115 115 115
145 145 145
61 61 61
139 139 139
0 0 0
162 162 162
52 52 52
61 61 61
95 82 82
134 134 134
81 81 81
52 52 52
74 74 74
84 84 84
0 0 0
0 0 0
0 0 0
89 89 89
0 0 0
104 104 104
84 84 84
0 0 0
0 0 0
99 99 99
95 95 95
115 115 115
0 0 0
0 0 0
89 89 89
81 81 81
0 0 0
0 0 0
115 115 115
102 102 102
115 115 115
0 0 0
87 73 73
0 0 0
72 72 72
0 0 0
0 0 0
72 72 72
61 61 61
0 0 0
95 95 95
58 16 16
113 113 113
72 72 72
72 72 72
0 0 0
0 0 0
72 72 72
95 95 95
108 108 108
81 81 81
99 74 74
104 104 104
104 104 104
111 111 111
115 101 101
74 74 74
119 119 119
0 0 0
72 72 72
0 0 0
0 0 0
0 0 0
0 0 0
120 106 106
104 104 104
99 99 99
127 127 127
209 209 209
113 113 113
119 119 119
89 89 89
72 72 72
52 52 52
104 104 104
74 74 74
0 0 0
61 61 61
107 107 107
0 0 0
0 0 0
84 84 84
0 0 0
0 0 0
99 99 99
61 61 61
49 13 13
49 13 13
72 72 72
61 61 61
72 72 72
87 87 87
0 0 0
113 113 113
0 0 0
0 0 0
52 52 52
117 117 117
61 61 61
72 72 72
111 111 111
74 74 74
84 84 84
161 161 161
104 104 104
119 119 119
134 134 134
0 0 0
84 84 84
123 123 123
72 72 72
0 0 0
0 0 0
0 0 0
95 95 95
52 52 52
104 104 104
155 155 155
0 0 0
119 119 119
99 99 99
135 135 135
74 74 74
72 72 72
149 149 149
74 74 74
142 121 121
119 119 119
52 52 52
0 0 0
61 61 61
121 121 121
61 61 61
84 84 84
139 139 139
0 0 0
148 148 148
144 144 144
72 72 72
81 81 81
0 0 0
72 72 72
84 84 84
72 72 72
117 117 117
72 72 72
107 107 107
61 61 61
130 130 130
61 61 61
52 52 52
176 167 167
104 104 104
234 234 234
99 99 99
102 102 102
111 111 111
108 108 108
61 61 61
0 0 0
0 0 0
0 0 0
0 0 0
52 52 52
102 86 86
132 132 132
121 121 121
104 104 104
136 136 136
151 132 132
84 84 84
153 153 153
81 81 81
0 0 0
81 81 81
0 0 0
61 61 61
72 72 72
99 99 99
84 84 84
99 99 99
61 61 61
72 72 72
142 142 142
81 81 81
95 95 95
84 84 84
72 72 72
136 136 136
84 84 84
149 149 149
120 106 106
84 84 84
0 0 0
130 130 130
132 132 132
144 144 144
84 84 84
126 126 126
81 81 81
95 95 95
149 149 149
134 134 134
146 146 146
102 86 86
174 174 174
169 169 169
58 16 16
72 72 72
119 119 119
0 0 0
0 0 0
0 0 0
0 0 0
111 111 111
139 139 139
149 149 149
159 159 159
119 119 119
84 84 84
123 123 123
137 137 137
111 111 111
0 0 0
52 52 52
111 111 111
99 99 99
72 72 72
61 61 61
52 52 52
0 0 0
104 104 104
121 121 121
0 0 0
87 87 87
0 0 0
139 139 139
102 102 102
119 119 119
119 119 119
147 147 147
184 172 172
61 61 61
95 95 95
112 112 112
119 119 119
130 130 130
81 81 81
52 52 52
0 0 0
127 127 127
169 169 169
119 119 119
102 102 102
158 158 158
174 174 174
128 128 128
149 149 149
84 84 84
104 104 104
0 0 0
0 0 0
0 0 0
111 111 111
99 99 99
117 117 117
146 146 146
169 169 169
121 121 121
146 146 146
72 72 72
137 137 137
99 99 99
61 61 61
72 72 72
0 0 0
111 100 100
147 147 147
146 146 146
174 174 174
153 153 153
0 0 0
119 119 119
157 157 157
0 0 0
136 136 136
61 61 61
204 204 204
108 108 108
201 201 201
72 72 72
74 74 74
68 18 18
123 123 123
127 127 127
81 81 81
72 72 72
84 84 84
52 52 52
89 89 89
61 61 61
81 81 81
52 52 52
202 202 202
72 72 72
119 119 119
84 84 84
157 147 147
99 99 99
111 111 111
0 0 0
0 0 0
0 0 0
98 85 85
89 89 89
61 61 61
130 130 130
127 127 127
84 84 84
99 99 99
137 137 137
134 134 134
0 0 0
166 166 166
52 52 52
61 61 61
0 0 0
0 0 0
95 95 95
0 0 0
117 117 117
95 95 95
127 127 127
95 95 95
130 130 130
104 104 104
81 81 81
140 124 124
0 0 0
72 72 72
81 81 81
163 163 163
134 134 134
99 99 99
0 0 0
0 0 0
134 134 134
130 130 130
132 132 132
126 126 126
52 52 52
121 121 121
84 84 84
112 112 112
197 197 197
139 139 139
0 0 0
84 84 84
84 84 84
61 61 61
0 0 0
0 0 0
0 0 0
61 61 61
139 139 139
84 84 84
119 119 119
155 155 155
181 175 175
104 104 104
148 148 148
125 125 125
61 61 61
139 139 139
52 52 52
61 61 61
134 134 134
102 86 86
100 88 88
127 127 127
84 84 84
119 119 119
155 141 141
95 95 95
117 117 117
139 139 139
0 0 0
187 187 187
163 163 163
189 189 189
120 106 106
123 123 123
104 104 104
87 87 87
72 72 72
89 89 89
104 104 104
160 160 160
0 0 0
0 0 0
99 74 74
119 119 119
130 130 130
121 121 121
142 142 142
0 0 0
84 84 84
130 130 130
49 13 13
169 160 160
0 0 0
0 0 0
0 0 0
84 84 84
52 52 52
72 72 72
0 0 0
196 196 196
104 104 104
214 214 214
104 104 104
81 81 81
95 95 95
150 142 142
72 72 72
99 99 99
61 61 61
52 52 52
163 163 163
169 169 169
197 197 197
185 185 185
139 139 139
99 99 99
72 72 72
146 146 146
84 84 84
119 119 119
89 89 89
139 139 139
137 121 121
0 0 0
117 117 117
179 172 172
130 130 130
117 117 117
72 72 72
0 0 0
149 149 149
0 0 0
52 52 52
58 16 16
146 146 146
171 171 171
123 123 123
104 104 104
137 137 137
119 119 119
115 115 115
72 72 72
0 0 0
0 0 0
0 0 0
61 61 61
72 72 72
123 123 123
0 0 0
84 84 84
169 169 169
111 111 111
140 128 128
61 61 61
95 95 95
155 155 155
134 134 134
130 130 130
148 148 148
128 128 128
52 52 52
132 132 132
159 159 159
61 61 61
155 155 155
84 84 84
111 111 111
174 174 174
0 0 0
151 140 140
89 89 89
99 99 99
119 119 119
176 176 176
155 141 141
116 90 90
119 119 119
95 95 95
135 135 135
111 111 111
84 84 84
130 130 130
72 72 72
61 61 61
146 146 146
0 0 0
169 169 169
104 104 104
129 120 120
84 84 84
0 0 0
72 72 72
0 0 0
0 0 0
0 0 0
113 113 113
0 0 0
52 52 52
149 149 149
169 169 169
157 157 157
185 185 185
149 149 149
95 95 95
72 72 72
84 84 84
146 146 146
104 104 104
89 89 89
127 127 127
134 134 134
0 0 0
134 134 134
151 136 136
132 132 132
139 139 139
134 134 134
61 61 61
146 146 146
84 84 84
84 84 84
169 169 169
169 169 169
84 84 84
72 72 72
104 104 104
117 117 117
61 61 61
0 0 0
99 99 99
89 89 89
52 52 52
52 52 52
119 119 119
179 179 179
104 104 104
104 104 104
144 144 144
95 95 95
61 61 61
111 111 111
84 84 84
0 0 0
0 0 0
0 0 0
144 144 144
84 84 84
0 0 0
178 178 178
108 86 86
52 52 52
119 119 119
157 157 157
134 134 134
104 104 104
84 84 84
0 0 0
162 162 162
81 81 81
119 119 119
139 139 139
89 89 89
130 130 130
72 72 72
72 72 72
153 153 153
174 165 165
104 104 104
146 146 146
174 174 174
119 119 119
74 74 74
166 166 166
173 173 173
148 148 148
137 137 137
84 84 84
125 125 125
123 123 123
0 0 0
79 63 63
84 84 84
95 95 95
52 52 52
184 184 184
153 153 153
167 167 167
139 139 139
121 121 121
148 148 148
191 191 191
139 139 139
0 0 0
0 0 0
0 0 0
89 89 89
102 102 102
111 111 111
68 18 18
122 112 112
119 119 119
171 164 164
123 123 123
157 157 157
91 91 91
61 61 61
0 0 0
61 61 61
87 73 73
211 211 211
134 134 134
104 104 104
166 142 142
121 121 121
113 98 98
119 119 119
174 174 174
202 202 202
134 134 134
0 0 0
177 177 177
52 52 52
84 84 84
157 157 157
119 119 119
119 119 119
111 111 111
0 0 0
134 134 134
89 89 89
61 61 61
72 72 72
157 157 157
0 0 0
99 99 99
61 61 61
134 134 134
127 127 127
0 0 0
0 0 0
84 84 84
99 99 99
0 0 0
0 0 0
0 0 0
0 0 0
134 134 134
72 72 72
0 0 0
134 134 134
127 127 127
61 61 61
84 84 84
84 84 84
111 111 111
117 117 117
61 61 61
159 159 159
155 155 155
72 72 72
99 99 99
104 104 104
141 141 141
121 121 121
84 84 84
169 169 169
167 167 167
104 104 104
139 139 139
184 184 184
146 146 146
159 159 159
191 191 191
233 233 233
186 186 186
104 104 104
132 132 132
180 180 180
104 104 104
81 81 81
72 72 72
111 111 111
96 96 96
72 72 72
122 112 112
158 158 158
123 123 123
72 72 72
146 146 146
199 191 191
104 104 104
141 141 141
0 0 0
0 0 0
0 0 0
0 0 0
132 132 132
146 146 146
0 0 0
96 96 96
151 151 151
61 61 61
180 180 180
72 72 72
81 81 81
99 99 99
127 127 127
111 111 111
81 81 81
163 163 163
111 111 111
99 99 99
139 139 139
58 16 16
115 115 115
72 72 72
190 190 190
146 146 146
153 153 153
130 130 130
171 171 171
95 95 95
117 117 117
128 119 119
84 84 84
123 123 123
161 161 161
119 119 119
72 72 72
89 89 89
81 81 81
0 0 0
112 112 112
128 128 128
107 107 107
0 0 0
84 84 84
104 104 104
61 61 61
84 84 84
123 123 123
0 0 0
0 0 0
0 0 0
0 0 0
52 52 52
84 84 84
68 18 18
134 134 134
147 147 147
173 164 164
167 167 167
132 132 132
95 95 95
173 173 173
84 84 84
84 84 84
112 112 112
104 104 104
52 52 52
149 149 149
111 111 111
111 111 111
163 153 153
0 0 0
133 120 120
72 72 72
99 99 99
125 112 112
177 177 177
119 119 119
134 134 134
127 127 127
102 86 86
134 134 134
144 144 144
137 137 137
161 161 161
99 99 99
52 52 52
84 84 84
123 123 123
144 144 144
163 163 163
0 0 0
104 104 104
115 115 115
104 104 104
104 104 104
0 0 0
84 84 84
0 0 0
0 0 0
0 0 0
0 0 0
72 72 72
0 0 0
72 72 72
84 84 84
146 146 146
133 120 120
186 178 178
152 133 133
134 134 134
81 81 81
61 61 61
111 111 111
111 111 111
0 0 0
119 105 105
87 73 73
163 163 163
119 119 119
148 140 140
171 76 76
152 42 42
105 29 29
126 88 88
131 107 107
139 139 139
148 148 148
0 0 0
84 84 84
137 137 137
121 121 121
119 119 119
159 159 159
61 61 61
99 99 99
0 0 0
113 113 113
84 84 84
52 52 52
123 123 123
132 132 132
197 197 197
130 130 130
52 52 52
0 0 0
136 136 136
130 130 130
84 84 84
0 0 0
0 0 0
0 0 0
99 99 99
117 117 117
123 123 123
132 132 132
119 119 119
119 119 119
119 119 119
58 16 16
99 99 99
84 84 84
99 99 99
134 134 134
104 104 104
174 174 174
134 134 134
134 134 134
102 102 102
96 96 96
113 31 31
132 36 36
155 43 43
243 67 67
58 16 16
177 49 49
84 84 84
89 75 75
72 72 72
165 165 165
119 119 119
134 134 134
52 52 52
119 119 119
0 0 0
84 84 84
52 52 52
72 72 72
99 99 99
116 105 105
61 61 61
104 104 104
165 165 165
111 111 111
111 111 111
0 0 0
142 142 142
61 61 61
119 119 119
0 0 0
0 0 0
0 0 0
0 0 0
61 61 61
139 139 139
81 81 81
0 0 0
123 123 123
173 173 173
100 82 82
119 119 119
102 102 102
104 104 104
84 84 84
72 72 72
119 119 119
84 84 84
0 0 0
119 119 119
132 132 132
142 108 108
84 72 72
58 16 16
0 0 0
149 149 149
111 111 111
114 84 84
163 163 163
166 166 166
61 61 61
95 95 95
95 95 95
161 161 161
95 95 95
84 84 84
165 165 165
104 104 104
141 141 141
132 132 132
119 119 119
99 99 99
119 119 119
126 126 126
84 84 84
168 161 161
84 84 84
119 119 119
104 104 104
61 61 61
0 0 0
0 0 0
0 0 0
72 72 72
119 119 119
95 95 95
52 52 52
187 187 187
119 119 119
213 213 213
141 133 133
125 112 112
145 133 133
95 95 95
117 117 117
72 72 72
127 127 127
95 95 95
115 115 115
79 63 63
131 118 118
0 0 0
68 18 18
58 16 16
68 18 18
146 135 135
72 72 72
125 125 125
159 159 159
119 119 119
52 52 52
52 52 52
139 139 139
111 111 111
84 84 84
117 117 117
161 161 161
84 84 84
0 0 0
104 104 104
61 61 61
119 119 119
179 179 179
111 111 111
157 150 150
104 104 104
61 61 61
89 89 89
0 0 0
117 117 117
0 0 0
0 0 0
0 0 0
0 0 0
132 132 132
154 154 154
127 127 127
74 74 74
111 111 111
111 100 100
84 84 84
119 119 119
61 61 61
111 111 111
102 102 102
134 134 134
99 99 99
52 52 52
0 0 0
119 119 119
0 0 0
0 0 0
0 0 0
89 24 24
0 0 0
0 0 0
95 95 95
89 89 89
102 102 102
115 115 115
84 84 84
139 139 139
81 81 81
119 119 119
146 146 146
108 108 108
95 95 95
61 61 61
52 52 52
0 0 0
95 95 95
61 61 61
96 96 96
84 84 84
149 149 149
49 13 13
61 61 61
153 153 153
119 119 119
84 84 84
0 0 0
0 0 0
0 0 0
102 102 102
102 102 102
0 0 0
72 72 72
104 104 104
181 181 181
117 103 103
134 134 134
84 84 84
84 84 84
172 172 172
0 0 0
119 119 119
113 113 113
99 99 99
0 0 0
98 85 85
68 18 18
68 18 18
107 27 27
0 0 0
0 0 0
0 0 0
130 113 113
72 72 72
154 154 154
159 159 159
102 102 102
84 84 84
99 99 99
111 111 111
113 113 113
99 99 99
61 61 61
162 162 162
87 87 87
89 89 89
87 87 87
146 146 146
61 61 61
84 84 84
127 127 127
72 72 72
134 134 134
144 144 144
111 111 111
61 61 61
0 0 0
0 0 0
0 0 0
84 84 84
104 104 104
104 104 104
84 84 84
89 89 89
121 121 121
0 0 0
84 84 84
95 95 95
95 95 95
79 63 63
111 111 111
95 95 95
134 134 134
117 117 117
84 84 84
52 52 52
0 0 0
89 24 24
68 18 18
113 103 103
0 0 0
99 74 74
52 52 52
86 56 56
127 127 127
72 72 72
123 123 123
163 163 163
123 123 123
72 72 72
139 139 139
87 73 73
119 119 119
187 187 187
196 196 196
0 0 0
139 139 139
108 108 108
131 123 123
72 72 72
117 117 117
119 119 119
95 95 95
132 132 132
89 89 89
61 61 61
0 0 0
0 0 0
0 0 0
61 61 61
72 72 72
169 169 169
130 130 130
0 0 0
99 99 99
61 61 61
102 86 86
111 111 111
81 81 81
84 84 84
121 121 121
116 116 116
117 117 117
104 104 104
125 125 125
79 22 22
79 22 22
79 22 22
132 36 36
84 84 84
89 89 89
52 52 52
52 52 52
104 104 104
72 72 72
84 84 84
127 127 127
84 84 84
111 111 111
61 61 61
102 102 102
52 52 52
108 108 108
181 181 181
72 72 72
123 123 123
153 153 153
95 95 95
49 13 13
84 84 84
52 52 52
0 0 0
0 0 0
160 160 160
84 84 84
61 61 61
0 0 0
0 0 0
0 0 0
115 115 115
102 102 102
111 111 111
149 149 149
52 52 52
134 134 134
108 108 108
99 99 99
104 104 104
49 13 13
95 95 95
102 102 102
0 0 0
0 0 0
119 119 119
111 111 111
0 0 0
111 111 111
107 75 75
116 28 28
147 40 40
113 31 31
126 126 126
157 157 157
104 104 104
149 149 149
123 123 123
0 0 0
127 127 127
72 72 72
139 139 139
61 61 61
99 99 99
89 89 89
89 89 89
111 111 111
127 127 127
134 134 134
102 102 102
139 139 139
148 148 148
87 87 87
52 52 52
111 111 111
173 173 173
111 111 111
0 0 0
0 0 0
0 0 0
0 0 0
0 0 0
47 3 3
0 0 0
104 104 104
111 111 111
99 99 99
89 89 89
127 127 127
84 84 84
0 0 0
0 0 0
61 61 61
95 95 95
141 141 141
74 74 74
0 0 0
121 121 121
61 61 61
119 119 119
79 22 22
94 26 26
129 104 104
139 139 139
52 52 52
123 123 123
142 142 142
0 0 0
61 61 61
81 81 81
119 119 119
84 84 84
149 149 149
96 96 96
61 61 61
126 126 126
0 0 0
104 104 104
0 0 0
111 111 111
0 0 0
121 121 121
111 111 111
148 148 148
161 161 161
61 61 61
111 111 111
0 0 0
0 0 0
0 0 0
0 0 0
72 72 72
52 52 52
84 84 84
87 87 87
134 134 134
84 84 84
104 104 104
99 99 99
142 131 131
84 84 84
84 84 84
0 0 0
81 81 81
99 99 99
146 146 146
61 61 61
158 158 158
99 99 99
52 52 52
95 95 95
157 157 157
104 104 104
0 0 0
87 87 87
95 95 95
130 130 130
95 95 95
84 84 84
130 130 130
72 72 72
61 61 61
72 72 72
119 119 119
0 0 0
72 72 72
52 52 52
139 139 139
169 169 169
156 156 156
72 72 72
99 99 99
84 84 84
139 139 139
87 73 73
125 125 125
0 0 0
0 0 0
0 0 0
0 0 0
0 0 0
0 0 0
137 137 137
146 146 146
61 61 61
52 52 52
104 104 104
58 16 16
132 132 132
144 144 144
130 130 130
84 84 84
99 99 99
0 0 0
137 137 137
139 139 139
148 148 148
89 89 89
104 104 104
117 117 117
146 146 146
115 115 115
61 61 61
87 73 73
134 134 134
108 108 108
126 126 126
87 73 73
121 121 121
104 104 104
0 0 0
102 102 102
0 0 0
61 61 61
72 72 72
132 132 132
139 139 139
111 111 111
61 61 61
84 84 84
61 61 61
89 89 89
155 155 155
119 119 119
142 142 142
61 61 61
134 134 134
72 72 72
0 0 0
0 0 0
0 0 0
58 16 16
0 0 0
0 0 0
95 95 95
72 72 72
72 54 54
84 84 84
151 151 151
110 110 110
125 125 125
189 189 189
0 0 0
112 112 112
61 61 61
113 113 113
134 134 134
52 52 52
104 104 104
132 132 132
111 111 111
99 99 99
84 84 84
155 155 155
0 0 0
108 108 108
102 102 102
117 117 117
139 139 139
72 72 72
134 134 134
148 148 148
121 121 121
52 52 52
0 0 0
111 111 111
147 147 147
72 72 72
72 72 72
125 125 125
61 61 61
104 104 104
52 52 52
72 72 72
72 72 72
0 0 0
99 99 99
84 84 84
0 0 0
0 0 0
0 0 0
61 61 61
0 0 0
61 61 61
123 114 114
72 72 72
137 137 137
72 72 72
165 165 165
121 121 121
121 121 121
89 89 89
102 102 102
52 52 52
84 84 84
72 72 72
52 52 52
190 190 190
52 52 52
119 119 119
84 84 84
52 52 52
81 81 81
150 150 150
132 132 132
147 147 147
130 130 130
148 148 148
102 102 102
119 119 119
84 84 84
196 196 196
189 189 189
127 127 127
52 52 52
84 84 84
134 134 134
134 134 134
127 127 127
0 0 0
139 139 139
61 61 61
72 72 72
0 0 0
72 72 72
89 89 89
87 73 73
84 84 84
0 0 0
0 0 0
0 0 0
0 0 0
72 72 72
61 61 61
84 84 84
84 84 84
117 117 117
119 119 119
169 169 169
0 0 0
121 121 121
140 128 128
119 119 119
116 105 105
161 161 161
139 139 139
128 128 128
146 146 146
81 81 81
179 170 170
99 99 99
72 72 72
104 104 104
142 142 142
61 61 61
184 184 184
173 173 173
84 84 84
130 130 130
144 144 144
95 95 95
61 61 61
113 113 113
84 84 84
104 104 104
125 112 112
87 87 87
0 0 0
104 104 104
142 142 142
117 117 117
87 87 87
102 102 102
81 81 81
72 72 72
117 117 117
104 104 104
111 111 111
0 0 0
0 0 0
0 0 0
61 61 61
108 108 108
95 95 95
89 89 89
61 61 61
52 52 52
99 99 99
111 111 111
52 52 52
111 111 111
72 72 72
146 146 146
148 148 148
111 111 111
149 149 149
159 159 159
157 157 157
142 142 142
84 84 84
84 84 84
81 81 81
111 111 111
155 155 155
115 101 101
52 52 52
140 128 128
111 111 111
117 117 117
182 182 182
159 159 159
84 84 84
61 61 61
141 141 141
163 163 163
84 84 84
0 0 0
163 163 163
137 137 137
99 99 99
72 72 72
110 86 86
0 0 0
61 61 61
117 117 117
95 95 95
157 157 157
72 72 72
0 0 0
0 0 0
0 0 0
61 61 61
145 145 145
111 111 111
72 72 72
132 132 132
136 128 128
149 149 149
149 149 149
108 108 108
0 0 0
95 95 95
132 132 132
104 104 104
203 203 203
132 132 132
119 119 119
111 111 111
200 200 200
169 169 169
99 99 99
146 146 146
119 119 119
127 127 127
119 119 119
49 13 13
127 127 127
117 117 117
156 141 141
0 0 0
186 186 186
119 119 119
81 81 81
211 211 211
84 84 84
99 99 99
92 74 74
84 84 84
0 0 0
72 72 72
72 72 72
104 104 104
111 111 111
125 125 125
89 89 89
0 0 0
0 0 0
84 84 84
0 0 0
0 0 0
0 0 0
102 102 102
72 72 72
74 74 74
52 52 52
0 0 0
84 84 84
84 84 84
84 84 84
72 72 72
202 202 202
159 159 159
87 87 87
92 74 74
89 89 89
61 61 61
153 153 153
0 0 0
72 72 72
139 139 139
213 213 213
61 61 61
84 84 84
106 91 91
165 165 165
121 121 121
163 163 163
139 139 139
104 104 104
89 89 89
117 117 117
119 119 119
117 117 117
84 84 84
141 141 141
139 139 139
100 82 82
84 84 84
84 84 84
99 99 99
149 149 149
72 72 72
61 61 61
125 125 125
0 0 0
0 0 0
119 119 119
0 0 0
0 0 0
0 0 0
0 0 0
72 72 72
117 117 117
52 52 52
108 86 86
146 146 146
111 111 111
125 125 125
72 72 72
99 99 99
0 0 0
89 89 89
61 61 61
61 61 61
139 139 139
112 112 112
127 127 127
81 81 81
159 159 159
155 155 155
141 141 141
84 84 84
0 0 0
164 164 164
132 132 132
0 0 0
180 180 180
0 0 0
137 137 137
153 153 153
127 127 127
117 103 103
61 61 61
0 0 0
52 52 52
139 139 139
174 174 174
146 146 146
61 61 61
99 99 99
148 148 148
104 104 104
52 52 52
111 111 111
72 72 72
0 0 0
61 61 61
0 0 0
0 0 0
0 0 0
0 0 0
99 99 99
72 72 72
104 104 104
104 104 104
0 0 0
99 99 99
104 104 104
127 127 127
129 129 129
84 84 84
119 119 119
171 171 171
111 111 111
121 121 121
79 63 63
89 89 89
74 74 74
72 72 72
104 104 104
84 84 84
104 104 104
130 130 130
84 84 84
81 81 81
170 170 170
81 81 81
61 61 61
84 84 84
0 0 0
157 157 157
159 159 159
81 81 81
0 0 0
163 163 163
74 74 74
0 0 0
130 130 130
84 84 84
0 0 0
142 131 131
0 0 0
99 99 99
61 61 61
84 84 84
61 61 61
102 102 102
111 111 111
0 0 0
0 0 0
0 0 0
89 89 89
89 89 89
61 61 61
61 61 61
61 61 61
119 119 119
104 104 104
72 72 72
139 139 139
81 81 81
84 84 84
121 121 121
84 84 84
84 84 84
0 0 0
189 189 189
196 196 196
61 61 61
84 84 84
111 111 111
84 84 84
95 95 95
84 84 84
111 111 111
0 0 0
0 0 0
130 130 130
134 134 134
99 99 99
0 0 0
84 84 84
0 0 0
139 139 139
119 119 119
111 111 111
0 0 0
139 139 139
130 130 130
0 0 0
72 72 72
127 127 127
52 52 52
72 72 72
99 99 99
119 119 119
0 0 0
0 0 0
0 0 0
0 0 0
0 0 0
0 0 0
0 0 0
0 0 0
52 52 52
0 0 0
84 84 84
0 0 0
84 84 84
111 111 111
119 119 119
0 0 0
111 111 111
128 128 128
84 84 84
0 0 0
119 119 119
104 104 104
0 0 0
61 61 61
0 0 0
84 84 84
153 153 153
176 176 176
0 0 0
0 0 0
84 84 84
0 0 0
0 0 0
84 84 84
104 104 104
95 95 95
84 84 84
52 52 52
119 119 119
0 0 0
61 61 61
52 52 52
0 0 0
130 130 130
137 137 137
61 61 61
72 72 72
55 4 4
72 72 72
84 84 84
87 87 87
0 0 0
0 0 0
0 0 0
0 0 0
0 0 0
84 84 84
0 0 0
0 0 0
0 0 0
0 0 0
0 0 0
0 0 0
0 0 0
0 0 0
0 0 0
0 0 0
0 0 0
0 0 0
0 0 0
0 0 0
0 0 0
0 0 0
0 0 0
0 0 0
0 0 0
0 0 0
0 0 0
0 0 0
0 0 0
0 0 0
0 0 0
0 0 0
0 0 0
0 0 0
0 0 0
0 0 0
0 0 0
0 0 0
0 0 0
0 0 0
0 0 0
0 0 0
0 0 0
0 0 0
0 0 0
0 0 0
0 0 0
0 0 0
0 0 0
0 0 0
0 0 0
0 0 0
0 0 0
0 0 0
0 0 0
0 0 0
0 0 0
0 0 0
0 0 0
0 0 0
0 0 0
0 0 0
0 0 0
0 0 0
0 0 0
0 0 0
0 0 0
0 0 0
0 0 0
0 0 0
0 0 0
0 0 0
0 0 0
0 0 0
0 0 0
0 0 0
0 0 0
0 0 0
0 0 0
0 0 0
0 0 0
0 0 0
0 0 0
0 0 0
0 0 0
0 0 0
0 0 0
0 0 0
0 0 0
0 0 0
0 0 0
0 0 0
0 0 0
0 0 0
0 0 0
0 0 0
0 0 0
0 0 0
0 0 0
0 0 0
0 0 0
0 0 0
0 0 0
