P3
50 33
255
208 166 181
208 166 181
210 166 181
208 165 181
209 166 181
210 166 181
208 166 181
206 165 181
210 166 181
210 166 181
209 166 181
209 166 181
208 166 181
208 166 181
209 166 181
209 166 181
209 166 181
208 166 181
211 167 181
210 166 181
206 165 181
211 167 181
212 167 181
210 166 181
208 166 181
207 165 181
207 165 181
211 167 181
208 166 181
210 166 181
211 167 181
208 166 181
206 165 181
211 167 181
209 166 181
210 167 181
204 164 181
207 165 181
205 165 181
210 166 181
210 167 181
207 165 181
209 166 181
207 165 181
211 167 181
204 164 181
210 166 181
209 166 181
210 166 181
206 165 181
209 166 181
208 166 181
209 166 181
209 166 181
207 165 181
205 164 181
210 166 181
209 166 181
210 166 181
208 165 181
209 166 181
208 166 181
206 165 181
209 166 181
206 165 181
209 166 181
209 166 181
211 167 181
212 167 181
209 166 181
214 168 181
210 166 181
207 165 181
208 166 181
207 165 181
210 167 181
211 167 181
208 166 181
209 166 181
212 167 181
208 166 181
209 166 181
208 166 181
209 166 181
203 164 181
208 165 181
212 167 181
206 165 181
208 166 181
208 166 181
209 166 181
207 165 181
208 166 181
208 166 181
206 165 181
208 166 181
210 166 181
209 166 181
211 167 181
208 166 181
209 166 181
207 165 181
211 167 181
210 166 181
212 167 181
209 166 181
207 165 181
206 165 181
208 166 181
209 166 181
209 166 181
209 166 181
209 166 181
208 166 181
208 166 181
207 165 181
208 165 181
209 166 181
207 165 181
212 167 181
209 166 181
210 167 181
208 166 181
210 166 181
205 164 181
211 167 181
212 167 181
210 166 181
208 165 181
207 165 181
209 166 181
208 166 181
210 167 181
208 166 181
207 165 181
207 165 181
209 166 181
209 166 181
207 165 181
207 165 181
209 166 181
210 167 181
206 165 181
209 166 181
210 166 181
209 166 181
208 166 181
207 165 181
210 166 181
209 166 181
208 166 181
207 165 181
212 167 181
208 166 181
208 166 181
212 167 181
210 166 181
207 165 181
211 167 181
210 166 181
209 166 181
208 166 181
211 167 181
207 165 181
209 166 181
209 166 181
210 166 181
211 167 181
210 166 181
210 166 181
208 166 181
212 167 181
209 166 181
209 166 181
211 167 181
211 167 181
210 166 181
210 167 181
207 165 181
208 166 181
210 166 181
210 167 181
209 166 181
208 166 181
212 167 181
209 166 181
209 166 181
212 167 181
210 167 181
212 167 181
207 165 181
207 165 181
208 166 181
211 167 181
209 166 181
214 168 181
212 167 181
207 165 181
208 166 181
208 166 181
209 166 181
208 166 181
208 166 181
207 165 181
214 168 181
205 164 181
210 166 181
208 166 181
210 167 181
208 166 181
206 165 181
209 166 181
209 166 181
205 164 181
212 167 181
210 167 181
209 166 181
212 167 181
206 165 181
209 166 181
211 167 181
208 165 181
208 166 181
208 165 181
211 167 181
209 166 181
208 166 181
210 167 181
208 166 181
211 167 181
208 165 181
209 166 181
213 168 181
211 167 181
209 166 181
208 166 181
207 165 181
207 165 181
208 166 181
208 166 181
209 166 181
209 166 181
210 166 181
213 168 181
209 166 181
208 165 181
207 165 181
211 167 181
210 166 181
207 165 181
210 166 181
211 167 181
209 166 181
209 166 181
211 167 181
207 165 181
210 167 181
212 167 181
212 167 181
211 167 181
210 166 181
211 167 181
212 167 181
212 167 181
209 166 181
208 166 181
207 165 181
208 165 181
209 166 181
208 165 181
209 166 181
211 167 181
209 166 181
208 166 181
208 166 181
212 167 181
211 167 181
207 165 181
209 166 181
208 166 181
209 166 181
211 167 181
211 167 181
205 164 181
206 165 181
208 166 181
212 167 181
209 166 181
209 166 181
207 165 181
209 166 181
209 166 181
208 166 181
213 168 181
210 166 181
208 166 181
206 165 181
209 166 181
211 167 181
209 166 181
213 168 181
211 167 181
208 165 181
213 168 181
209 166 181
212 167 181
209 166 181
210 167 181
211 167 181
208 166 181
211 167 181
208 166 181
208 166 181
208 166 181
207 165 181
214 168 181
210 166 181
208 166 181
210 167 181
208 166 181
204 164 181
210 167 181
208 166 181
208 166 181
209 166 181
209 166 181
211 167 181
210 166 181
213 168 181
212 167 181
210 166 181
208 166 181
210 167 181
211 167 181
210 166 181
212 167 181
210 166 181
209 166 181
211 167 181
210 166 181
206 165 181
208 166 181
209 166 181
209 166 181
210 166 181
210 166 181
209 166 181
210 166 181
207 165 181
209 166 181
209 166 181
208 165 181
208 166 181
211 167 181
208 166 181
210 167 181
212 168 181
207 165 181
208 166 181
208 166 181
212 167 181
210 167 181
210 167 181
207 165 181
209 166 181
210 166 181
209 166 181
209 166 181
211 167 181
208 166 181
213 168 181
207 165 181
207 165 181
208 166 181
213 168 181
209 166 181
213 168 181
212 168 181
209 166 181
207 165 181
209 166 181
208 166 181
208 166 181
209 166 181
211 167 181
210 167 181
210 166 181
209 166 181
209 166 181
213 168 181
207 165 181
206 165 181
211 167 181
208 166 181
208 166 181
210 166 181
210 167 181
208 166 181
207 165 181
210 166 181
208 166 181
206 165 181
210 166 181
207 165 181
208 166 181
211 167 181
210 167 181
208 166 181
207 165 181
210 167 181
211 167 181
210 167 181
207 165 181
210 167 181
212 167 181
215 169 181
209 166 181
209 166 181
211 167 181
212 167 181
213 168 181
213 168 181
212 167 181
210 167 181
212 167 181
211 167 181
210 167 181
209 166 181
209 166 181
209 166 181
208 166 181
208 166 181
210 166 181
210 167 181
210 167 181
211 167 181
211 167 181
209 166 181
212 167 181
210 167 181
208 165 181
209 166 181
210 166 181
209 166 181
211 167 181
209 166 181
210 167 181
206 165 181
206 165 181
208 166 181
212 168 181
209 166 181
209 166 181
212 167 181
209 166 181
213 168 181
208 166 181
212 167 181
209 166 181
211 167 181
209 166 181
210 166 181
209 166 181
209 166 181
211 167 181
214 168 181
209 166 181
208 166 181
210 166 181
211 167 181
207 165 181
206 165 181
208 166 181
211 167 181
207 165 181
212 167 181
209 166 181
209 166 181
209 166 181
209 166 181
213 168 181
209 166 181
212 167 181
209 166 181
209 166 181
207 165 181
210 166 181
210 166 181
212 167 181
208 166 181
210 166 181
206 165 181
208 166 181
211 167 181
211 167 181
210 167 181
207 165 181
211 167 181
209 166 181
211 167 181
210 166 181
208 166 181
210 166 181
207 165 181
211 167 181
210 166 181
215 168 181
211 167 181
213 168 181
212 167 181
207 165 181
210 166 181
210 166 181
212 167 181
209 166 181
210 166 181
207 165 181
210 166 181
207 165 181
212 167 181
210 167 181
209 166 181
211 167 181
210 167 181
212 167 181
209 166 181
210 166 181
209 166 181
210 167 181
214 168 181
209 166 181
209 166 181
211 167 181
208 166 181
210 167 181
208 166 181
209 166 181
210 167 181
209 166 181
208 165 181
211 167 181
210 167 181
209 166 181
209 166 181
208 166 181
212 167 181
209 166 181
207 165 181
212 167 181
208 166 181
212 168 181
206 165 181
211 167 181
208 166 181
210 166 181
210 166 181
211 167 181
210 167 181
210 167 181
210 166 181
208 166 181
211 167 181
207 165 181
212 167 181
207 165 181
208 166 181
212 167 181
209 166 181
209 166 181
210 166 181
209 166 181
210 166 181
208 166 181
208 166 181
209 170 181
207 167 181
206 167 181
207 166 181
212 167 181
210 167 181
206 165 181
210 167 181
210 167 181
211 167 181
210 167 181
208 165 181
211 167 181
211 167 181
208 166 181
211 167 181
212 167 181
212 167 181
211 167 181
210 166 181
210 166 181
211 167 181
214 168 181
212 167 181
212 167 181
209 166 181
207 165 181
209 166 181
211 167 181
209 166 181
208 166 181
210 166 181
210 167 181
208 166 181
208 166 181
211 167 181
210 167 181
211 167 181
211 167 181
211 167 181
208 166 181
211 167 181
211 167 181
208 166 181
210 167 181
212 167 181
210 166 181
204 169 181
200 173 181
188 179 181
181 180 181
176 178 181
177 177 181
178 177 181
198 171 181
213 168 181
209 166 181
211 167 181
211 167 181
210 166 181
210 166 181
212 168 181
209 166 181
212 167 181
207 165 181
211 167 181
208 166 181
211 167 181
210 166 181
210 166 181
211 167 181
207 165 181
207 165 181
212 167 181
208 166 181
208 166 181
207 165 181
208 166 181
208 166 181
209 166 181
211 167 181
213 168 181
212 167 181
213 168 181
211 167 181
209 166 181
208 166 181
207 165 181
209 166 181
210 167 181
211 167 181
210 167 181
211 167 181
208 166 181
208 166 181
197 173 181
188 178 181
183 181 181
183 181 181
183 181 181
183 181 181
176 178 181
176 178 181
176 178 181
191 173 181
209 166 181
211 167 181
212 168 181
208 166 181
211 167 181
208 166 181
210 166 181
210 167 181
207 165 181
210 167 181
210 166 181
212 168 181
212 167 181
209 166 181
211 167 181
209 166 181
212 167 181
209 166 181
210 167 181
210 166 181
211 167 181
211 167 181
210 166 181
210 166 181
212 167 181
212 167 181
212 167 181
210 167 181
212 167 181
211 167 181
210 167 181
210 166 181
207 165 181
208 166 181
212 167 181
209 166 181
212 167 181
204 164 181
212 167 181
210 166 181
191 177 181
183 181 181
183 181 181
183 181 181
183 181 181
183 181 181
177 178 181
176 178 181
176 178 181
180 176 181
214 169 181
210 166 181
210 167 181
208 166 181
210 166 181
211 167 181
208 166 181
207 165 181
211 167 181
212 167 181
209 166 181
211 167 181
211 167 181
210 167 181
208 166 181
211 167 181
209 166 181
212 167 181
210 167 181
210 166 181
211 167 181
213 168 181
212 167 181
211 167 181
211 167 181
209 166 181
210 166 181
212 167 181
209 166 181
211 167 181
208 166 181
212 167 181
207 165 181
210 166 181
211 167 181
213 168 181
209 166 181
212 167 181
209 166 181
210 167 181
202 172 181
183 181 181
183 181 181
183 181 181
183 181 181
183 181 181
178 179 181
176 178 181
176 178 181
177 177 181
207 168 181
212 167 181
210 166 181
213 168 181
212 167 181
209 166 181
209 166 181
214 168 181
210 167 181
213 168 181
205 165 181
209 166 181
211 167 181
207 165 181
211 167 181
211 167 181
214 168 181
211 167 181
212 167 181
210 167 181
208 166 181
209 166 181
209 166 181
211 167 181
210 166 181
212 167 181
214 168 181
212 167 181
209 166 181
213 168 181
207 165 181
207 165 181
214 168 181
209 166 181
210 167 181
211 167 181
210 166 181
214 168 181
210 166 181
207 165 181
204 169 181
183 181 181
183 181 181
183 181 181
183 181 181
183 181 181
181 180 181
176 178 181
176 178 181
176 178 181
202 169 181
211 167 181
211 167 181
213 168 181
212 167 181
212 167 181
212 167 181
211 167 181
210 166 181
208 165 181
211 167 181
212 167 181
210 167 181
210 166 181
212 167 181
212 167 181
211 167 181
210 167 181
212 167 181
210 166 181
209 166 181
205 164 181
209 166 181
212 167 181
212 167 181
212 167 181
211 167 181
210 166 181
212 167 181
213 168 181
210 167 181
210 166 181
211 167 181
211 167 181
211 167 181
209 166 181
209 166 181
210 167 181
209 166 181
212 167 181
208 168 181
186 180 181
183 181 181
183 181 181
183 181 181
183 181 181
183 181 181
176 178 181
176 178 181
176 178 181
190 172 181
212 167 181
211 167 181
208 166 181
211 167 181
212 167 181
211 167 181
207 165 181
208 166 181
204 164 181
210 167 181
212 167 181
212 167 181
210 166 181
209 166 181
214 168 181
212 167 181
210 167 181
210 166 181
211 167 181
212 167 181
213 168 181
211 167 181
213 168 181
211 167 181
210 166 181
210 167 181
209 166 181
213 168 181
213 168 181
207 165 181
208 166 181
212 167 181
211 167 181
211 167 181
213 168 181
216 169 181
209 166 181
211 167 181
212 167 181
213 168 181
188 178 181
183 181 181
183 181 181
184 182 181
186 183 181
194 187 181
195 187 181
198 188 181
196 179 181
202 171 181
206 165 181
210 167 181
213 168 181
210 167 181
210 167 181
212 167 181
209 166 181
209 166 181
208 166 181
209 166 181
209 166 181
212 167 181
211 167 181
208 166 181
210 167 181
211 167 181
211 167 181
207 165 181
209 166 181
211 167 181
211 167 181
214 168 181
211 167 181
213 168 181
211 167 181
211 167 181
208 166 181
210 167 181
209 166 181
215 169 181
212 167 181
211 167 181
214 168 181
211 167 181
215 168 181
209 166 181
208 166 181
211 167 181
214 168 181
213 168 181
197 175 181
189 182 181
197 186 181
208 191 181
213 190 181
212 182 181
212 174 181
211 168 181
213 168 181
210 166 181
213 168 181
213 168 181
209 166 181
212 167 181
212 167 181
210 167 181
215 168 181
210 166 181
212 167 181
209 166 181
211 167 181
210 166 181
210 166 181
210 167 181
213 168 181
209 166 181
212 167 181
212 167 181
212 167 181
209 166 181
211 167 181
211 167 181
211 167 181
211 167 181
211 167 181
211 167 181
209 166 181
213 168 181
210 166 181
214 168 181
209 166 181
211 167 181
212 167 181
215 168 181
210 167 181
213 168 181
210 167 181
207 165 181
209 166 181
210 167 181
213 170 181
211 168 181
214 169 181
210 167 181
213 168 181
212 167 181
211 167 181
211 167 181
213 168 181
211 167 181
211 167 181
212 167 181
210 166 181
211 167 181
212 167 181
213 168 181
213 168 181
211 167 181
211 167 181
208 166 181
212 167 181
213 168 181
212 167 181
211 167 181
215 169 181
207 165 181
212 167 181
207 165 181
213 168 181
211 167 181
209 166 181
212 167 181
211 167 181
211 167 181
213 168 181
208 166 181
213 168 181
208 165 181
211 167 181
211 167 181
212 167 181
210 166 181
210 167 181
214 168 181
211 167 181
208 166 181
211 167 181
209 166 181
209 166 181
211 167 181
210 166 181
211 167 181
210 167 181
209 166 181
209 166 181
211 167 181
212 168 181
215 169 181
212 167 181
211 167 181
210 166 181
211 167 181
215 169 181
209 166 181
209 166 181
209 166 181
213 168 181
213 168 181
209 166 181
212 167 181
212 167 181
211 167 181
213 168 181
212 167 181
210 167 181
212 167 181
210 166 181
209 166 181
208 166 181
210 166 181
213 168 181
211 167 181
208 166 181
212 167 181
213 168 181
215 169 181
210 167 181
213 168 181
210 166 181
212 167 181
212 167 181
208 166 181
212 167 181
215 168 181
214 168 181
207 165 181
211 167 181
212 167 181
211 167 181
214 168 181
209 166 181
208 166 181
208 166 181
214 168 181
211 167 181
211 167 181
214 168 181
212 167 181
210 167 181
208 166 181
209 166 181
212 167 181
210 167 181
211 167 181
210 167 181
212 167 181
213 168 181
209 166 181
209 166 181
211 167 181
209 166 181
214 168 181
211 167 181
209 166 181
213 168 181
213 168 181
210 166 181
214 168 181
214 168 181
207 165 181
214 168 181
213 168 181
213 168 181
213 168 181
210 167 181
210 167 181
210 167 181
207 165 181
213 168 181
212 167 181
211 167 181
213 168 181
211 167 181
211 167 181
209 166 181
210 166 181
208 166 181
211 167 181
209 166 181
213 168 181
214 168 181
214 168 181
215 169 181
209 166 181
214 168 181
207 165 181
210 166 181
210 166 181
211 167 181
208 166 181
212 167 181
210 167 181
212 167 181
210 166 181
211 167 181
209 166 181
209 166 181
212 167 181
212 167 181
210 166 181
212 167 181
211 167 181
212 167 181
214 168 181
209 166 181
210 166 181
211 167 181
212 167 181
209 166 181
210 166 181
214 168 181
213 168 181
208 166 181
211 167 181
209 166 181
210 167 181
213 168 181
214 168 181
211 167 181
212 167 181
208 166 181
214 168 181
212 167 181
212 167 181
212 167 181
211 167 181
210 166 181
213 168 181
212 167 181
209 166 181
214 168 181
210 167 181
211 167 181
212 167 181
212 167 181
211 167 181
210 166 181
213 168 181
211 167 181
212 167 181
212 167 181
210 167 181
212 167 181
211 167 181
212 167 181
212 167 181
211 167 181
208 166 181
212 167 181
211 167 181
212 167 181
207 165 181
210 166 181
208 166 181
214 168 181
212 167 181
210 167 181
214 168 181
208 166 181
212 167 181
211 167 181
211 167 181
212 167 181
211 167 181
211 167 181
214 168 181
214 168 181
214 168 181
211 167 181
212 167 181
212 167 181
214 168 181
211 167 181
212 168 181
210 166 181
213 168 181
211 167 181
209 166 181
212 167 181
210 167 181
210 167 181
213 168 181
214 168 181
212 167 181
212 167 181
214 168 181
210 167 181
212 167 181
209 166 181
212 167 181
215 169 181
212 167 181
213 168 181
212 167 181
211 167 181
210 167 181
213 168 181
211 167 181
211 167 181
211 167 181
212 167 181
214 168 181
210 167 181
215 168 181
211 167 181
212 167 181
210 166 181
211 167 181
210 166 181
215 169 181
212 167 181
212 168 181
214 168 181
207 165 181
213 168 181
213 168 181
210 166 181
211 167 181
212 168 181
216 169 181
213 168 181
213 168 181
214 168 181
209 166 181
210 167 181
209 166 181
210 166 181
208 166 181
213 168 181
211 167 181
212 167 181
211 167 181
214 168 181
211 167 181
209 166 181
213 168 181
216 169 181
211 167 181
212 167 181
215 168 181
210 167 181
212 167 181
213 168 181
211 167 181
212 167 181
214 168 181
211 167 181
210 167 181
215 168 181
211 167 181
210 167 181
210 167 181
209 166 181
209 166 181
215 168 181
211 167 181
211 167 181
213 168 181
211 167 181
212 167 181
212 167 181
210 167 181
211 167 181
212 167 181
210 167 181
212 167 181
213 168 181
208 166 181
213 168 181
212 167 181
215 169 181
210 167 181
212 167 181
210 166 181
212 167 181
212 167 181
213 168 181
212 167 181
211 167 181
209 166 181
211 167 181
214 168 181
211 167 181
211 167 181
214 168 181
210 167 181
210 167 181
211 167 181
214 168 181
212 167 181
211 167 181
213 168 181
211 167 181
214 168 181
216 169 181
214 168 181
216 169 181
212 168 181
214 168 181
213 168 181
210 167 181
210 166 181
213 168 181
211 167 181
212 167 181
211 167 181
214 168 181
213 168 181
213 168 181
211 167 181
213 168 181
214 168 181
213 168 181
210 167 181
213 168 181
212 167 181
212 167 181
215 168 181
210 167 181
213 168 181
213 168 181
210 167 181
211 167 181
214 168 181
215 168 181
215 168 181
211 167 181
213 168 181
209 166 181
212 168 181
215 169 181
210 166 181
214 168 181
213 168 181
213 168 181
211 167 181
212 167 181
213 168 181
213 168 181
209 166 181
212 167 181
215 169 181
213 168 181
212 167 181
212 167 181
214 168 181
212 167 181
212 167 181
213 168 181
214 168 181
212 167 181
210 166 181
217 169 181
213 168 181
210 167 181
210 166 181
214 168 181
212 167 181
214 168 181
214 168 181
210 167 181
210 166 181
211 167 181
215 169 181
211 167 181
213 168 181
213 168 181
211 167 181
211 167 181
210 167 181
214 168 181
213 168 181
212 167 181
213 168 181
209 166 181
208 166 181
214 168 181
213 168 181
210 166 181
214 168 181
213 168 181
212 167 181
214 168 181
216 169 181
212 167 181
214 168 181
214 168 181
212 167 181
214 168 181
213 168 181
214 168 181
214 168 181
209 166 181
213 168 181
213 168 181
215 169 181
212 167 181
211 167 181
211 167 181
215 168 181
211 167 181
215 169 181
212 167 181
210 167 181
213 168 181
212 167 181
214 168 181
210 166 181
210 167 181
212 167 181
213 168 181
212 167 181
209 166 181
212 167 181
213 168 181
212 167 181
213 168 181
213 168 181
212 167 181
213 168 181
212 167 181
213 168 181
212 167 181
214 168 181
211 167 181
211 167 181
215 169 181
212 167 181
212 167 181
213 168 181
215 169 181
213 168 181
216 169 181
212 167 181
213 168 181
208 166 181
212 167 181
213 168 181
211 167 181
211 167 181
213 168 181
211 167 181
211 167 181
214 168 181
215 169 181
212 167 181
211 167 181
212 167 181
212 167 181
213 168 181
210 167 181
211 167 181
214 168 181
215 168 181
215 169 181
209 166 181
208 166 181
212 167 181
213 168 181
214 168 181
211 167 181
211 167 181
215 169 181
214 168 181
213 168 181
211 167 181
211 167 181
213 168 181
214 168 181
207 165 181
209 166 181
213 168 181
209 166 181
210 167 181
210 167 181
214 168 181
215 169 181
215 169 181
210 167 181
212 167 181
213 168 181
209 166 181
211 167 181
214 168 181
210 167 181
213 168 181
212 167 181
210 166 181
209 166 181
215 168 181
213 168 181
211 167 181
215 169 181
213 168 181
210 167 181
212 167 181
211 167 181
212 167 181
211 167 181
211 167 181
210 166 181
213 168 181
212 167 181
212 167 181
211 167 181
211 167 181
211 167 181
211 167 181
213 168 181
210 166 181
211 167 181
213 168 181
212 167 181
212 167 181
215 169 181
212 167 181
216 169 181
213 168 181
213 168 181
212 167 181
213 168 181
214 168 181
211 167 181
214 168 181
212 167 181
214 168 181
210 167 181
213 168 181
214 168 181
212 167 181
213 168 181
214 168 181
216 169 181
210 167 181
212 167 181
214 168 181
214 168 181
211 167 181
211 167 181
216 169 181
211 167 181
210 166 181
212 167 181
210 167 181
213 168 181
216 169 181
213 168 181
209 166 181
214 168 181
214 168 181
212 167 181
213 168 181
213 168 181
214 168 181
210 166 181
211 167 181
212 167 181
211 167 181
216 169 181
213 168 181
