P3
20 13
255
208 166 181
208 166 181
210 166 181
208 165 181
209 166 181
209 166 181
208 166 181
206 165 181
210 166 181
210 166 181
209 166 181
210 166 181
208 166 181
208 166 181
209 166 181
209 166 181
209 166 181
208 166 181
211 167 181
210 167 181
207 165 181
211 167 181
212 167 181
210 166 181
208 166 181
208 166 181
207 165 181
212 167 181
209 166 181
210 167 181
211 167 181
209 166 181
206 165 181
212 167 181
210 166 181
211 167 181
204 164 181
207 165 181
206 165 181
210 166 181
211 167 181
208 165 181
210 166 181
208 166 181
212 167 181
205 164 181
209 168 181
207 167 181
211 167 181
207 165 181
210 166 181
208 166 181
210 167 181
209 166 181
207 165 181
205 165 181
210 167 181
210 166 181
210 167 181
208 166 181
210 167 181
209 166 181
207 165 181
210 167 181
207 165 181
210 167 181
205 168 181
193 178 181
213 168 181
210 166 181
215 168 181
210 167 181
209 166 181
209 166 181
208 166 181
211 167 181
211 167 181
209 166 181
210 166 181
213 168 181
210 166 181
210 167 181
209 166 181
210 167 181
204 164 181
209 166 181
210 170 181
185 182 181
200 172 181
209 166 181
210 166 181
208 166 181
209 166 181
210 166 181
207 165 181
209 166 181
211 167 181
211 167 181
212 167 181
209 166 181
211 167 181
208 166 181
212 167 181
212 167 181
213 168 181
211 167 181
206 167 181
185 182 181
186 182 181
205 170 181
210 166 181
210 167 181
210 166 181
210 167 181
210 166 181
208 166 181
209 166 181
210 166 181
208 166 181
213 168 181
211 167 181
212 167 181
209 166 181
212 167 181
207 165 181
212 167 181
211 169 181
185 182 181
185 182 181
188 180 181
207 167 181
210 166 181
212 167 181
210 166 181
208 166 181
209 166 181
211 167 181
211 167 181
209 166 181
209 166 181
211 167 181
212 167 181
208 165 181
211 167 181
212 167 181
210 167 181
208 168 181
185 182 181
185 182 181
185 182 181
196 176 181
210 166 181
214 168 181
210 167 181
210 166 181
214 168 181
212 167 181
209 166 181
213 168 181
212 167 181
211 167 181
211 167 181
213 168 181
209 166 181
211 167 181
211 167 181
210 169 181
185 182 181
185 182 181
185 182 181
186 182 181
207 172 181
211 167 181
211 167 181
213 168 181
213 168 181
212 167 181
213 168 181
210 166 181
210 167 181
212 167 181
213 168 181
211 167 181
210 167 181
215 169 181
212 167 181
211 168 181
204 175 181
200 177 181
195 178 181
189 181 181
187 181 181
208 169 181
213 168 181
211 167 181
216 169 181
214 168 181
210 166 181
211 167 181
211 167 181
211 167 181
211 167 181
211 167 181
209 166 181
217 170 181
209 166 181
212 167 181
211 167 181
213 168 181
211 167 181
209 166 181
208 169 181
210 169 181
208 165 181
214 168 181
213 168 181
212 167 181
215 169 181
209 166 181
212 167 181
214 168 181
212 167 181
211 167 181
210 167 181
214 168 181
212 167 181
212 167 181
213 168 181
211 167 181
214 168 181
211 167 181
212 167 181
216 169 181
214 168 181
211 167 181
212 167 181
210 167 181
210 167 181
211 167 181
211 167 181
213 168 181
212 167 181
213 168 181
217 170 181
212 167 181
211 167 181
210 167 181
215 168 181
213 168 181
210 167 181
213 168 181
214 168 181
213 168 181
213 168 181
214 168 181
211 167 181
213 168 181
215 168 181
215 168 181
214 168 181
