P3
50 33
255
208 166 181
208 166 181
210 166 181
208 165 181
209 166 181
210 166 181
208 166 181
206 165 181
210 166 181
210 166 181
209 166 181
209 166 181
208 166 181
208 166 181
209 166 181
209 166 181
209 166 181
208 166 181
211 167 181
210 166 181
206 165 181
211 167 181
212 167 181
210 166 181
208 166 181
207 165 181
207 165 181
211 167 181
208 166 181
210 166 181
211 167 181
208 166 181
206 165 181
211 167 181
209 166 181
210 167 181
204 164 181
207 165 181
205 165 181
210 166 181
210 167 181
207 165 181
209 166 181
207 165 181
211 167 181
204 164 181
210 166 181
209 166 181
210 166 181
206 165 181
209 166 181
208 166 181
209 166 181
209 166 181
207 165 181
205 164 181
210 166 181
209 166 181
210 166 181
208 165 181
209 166 181
208 166 181
206 165 181
209 166 181
206 165 181
209 166 181
209 166 181
211 167 181
212 167 181
209 166 181
214 168 181
210 166 181
207 165 181
208 166 181
207 165 181
210 167 181
211 167 181
208 166 181
209 166 181
212 167 181
208 166 181
209 166 181
208 166 181
209 166 181
203 164 181
208 165 181
212 167 181
206 165 181
208 166 181
208 166 181
209 166 181
207 165 181
208 166 181
208 166 181
206 165 181
208 166 181
210 166 181
209 166 181
211 167 181
208 166 181
209 166 181
207 165 181
211 167 181
210 166 181
212 167 181
209 166 181
207 165 181
206 165 181
208 166 181
209 166 181
209 166 181
209 166 181
209 166 181
208 166 181
208 166 181
207 165 181
208 165 181
209 166 181
207 165 181
212 167 181
209 166 181
210 167 181
208 166 181
210 166 181
205 164 181
211 167 181
212 167 181
210 166 181
208 165 181
207 165 181
209 166 181
208 166 181
210 167 181
208 166 181
207 165 181
207 165 181
209 166 181
209 166 181
207 165 181
207 165 181
209 166 181
210 167 181
206 165 181
209 166 181
210 166 181
209 166 181
208 166 181
207 165 181
210 166 181
209 166 181
208 166 181
207 165 181
212 167 181
208 166 181
208 166 181
212 167 181
210 166 181
207 165 181
211 167 181
210 166 181
209 166 181
208 166 181
211 167 181
207 165 181
209 166 181
209 166 181
210 166 181
211 167 181
210 166 181
210 166 181
208 166 181
212 167 181
209 166 181
209 166 181
211 167 181
211 167 181
210 166 181
210 167 181
207 165 181
208 166 181
210 166 181
210 167 181
209 166 181
208 166 181
212 167 181
209 166 181
209 166 181
212 167 181
210 167 181
212 167 181
207 165 181
207 165 181
208 166 181
211 167 181
209 166 181
214 168 181
212 167 181
207 165 181
208 166 181
208 166 181
209 166 181
208 166 181
208 166 181
207 165 181
214 168 181
205 164 181
210 166 181
208 166 181
210 167 181
208 166 181
206 165 181
209 166 181
209 166 181
205 164 181
212 167 181
210 167 181
209 166 181
212 167 181
206 165 181
209 166 181
211 167 181
208 165 181
208 166 181
208 165 181
211 167 181
209 166 181
208 166 181
210 167 181
208 166 181
211 167 181
208 165 181
209 166 181
213 168 181
211 167 181
209 166 181
208 166 181
207 165 181
207 165 181
208 166 181
208 166 181
209 166 181
209 166 181
210 166 181
213 168 181
209 166 181
208 165 181
207 165 181
211 167 181
210 166 181
207 165 181
210 166 181
211 167 181
209 166 181
209 166 181
211 167 181
207 165 181
210 167 181
212 167 181
212 167 181
211 167 181
210 166 181
211 167 181
212 167 181
212 167 181
209 166 181
208 166 181
207 165 181
208 165 181
209 166 181
208 165 181
209 166 181
211 167 181
209 166 181
208 166 181
208 166 181
212 167 181
211 167 181
207 165 181
209 166 181
208 166 181
209 166 181
211 167 181
211 167 181
205 164 181
206 165 181
208 166 181
212 167 181
209 166 181
209 166 181
207 165 181
209 166 181
209 166 181
208 166 181
213 168 181
210 166 181
208 166 181
206 165 181
209 166 181
211 167 181
209 166 181
213 168 181
211 167 181
208 165 181
213 168 181
209 166 181
212 167 181
209 166 181
210 167 181
211 167 181
208 166 181
211 167 181
208 166 181
208 166 181
208 166 181
207 165 181
214 168 181
210 166 181
208 166 181
210 167 181
208 166 181
204 164 181
210 167 181
208 166 181
208 166 181
209 166 181
209 166 181
211 167 181
210 166 181
213 168 181
212 167 181
210 166 181
208 166 181
210 167 181
211 167 181
210 166 181
212 167 181
210 166 181
209 166 181
211 167 181
210 166 181
206 165 181
208 166 181
209 166 181
209 166 181
210 166 181
210 166 181
209 166 181
210 166 181
207 165 181
209 166 181
209 166 181
208 165 181
208 166 181
211 167 181
208 166 181
210 167 181
212 168 181
207 165 181
208 166 181
208 166 181
212 167 181
210 167 181
210 167 181
207 165 181
209 166 181
210 166 181
209 166 181
209 166 181
211 167 181
208 166 181
213 168 181
207 165 181
207 165 181
208 166 181
213 168 181
209 166 181
213 168 181
212 168 181
209 166 181
207 165 181
209 166 181
208 166 181
208 166 181
209 166 181
211 167 181
210 167 181
210 166 181
209 166 181
209 166 181
213 168 181
207 165 181
206 165 181
211 167 181
208 166 181
208 166 181
210 166 181
210 167 181
208 166 181
207 165 181
210 166 181
208 166 181
206 165 181
210 166 181
207 165 181
208 166 181
211 167 181
210 167 181
208 166 181
207 165 181
210 167 181
211 167 181
210 167 181
207 165 181
210 167 181
212 167 181
215 169 181
209 166 181
209 166 181
211 167 181
212 167 181
213 168 181
213 168 181
212 167 181
210 167 181
212 167 181
211 167 181
210 167 181
209 166 181
209 166 181
209 166 181
208 166 181
208 166 181
210 166 181
210 167 181
210 167 181
211 167 181
211 167 181
209 166 181
212 167 181
210 167 181
208 165 181
209 166 181
210 166 181
209 166 181
211 167 181
209 166 181
210 167 181
206 165 181
206 165 181
208 166 181
212 168 181
209 166 181
209 166 181
212 167 181
209 166 181
213 168 181
208 166 181
212 167 181
209 166 181
211 167 181
209 166 181
210 166 181
209 166 181
209 166 181
211 167 181
214 168 181
209 166 181
208 166 181
210 166 181
211 167 181
207 165 181
206 165 181
208 166 181
211 167 181
207 165 181
212 167 181
209 166 181
209 166 181
209 166 181
209 166 181
213 168 181
209 166 181
212 167 181
209 166 181
209 166 181
207 165 181
210 166 181
210 166 181
212 167 181
208 166 181
210 166 181
206 165 181
208 166 181
211 167 181
211 167 181
210 167 181
207 165 181
211 167 181
209 166 181
211 167 181
210 166 181
208 166 181
210 166 181
207 165 181
211 167 181
210 166 181
215 168 181
211 167 181
213 168 181
212 167 181
207 165 181
210 166 181
210 166 181
212 167 181
209 166 181
210 166 181
207 165 181
210 166 181
207 165 181
212 167 181
210 167 181
209 166 181
211 167 181
210 167 181
212 167 181
209 166 181
210 166 181
209 166 181
210 167 181
214 168 181
209 166 181
209 166 181
211 167 181
208 166 181
210 167 181
208 166 181
209 166 181
210 167 181
209 166 181
208 165 181
211 167 181
210 167 181
209 166 181
209 166 181
208 166 181
212 167 181
209 166 181
207 165 181
212 167 181
208 166 181
212 168 181
206 165 181
211 167 181
208 166 181
210 166 181
210 166 181
211 167 181
210 167 181
210 167 181
210 166 181
208 166 181
211 167 181
207 165 181
212 167 181
207 165 181
208 166 181
212 167 181
209 166 181
209 166 181
210 166 181
209 166 181
210 166 181
208 166 181
209 166 181
213 168 181
204 162 176
190 150 163
204 162 177
212 167 181
210 167 181
206 165 181
210 167 181
210 167 181
211 167 181
210 167 181
208 165 181
211 167 181
211 167 181
208 166 181
211 167 181
212 167 181
212 167 181
211 167 181
210 166 181
210 166 181
211 167 181
214 168 181
212 167 181
212 167 181
209 166 181
207 165 181
209 166 181
211 167 181
209 166 181
208 166 181
210 166 181
210 167 181
208 166 181
208 166 181
211 167 181
210 167 181
211 167 181
211 167 181
211 167 181
208 166 181
211 167 181
211 167 181
208 166 181
210 167 181
212 167 181
210 166 181
208 166 181
212 167 181
214 168 181
187 149 162
85 67 72
18 15 18
159 126 136
209 166 181
213 168 181
209 166 181
211 167 181
211 167 181
210 166 181
210 166 181
212 168 181
209 166 181
212 167 181
207 165 181
211 167 181
208 166 181
211 167 181
210 166 181
210 166 181
211 167 181
207 165 181
207 165 181
212 167 181
208 166 181
208 166 181
207 165 181
208 166 181
208 166 181
209 166 181
211 167 181
213 168 181
212 167 181
213 168 181
211 167 181
209 166 181
208 166 181
207 165 181
209 166 181
210 167 181
211 167 181
210 167 181
211 167 181
208 166 181
208 166 181
208 166 181
209 166 181
211 167 181
213 168 181
204 161 174
88 71 78
0 0 0
0 0 0
113 90 97
212 167 181
209 166 181
211 167 181
212 168 181
208 166 181
211 167 181
208 166 181
210 166 181
210 167 181
207 165 181
210 167 181
210 166 181
212 168 181
212 167 181
209 166 181
211 167 181
209 166 181
212 167 181
209 166 181
210 167 181
210 166 181
211 167 181
211 167 181
210 166 181
210 166 181
212 167 181
212 167 181
212 167 181
210 167 181
212 167 181
211 167 181
210 167 181
210 166 181
207 165 181
208 166 181
212 167 181
209 166 181
212 167 181
204 164 181
212 167 181
210 166 181
208 166 181
210 166 181
210 166 181
209 166 180
134 106 114
0 0 0
0 0 0
0 0 0
167 133 144
210 167 181
214 168 181
210 166 181
210 167 181
208 166 181
210 166 181
211 167 181
208 166 181
207 165 181
211 167 181
212 167 181
209 166 181
211 167 181
211 167 181
210 167 181
208 166 181
211 167 181
209 166 181
212 167 181
210 167 181
210 166 181
211 167 181
213 168 181
212 167 181
211 167 181
211 167 181
209 166 181
210 166 181
212 167 181
209 166 181
211 167 181
208 166 181
212 167 181
207 165 181
210 166 181
211 167 181
213 168 181
209 166 181
212 167 181
209 166 181
210 167 181
211 167 181
210 167 181
211 167 181
172 136 147
23 17 18
0 0 0
0 0 0
67 53 57
205 162 176
210 166 181
210 167 181
212 167 181
210 166 181
213 168 181
212 167 181
209 166 181
209 166 181
214 168 181
210 167 181
213 168 181
205 165 181
209 166 181
211 167 181
207 165 181
211 167 181
211 167 181
214 168 181
211 167 181
212 167 181
210 167 181
208 166 181
209 166 181
209 166 181
211 167 181
210 166 181
212 167 181
214 168 181
212 167 181
209 166 181
213 168 181
207 165 181
207 165 181
214 168 181
209 166 181
210 167 181
211 167 181
210 166 181
214 168 181
210 166 181
207 165 181
210 167 181
209 166 181
207 164 177
88 69 73
0 0 0
0 0 0
26 20 22
167 132 143
210 167 181
211 167 181
210 166 181
211 167 181
211 167 181
213 168 181
211 167 181
212 167 181
211 167 181
210 166 181
211 167 181
207 165 181
212 167 181
212 167 181
211 167 181
210 166 181
211 167 181
212 167 181
212 167 181
209 166 181
212 167 181
210 166 181
208 166 181
206 165 181
209 166 181
211 167 181
212 167 181
213 168 181
211 167 181
209 166 181
213 168 181
212 167 181
210 166 181
210 166 181
211 167 181
211 167 181
212 167 181
209 166 181
208 166 181
211 167 181
209 166 181
212 167 181
209 166 181
208 166 181
189 147 155
50 36 36
0 0 0
25 18 18
156 120 126
205 163 179
210 166 181
210 167 181
211 167 181
211 167 181
209 166 181
210 166 181
212 167 181
212 167 181
208 166 181
209 166 181
204 164 181
210 166 181
211 167 181
212 167 181
211 167 181
209 166 181
212 167 181
211 167 181
211 167 181
212 167 181
211 167 181
211 167 181
210 167 181
214 168 181
212 167 181
211 167 181
210 167 181
210 166 181
210 167 181
212 167 181
213 168 181
211 167 181
208 165 181
210 166 181
210 166 181
212 167 181
211 167 181
216 169 181
213 168 181
210 166 181
210 167 181
212 167 181
211 167 181
210 166 181
167 130 139
16 12 12
0 0 0
113 84 85
204 161 173
212 167 181
211 167 181
212 167 181
205 164 181
212 167 181
212 167 181
210 167 181
209 166 181
212 167 181
210 167 181
209 166 181
207 165 181
210 166 181
209 166 181
212 167 181
212 167 181
208 166 181
210 166 181
212 167 181
210 166 181
207 165 181
209 166 181
210 166 181
211 167 181
214 168 181
211 167 181
213 168 181
211 167 181
210 166 181
209 166 181
211 167 181
208 166 181
216 169 181
212 167 181
211 167 181
213 168 181
211 167 181
215 169 181
209 166 181
208 166 181
212 167 181
213 168 181
213 168 181
212 167 181
210 166 181
162 127 137
20 16 18
81 63 67
182 144 155
210 167 181
210 167 181
213 168 181
210 166 181
213 168 181
213 168 181
209 166 181
212 167 181
212 167 181
210 167 181
214 168 181
210 167 181
212 167 181
209 166 181
211 167 181
210 166 181
210 166 181
210 167 181
213 168 181
209 166 181
212 167 181
212 167 181
212 167 181
209 166 181
211 167 181
211 167 181
211 167 181
211 167 181
211 167 181
211 167 181
209 166 181
213 168 181
210 166 181
214 168 181
209 166 181
211 167 181
212 167 181
215 168 181
211 167 181
213 168 181
210 166 181
207 165 181
209 166 181
210 167 181
212 167 181
212 167 181
212 167 180
187 148 160
211 166 179
212 167 181
211 167 181
211 167 181
213 168 181
211 167 181
211 167 181
212 167 181
210 167 181
211 167 181
212 167 181
213 168 181
213 168 181
211 167 181
211 167 181
208 166 181
212 167 181
212 167 181
212 167 181
211 167 181
215 169 181
207 165 181
212 167 181
207 165 181
213 168 181
211 167 181
208 166 181
212 167 181
211 167 181
211 167 181
213 168 181
208 166 181
213 168 181
208 165 181
211 167 181
211 167 181
212 167 181
210 166 181
210 167 181
214 168 181
211 167 181
208 166 181
212 167 181
209 166 181
209 166 181
211 167 181
210 167 181
210 167 181
210 167 181
209 166 181
209 166 181
210 167 181
212 167 181
215 169 181
212 167 181
211 167 181
210 166 181
211 167 181
215 169 181
209 166 181
209 166 181
209 166 181
213 168 181
213 168 181
209 166 181
212 167 181
213 168 181
211 167 181
213 168 181
211 167 181
211 167 181
212 167 181
209 166 181
209 166 181
208 166 181
209 166 181
214 168 181
211 167 181
208 166 181
212 167 181
213 168 181
216 169 181
210 167 181
213 168 181
210 166 181
212 167 181
212 167 181
208 166 181
212 167 181
215 168 181
215 168 181
207 165 181
211 167 181
211 167 181
211 167 181
214 168 181
210 166 181
208 166 181
207 165 181
214 168 181
211 167 181
211 167 181
213 168 181
212 167 181
211 167 181
208 166 181
209 166 181
212 167 181
210 166 181
212 167 181
210 166 181
212 167 181
212 167 181
209 166 181
209 166 181
211 167 181
209 166 181
214 168 181
211 167 181
209 166 181
213 168 181
212 168 181
210 166 181
214 168 181
214 168 181
208 166 181
213 168 181
213 168 181
213 168 181
213 168 181
211 167 181
210 167 181
210 167 181
208 166 181
213 168 181
213 168 181
211 167 181
213 168 181
211 167 181
211 167 181
209 166 181
210 167 181
208 165 181
211 167 181
209 166 181
212 168 181
214 168 181
214 168 181
215 169 181
209 166 181
214 168 181
207 165 181
210 166 181
210 166 181
210 167 181
208 166 181
211 167 181
210 167 181
213 168 181
210 166 181
212 167 181
209 166 181
209 166 181
212 167 181
212 168 181
210 167 181
211 167 181
211 167 181
212 167 181
214 168 181
209 166 181
210 166 181
211 167 181
211 167 181
209 166 181
210 166 181
214 168 181
213 168 181
208 166 181
211 167 181
209 166 181
211 167 181
212 167 181
214 168 181
211 167 181
212 167 181
208 166 181
214 168 181
212 168 181
212 167 181
212 167 181
211 167 181
210 167 181
213 168 181
212 167 181
209 166 181
213 168 181
210 166 181
211 167 181
212 167 181
212 167 181
211 167 181
210 166 181
213 168 181
211 167 181
211 167 181
212 167 181
211 167 181
212 167 181
212 167 181
211 167 181
213 168 181
210 167 181
208 166 181
212 167 181
212 167 181
212 167 181
207 165 181
210 166 181
208 166 181
214 168 181
212 167 181
210 166 181
214 168 181
208 166 181
211 167 181
212 167 181
211 167 181
212 167 181
211 167 181
211 167 181
214 168 181
214 168 181
214 168 181
212 167 181
212 167 181
211 167 181
214 168 181
212 167 181
213 168 181
210 166 181
213 168 181
211 167 181
209 166 181
211 167 181
211 167 181
210 167 181
213 168 181
213 168 181
213 168 181
212 167 181
214 168 181
210 167 181
213 168 181
210 166 181
212 167 181
215 169 181
212 167 181
213 168 181
212 167 181
211 167 181
211 167 181
213 168 181
211 167 181
211 167 181
211 167 181
212 167 181
214 168 181
210 167 181
215 168 181
212 167 181
212 167 181
210 166 181
211 167 181
210 166 181
215 168 181
212 168 181
212 167 181
214 168 181
207 165 181
213 168 181
213 168 181
209 166 181
211 167 181
213 168 181
216 169 181
213 168 181
213 168 181
213 168 181
210 166 181
210 167 181
209 166 181
210 167 181
208 165 181
212 168 181
211 167 181
212 167 181
211 167 181
214 168 181
211 167 181
209 166 181
213 168 181
216 169 181
211 167 181
212 167 181
215 169 181
210 167 181
212 167 181
213 168 181
210 167 181
212 167 181
213 168 181
211 167 181
210 167 181
215 168 181
211 167 181
210 167 181
210 167 181
209 166 181
209 166 181
214 168 181
212 167 181
212 167 181
212 167 181
212 167 181
213 168 181
212 167 181
210 167 181
211 167 181
211 167 181
211 167 181
212 167 181
213 168 181
208 166 181
213 168 181
212 167 181
216 169 181
210 166 181
212 167 181
210 166 181
213 168 181
212 167 181
213 168 181
211 167 181
211 167 181
209 166 181
211 167 181
214 168 181
211 167 181
212 167 181
214 168 181
210 167 181
211 167 181
211 167 181
214 168 181
212 167 181
210 167 181
213 168 181
211 167 181
213 168 181
217 169 181
214 168 181
216 169 181
212 167 181
214 168 181
213 168 181
211 167 181
210 166 181
213 168 181
211 167 181
213 168 181
211 167 181
214 168 181
213 168 181
213 168 181
210 167 181
213 168 181
214 168 181
213 168 181
211 167 181
212 167 181
212 167 181
212 168 181
214 168 181
210 167 181
213 168 181
214 168 181
210 167 181
211 167 181
214 168 181
215 169 181
214 168 181
212 167 181
213 168 181
209 166 181
212 167 181
215 169 181
210 166 181
213 168 181
214 168 181
213 168 181
211 167 181
212 167 181
213 168 181
213 168 181
210 166 181
212 167 181
215 168 181
213 168 181
212 167 181
212 167 181
214 168 181
212 167 181
212 167 181
213 168 181
214 168 181
212 167 181
210 167 181
216 169 181
214 168 181
210 166 181
210 166 181
214 168 181
211 167 181
214 168 181
214 168 181
210 166 181
209 166 181
211 167 181
215 169 181
211 167 181
214 168 181
213 168 181
211 167 181
211 167 181
210 166 181
214 168 181
214 168 181
212 167 181
213 168 181
209 166 181
209 166 181
213 168 181
213 168 181
210 166 181
214 168 181
212 168 181
212 167 181
214 168 181
215 169 181
213 168 181
214 168 181
214 168 181
212 167 181
214 168 181
214 168 181
213 168 181
215 168 181
209 166 181
213 168 181
212 168 181
216 169 181
212 167 181
211 167 181
210 167 181
215 169 181
211 167 181
215 169 181
212 167 181
210 167 181
213 168 181
212 167 181
214 168 181
210 166 181
210 166 181
212 167 181
213 168 181
212 167 181
209 166 181
212 167 181
212 167 181
213 168 181
213 168 181
213 168 181
212 168 181
213 168 181
212 167 181
213 168 181
212 167 181
214 168 181
211 167 181
211 167 181
215 168 181
212 167 181
212 167 181
213 168 181
215 169 181
213 168 181
216 169 181
212 167 181
213 168 181
209 166 181
212 167 181
213 168 181
211 167 181
211 167 181
213 168 181
212 167 181
211 167 181
214 168 181
215 169 181
212 167 181
211 167 181
212 167 181
212 167 181
213 168 181
210 167 181
212 167 181
214 168 181
215 168 181
215 169 181
209 166 181
208 166 181
213 168 181
213 168 181
214 168 181
211 167 181
211 167 181
214 168 181
214 168 181
213 168 181
211 167 181
211 167 181
213 168 181
214 168 181
207 165 181
209 166 181
213 168 181
209 166 181
211 167 181
210 166 181
215 168 181
215 169 181
216 169 181
210 166 181
212 167 181
213 168 181
209 166 181
211 167 181
214 168 181
210 167 181
213 168 181
212 167 181
210 166 181
209 166 181
214 168 181
214 168 181
211 167 181
215 169 181
212 167 181
211 167 181
212 167 181
211 167 181
212 167 181
211 167 181
211 167 181
210 166 181
213 168 181
212 167 181
212 167 181
211 167 181
211 167 181
211 167 181
211 167 181
213 168 181
210 166 181
211 167 181
213 168 181
211 167 181
212 167 181
215 169 181
212 167 181
215 169 181
214 168 181
212 167 181
212 167 181
213 168 181
214 168 181
211 167 181
214 168 181
212 167 181
214 168 181
210 167 181
213 168 181
214 168 181
212 167 181
213 168 181
214 168 181
216 169 181
210 166 181
212 167 181
213 168 181
214 168 181
211 167 181
211 167 181
216 169 181
210 167 181
210 166 181
212 167 181
210 166 181
213 168 181
216 169 181
213 168 181
209 166 181
214 168 181
214 168 181
212 167 181
213 168 181
213 168 181
214 168 181
211 167 181
211 167 181
212 167 181
212 167 181
215 169 181
213 168 181
213 168 181
