P3
50 33
255
211 167 181
208 166 181
210 167 181
200 162 181
211 167 181
204 164 181
207 165 181
215 169 181
209 166 181
204 164 181
207 165 181
208 166 181
215 169 181
211 167 181
207 165 181
208 166 181
208 166 181
205 164 181
212 168 181
203 163 181
208 165 181
213 168 181
204 164 181
212 167 181
207 165 181
212 167 181
205 164 181
209 166 181
208 165 181
212 167 181
211 167 181
211 167 181
208 166 181
205 164 181
205 164 181
200 163 181
210 166 181
206 165 181
202 163 181
212 167 181
217 169 181
204 164 181
210 166 181
207 165 181
210 166 181
209 166 181
209 166 181
214 168 181
209 166 181
205 164 181
204 164 181
208 166 181
208 166 181
216 169 181
208 166 181
206 165 181
202 163 181
211 167 181
214 168 181
213 168 181
211 167 181
212 167 181
206 165 181
206 165 181
205 164 181
204 164 181
204 164 181
206 165 181
216 169 181
213 168 181
211 167 181
209 166 181
212 167 181
206 165 181
205 165 181
199 162 181
208 166 181
209 166 181
217 169 181
213 168 181
212 167 181
214 168 181
208 166 181
204 164 181
207 165 181
212 167 181
202 163 181
204 164 181
206 165 181
217 169 181
205 164 181
210 166 181
218 170 181
213 168 181
209 166 181
203 164 181
213 168 181
214 168 181
208 166 181
212 167 181
206 165 181
207 165 181
201 163 181
206 165 181
212 167 181
208 166 181
214 168 181
213 168 181
209 166 181
210 167 181
211 167 181
212 167 181
209 166 181
216 169 181
210 167 181
204 164 181
211 167 181
214 168 181
208 166 181
213 168 181
201 163 181
206 165 181
217 170 181
207 165 181
209 166 181
209 166 181
206 165 181
215 168 181
205 164 181
203 163 181
211 167 181
208 166 181
205 164 181
203 164 181
209 166 181
210 166 181
205 164 181
215 169 181
214 168 181
213 168 181
212 167 181
206 165 181
210 166 181
212 167 181
203 164 181
212 167 181
211 167 181
211 167 181
208 165 181
208 166 181
217 169 181
214 168 181
211 167 181
202 163 181
212 167 181
203 164 181
210 166 181
210 166 181
211 167 181
210 166 181
208 166 181
212 167 181
199 162 181
204 164 181
207 165 181
209 166 181
212 168 181
217 169 181
210 166 181
210 166 181
211 167 181
211 167 181
212 167 181
209 166 181
206 165 181
209 166 181
209 166 181
213 168 181
209 166 181
214 168 181
206 165 181
202 163 181
204 164 181
210 167 181
201 163 181
207 165 181
212 167 181
208 165 181
208 166 181
200 162 181
205 164 181
212 167 181
204 164 181
206 165 181
201 163 181
214 168 181
207 165 181
206 165 181
209 166 181
213 168 181
212 167 181
211 167 181
212 167 181
208 165 181
211 167 181
209 166 181
207 165 181
209 166 181
207 165 181
205 164 181
201 163 181
211 167 181
219 170 181
211 167 181
206 165 181
208 165 181
206 165 181
207 165 181
209 166 181
208 166 181
217 169 181
215 168 181
210 167 181
207 165 181
209 166 181
206 165 181
205 164 181
205 164 181
203 164 181
206 165 181
215 169 181
209 166 181
212 167 181
206 165 181
209 166 181
214 168 181
209 166 181
206 165 181
209 166 181
207 165 181
210 167 181
212 167 181
212 167 181
208 165 181
210 166 181
210 167 181
205 165 181
208 166 181
204 164 181
203 163 181
202 163 181
213 168 181
212 167 181
210 167 181
211 167 181
209 166 181
209 166 181
208 166 181
210 167 181
207 165 181
210 166 181
207 165 181
211 167 181
206 165 181
216 169 181
209 166 181
212 167 181
208 165 181
209 166 181
209 166 181
209 167 181
206 165 181
208 168 181
201 164 181
202 171 181
197 168 181
196 170 181
201 169 181
209 169 181
190 167 181
199 172 181
199 171 181
206 169 181
210 167 181
210 167 181
213 168 181
210 167 181
205 164 181
210 167 181
209 166 181
210 167 181
210 167 181
206 165 181
211 167 181
214 168 181
207 165 181
203 164 181
212 167 181
206 165 181
211 167 181
210 167 181
209 166 181
210 167 181
211 167 181
208 166 181
208 166 181
213 168 181
210 166 181
211 167 181
203 164 181
208 165 181
206 165 181
209 166 181
205 164 181
208 165 181
200 172 181
207 165 181
213 168 181
184 179 181
184 179 181
184 176 181
182 179 181
180 180 181
180 178 181
180 179 181
182 179 181
180 180 181
180 180 181
180 180 181
180 180 181
180 180 181
180 180 181
203 172 181
207 165 181
207 165 181
214 168 181
215 169 181
205 164 181
203 164 181
219 170 181
212 167 181
213 168 181
209 166 181
214 168 181
215 169 181
212 167 181
212 167 181
209 166 181
209 166 181
206 165 181
216 169 181
211 167 181
215 169 181
212 167 181
216 169 181
217 170 181
205 164 181
207 165 181
214 168 181
207 165 181
211 167 181
213 168 181
199 162 181
212 167 181
205 165 181
194 176 181
194 175 181
213 168 181
200 172 181
180 180 181
180 180 181
180 180 181
180 180 181
180 180 181
180 180 181
180 180 181
180 180 181
180 180 181
180 180 181
180 180 181
180 180 181
180 180 181
206 171 181
210 167 181
211 167 181
215 168 181
211 167 181
209 166 181
200 162 181
208 166 181
211 167 181
211 167 181
208 166 181
207 165 181
210 167 181
212 167 181
209 166 181
214 168 181
214 168 181
215 169 181
217 170 181
205 164 181
205 165 181
209 166 181
208 166 181
208 165 181
210 167 181
211 167 181
204 164 181
217 169 181
207 165 181
206 165 181
205 165 181
210 166 181
215 169 181
208 174 181
191 184 181
202 171 181
209 169 181
181 179 181
180 180 181
180 180 181
180 180 181
180 180 181
180 180 181
180 180 181
180 180 181
180 180 181
180 180 181
180 180 181
180 180 181
180 180 181
203 171 181
210 167 181
213 168 181
207 165 181
207 165 181
207 165 181
206 165 181
206 165 181
205 164 181
210 167 181
206 165 181
213 168 181
212 167 181
204 164 181
210 167 181
212 167 181
204 164 181
212 167 181
217 169 181
209 166 181
201 163 181
208 166 181
213 168 181
206 165 181
210 166 181
204 164 181
212 167 181
207 165 181
215 168 181
209 166 181
209 166 181
208 166 181
205 165 181
198 167 174
190 185 181
192 183 181
207 172 181
196 171 181
180 180 181
180 180 181
180 180 181
180 180 181
180 180 181
180 180 181
180 180 181
180 180 181
180 180 181
180 180 181
180 180 181
180 180 181
208 167 181
207 165 181
213 168 181
212 167 181
215 169 181
209 166 181
207 165 181
208 166 181
205 164 181
213 168 181
214 168 181
213 168 181
214 168 181
208 166 181
207 165 181
206 165 181
217 169 181
206 165 181
216 169 181
204 164 181
212 167 181
207 165 181
212 167 181
206 165 181
207 165 181
205 164 181
212 167 181
206 165 181
206 165 181
218 170 181
216 169 181
201 163 174
166 165 174
160 168 178
186 183 181
190 185 181
196 183 181
212 173 181
191 177 181
180 180 181
180 180 181
180 180 181
180 180 181
180 180 181
180 180 181
180 180 181
180 180 181
180 180 181
180 180 181
185 178 181
213 169 181
208 166 181
205 164 181
203 164 181
209 166 181
199 162 181
215 169 181
209 166 181
211 167 181
214 168 181
201 163 181
206 165 181
214 168 181
212 167 181
205 164 181
212 167 181
205 165 181
215 168 181
209 166 181
212 167 181
211 167 181
206 165 181
203 164 181
211 167 181
209 166 181
213 168 181
214 168 181
209 166 181
207 165 181
214 168 181
212 167 181
183 166 171
168 174 181
168 174 181
186 183 181
190 185 181
190 185 181
200 180 181
195 170 181
180 180 181
180 180 181
180 180 181
180 180 181
180 180 181
180 180 181
180 180 181
180 180 181
180 180 181
180 180 181
185 174 181
210 168 181
207 165 181
211 167 181
208 165 181
211 167 181
215 169 181
207 165 181
202 163 181
214 168 181
208 166 181
205 165 181
206 165 181
208 166 181
211 167 181
215 169 181
215 169 181
209 166 181
216 169 181
210 166 181
207 165 181
207 165 181
210 167 181
221 171 181
206 165 181
212 167 181
215 168 181
209 166 181
207 165 181
213 168 181
208 166 181
212 167 181
189 179 178
184 182 181
183 181 181
188 184 181
190 185 181
190 185 181
190 185 181
197 171 181
185 174 181
180 180 181
180 180 181
180 180 181
180 180 181
180 180 181
180 180 181
180 180 181
180 180 181
180 180 181
188 175 181
211 167 181
215 169 181
212 167 181
215 169 181
211 167 181
210 166 181
209 166 181
209 166 181
208 166 181
208 166 181
208 166 181
211 167 181
208 166 181
205 164 181
205 164 181
215 169 181
206 165 181
213 168 181
214 168 181
210 166 181
213 168 181
206 165 181
210 166 181
209 166 181
209 166 181
209 166 181
206 165 181
211 167 181
209 166 181
213 168 181
210 167 181
197 178 176
199 190 181
203 192 181
195 188 181
190 185 181
190 185 181
190 185 181
191 184 181
199 173 181
184 180 181
180 180 181
180 180 181
180 180 181
180 180 181
180 180 181
180 180 181
180 180 181
180 180 181
193 168 181
215 168 181
216 169 181
218 170 181
206 165 181
210 166 181
202 163 181
219 170 181
209 166 181
210 167 181
208 165 181
208 166 181
205 165 181
209 166 181
210 166 181
208 166 181
208 166 181
208 166 181
210 166 181
213 168 181
210 166 181
208 165 181
214 168 181
207 165 181
217 170 181
218 170 181
206 165 181
210 166 181
208 166 181
207 165 181
203 163 181
207 165 181
208 167 178
208 185 178
211 196 181
196 188 181
190 185 181
190 185 181
190 185 181
190 185 181
194 184 181
197 175 181
180 180 181
180 180 181
180 180 181
180 180 181
180 180 181
180 180 181
180 180 181
180 180 181
194 175 181
210 167 181
211 167 181
205 165 181
204 164 181
204 164 181
217 170 181
208 166 181
206 165 181
213 168 181
216 169 181
206 165 181
212 167 181
213 168 181
209 166 181
215 169 181
214 168 181
208 166 181
204 164 181
216 169 181
211 167 181
211 167 181
203 164 181
207 165 181
210 167 181
206 165 181
206 165 181
209 166 181
219 170 181
217 170 181
212 167 181
209 166 181
214 168 181
205 165 181
206 168 174
197 177 176
190 185 181
190 185 181
190 185 181
190 185 181
190 185 181
190 184 181
180 180 181
180 180 181
180 180 181
180 180 181
180 180 181
180 180 181
180 180 181
180 180 181
203 169 181
210 167 181
216 169 181
209 166 181
212 167 181
209 166 181
202 163 181
206 165 181
205 164 181
216 169 181
210 166 181
214 168 181
220 171 181
209 166 181
214 168 181
212 167 181
210 167 181
212 167 181
206 165 181
215 169 181
204 164 181
208 166 181
216 169 181
210 166 181
209 166 181
209 166 181
213 168 181
209 166 181
214 168 181
212 167 181
210 167 181
211 167 181
214 168 181
211 167 181
206 165 181
198 170 181
190 185 181
190 185 181
190 185 181
190 185 181
190 185 181
190 185 181
187 182 181
180 180 181
180 180 181
180 180 181
180 180 181
180 180 181
180 180 181
180 180 181
210 169 181
212 167 181
204 164 181
211 167 181
217 169 181
210 166 181
214 168 181
211 167 181
216 169 181
211 167 181
208 166 181
212 167 181
211 167 181
208 166 181
218 170 181
209 166 181
211 167 181
208 165 181
211 167 181
210 166 181
216 169 181
206 165 181
207 165 181
210 167 181
208 165 181
218 170 181
221 171 181
212 167 181
207 165 181
209 166 181
210 166 181
214 168 181
211 167 181
209 166 181
211 167 181
207 169 181
192 184 181
190 185 181
190 185 181
190 185 181
190 185 181
190 185 181
189 185 181
183 181 181
180 180 181
180 180 181
180 180 181
180 180 181
180 180 181
180 180 181
206 167 181
217 170 181
208 166 181
210 166 181
214 168 181
211 167 181
210 167 181
214 168 181
208 166 181
205 164 181
213 168 181
210 167 181
208 166 181
204 164 181
206 165 181
216 169 181
213 168 181
208 166 181
209 166 181
205 164 181
214 168 181
213 168 181
216 169 181
207 165 181
207 165 181
216 169 181
214 168 181
217 169 181
210 167 181
210 166 181
212 167 181
213 168 181
207 165 181
216 169 181
204 164 181
214 171 181
193 182 181
190 185 181
190 185 181
190 185 181
190 185 181
190 185 181
190 185 181
187 183 181
180 180 181
180 180 181
180 180 181
180 180 181
180 180 181
180 180 181
210 166 181
206 165 181
211 167 181
214 168 181
210 167 181
215 169 181
208 166 181
216 169 181
213 168 181
211 167 181
207 165 181
214 168 181
213 168 181
214 168 181
221 171 181
213 168 181
210 166 181
212 167 181
211 167 181
210 166 181
205 165 181
210 166 181
206 165 181
211 167 181
201 163 181
213 168 181
210 166 181
207 165 181
212 167 181
216 169 181
210 166 181
208 166 181
208 166 181
212 167 181
212 167 181
214 168 181
190 184 181
190 185 181
190 185 181
190 185 181
190 185 181
190 185 181
190 185 181
189 185 181
183 181 181
180 180 181
180 180 181
180 180 181
180 180 181
186 178 181
215 169 181
215 169 181
217 169 181
209 166 181
208 166 181
213 168 181
206 165 181
209 166 181
212 167 181
203 163 181
218 170 181
215 169 181
204 164 181
209 166 181
211 167 181
215 169 181
212 168 181
204 164 181
208 166 181
209 166 181
208 166 181
220 171 181
208 166 181
206 165 181
213 168 181
214 168 181
206 165 181
208 165 181
211 167 181
210 166 181
212 167 181
209 166 181
212 167 181
207 165 181
208 166 181
205 165 181
199 180 181
190 185 181
190 185 181
190 185 181
190 185 181
190 185 181
190 185 181
190 185 181
187 183 181
181 180 181
180 180 181
180 180 181
180 180 181
185 178 181
214 168 181
218 170 181
210 166 181
206 165 181
213 168 181
210 167 181
210 166 181
212 167 181
207 165 181
214 168 181
212 167 181
214 168 181
213 168 181
210 166 181
213 168 181
214 168 181
210 166 181
208 165 181
208 165 181
208 166 181
205 164 181
213 168 181
209 166 181
210 167 181
211 167 181
209 166 181
215 169 181
205 164 181
211 167 181
214 168 181
212 167 181
204 164 181
214 168 181
209 166 181
204 164 181
210 167 181
191 181 181
190 185 181
190 185 181
190 185 181
190 185 181
190 185 181
190 185 181
190 185 181
190 185 181
184 182 181
180 180 181
180 180 181
180 180 181
189 176 181
211 167 181
205 164 181
215 169 181
211 167 181
212 167 181
213 168 181
219 170 181
214 168 181
211 167 181
203 164 181
207 165 181
211 167 181
209 166 181
212 167 181
210 166 181
212 167 181
214 168 181
205 164 181
212 167 181
215 169 181
215 169 181
209 166 181
213 168 181
206 165 181
208 165 181
212 167 181
212 167 181
213 168 181
205 165 181
210 166 181
213 168 181
217 169 181
205 165 181
201 163 181
213 168 181
218 170 181
194 178 181
190 185 181
190 185 181
190 185 181
190 185 181
190 185 181
190 185 181
190 185 181
190 185 181
190 185 181
181 180 181
180 180 181
180 180 181
198 174 181
211 167 181
207 165 181
216 169 181
217 170 181
206 165 181
212 167 181
210 166 181
216 169 181
202 163 181
205 164 181
216 169 181
217 169 181
212 167 181
212 167 181
217 169 181
209 166 181
214 168 181
212 167 181
203 164 181
214 168 181
207 165 181
212 167 181
212 167 181
208 165 181
212 167 181
209 166 181
213 168 181
216 169 181
214 168 181
216 169 181
214 168 181
214 168 181
221 171 181
215 169 181
209 166 181
209 166 181
212 177 181
190 185 181
190 185 181
190 185 181
190 185 181
190 185 181
190 185 181
190 185 181
190 185 181
190 185 181
183 181 181
180 180 181
180 180 181
203 174 181
207 165 181
214 168 181
211 167 181
211 167 181
208 166 181
212 167 181
207 165 181
209 166 181
210 166 181
212 167 181
207 165 181
213 168 181
211 167 181
205 165 181
215 169 181
214 168 181
207 165 181
208 166 181
209 166 181
209 166 181
214 168 181
213 168 181
212 167 181
212 167 181
213 168 181
219 170 181
207 165 181
205 164 181
214 168 181
212 167 181
207 165 181
216 169 181
215 168 181
219 170 181
216 169 181
210 167 181
218 174 181
193 182 181
190 185 181
190 185 181
190 185 181
190 185 181
190 185 181
190 185 181
190 185 181
190 185 181
189 184 181
182 181 181
180 180 181
201 168 181
211 167 181
204 164 181
212 167 181
217 169 181
210 166 181
208 166 181
217 169 181
216 169 181
213 168 181
215 169 181
207 165 181
211 167 181
214 168 181
207 165 181
206 165 181
209 166 181
208 166 181
214 168 181
209 166 181
213 168 181
218 170 181
208 166 181
216 169 181
213 168 181
214 168 181
208 166 181
215 169 181
211 167 181
217 169 181
213 168 181
211 167 181
208 166 181
211 167 181
207 165 181
215 168 181
217 169 181
214 168 181
206 165 181
211 174 181
210 170 181
209 175 181
204 173 181
198 182 181
190 185 181
190 185 181
190 185 181
190 185 181
187 183 181
180 180 181
196 180 181
211 167 181
215 169 181
207 165 181
209 166 181
218 170 181
217 170 181
211 167 181
213 168 181
208 166 181
215 168 181
213 168 181
217 169 181
216 169 181
212 167 181
211 167 181
211 167 181
219 170 181
212 167 181
210 166 181
210 167 181
220 171 181
211 167 181
207 165 181
210 167 181
213 168 181
214 168 181
214 168 181
215 168 181
217 170 181
217 169 181
210 167 181
209 166 181
213 168 181
212 167 181
215 169 181
211 167 181
213 168 181
219 170 181
212 167 181
209 166 181
217 170 181
211 167 181
210 167 181
210 166 181
210 173 181
200 171 181
202 174 181
195 180 181
185 177 181
192 184 181
195 180 181
212 167 181
205 165 181
210 166 181
209 166 181
213 168 181
205 164 181
210 167 181
215 169 181
215 169 181
206 165 181
213 168 181
208 166 181
211 167 181
214 168 181
209 166 181
207 165 181
210 166 181
209 166 181
214 168 181
210 167 181
217 169 181
208 166 181
212 167 181
216 169 181
212 167 181
214 168 181
212 167 181
215 169 181
215 169 181
208 165 181
209 166 181
212 167 181
213 168 181
209 166 181
210 166 181
209 166 181
211 167 181
214 168 181
212 167 181
209 166 181
213 168 181
205 165 181
214 168 181
208 166 181
217 169 181
214 168 181
215 169 181
203 167 181
207 169 181
209 173 181
214 171 181
218 170 181
217 170 181
209 166 181
210 166 181
207 165 181
207 165 181
214 168 181
215 168 181
211 167 181
209 166 181
212 167 181
206 165 181
219 170 181
213 168 181
214 168 181
206 165 181
213 168 181
211 167 181
214 168 181
208 166 181
212 167 181
215 169 181
214 168 181
218 170 181
207 165 181
210 166 181
211 167 181
214 168 181
207 165 181
219 170 181
217 170 181
209 166 181
213 168 181
206 165 181
210 166 181
208 166 181
208 166 181
210 167 181
210 166 181
205 165 181
206 165 181
205 164 181
214 168 181
213 168 181
212 167 181
213 168 181
212 167 181
215 169 181
219 170 181
212 167 181
214 168 181
213 168 181
214 168 181
210 167 181
216 169 181
208 165 181
213 168 181
216 169 181
209 166 181
213 168 181
210 167 181
206 165 181
209 166 181
209 166 181
209 166 181
214 168 181
208 166 181
215 169 181
216 169 181
214 168 181
210 167 181
212 167 181
212 167 181
211 167 181
213 168 181
215 169 181
211 167 181
211 167 181
218 170 181
206 165 181
207 165 181
215 168 181
216 169 181
218 170 181
214 168 181
211 167 181
216 169 181
213 168 181
213 168 181
216 169 181
207 165 181
213 168 181
215 169 181
208 166 181
211 167 181
207 165 181
209 166 181
207 165 181
206 165 181
210 167 181
211 167 181
215 169 181
211 167 181
216 169 181
216 169 181
204 164 181
206 165 181
211 167 181
212 167 181
221 171 181
216 169 181
211 167 181
216 169 181
213 168 181
208 166 181
212 167 181
214 168 181
220 171 181
212 167 181
216 169 181
213 168 181
215 168 181
216 169 181
216 169 181
211 167 181
213 168 181
216 169 181
214 168 181
209 166 181
206 165 181
210 166 181
217 169 181
213 168 181
214 168 181
219 170 181
215 169 181
213 168 181
214 168 181
218 170 181
214 168 181
208 166 181
221 171 181
214 168 181
215 169 181
214 168 181
209 166 181
212 167 181
210 166 181
209 166 181
217 170 181
209 166 181
212 167 181
210 167 181
216 169 181
211 167 181
218 170 181
213 168 181
223 172 181
210 167 181
213 168 181
213 168 181
201 163 181
212 167 181
213 168 181
213 168 181
217 169 181
214 168 181
216 169 181
207 165 181
211 167 181
217 169 181
215 169 181
206 165 181
215 168 181
211 167 181
208 165 181
207 165 181
211 167 181
210 167 181
216 169 181
213 168 181
211 167 181
211 167 181
211 167 181
212 167 181
211 167 181
208 166 181
208 166 181
216 169 181
214 168 181
205 164 181
214 168 181
221 171 181
215 169 181
214 168 181
217 170 181
210 167 181
216 169 181
217 170 181
210 166 181
214 168 181
208 166 181
206 165 181
215 169 181
214 168 181
208 166 181
215 169 181
221 171 181
205 164 181
203 164 181
220 171 181
212 167 181
214 168 181
208 166 181
206 165 181
215 168 181
205 164 181
201 163 181
214 168 181
203 163 181
209 166 181
219 170 181
217 169 181
206 165 181
214 168 181
212 167 181
207 165 181
216 169 181
217 170 181
207 165 181
209 166 181
206 165 181
213 168 181
212 167 181
212 167 181
214 168 181
213 168 181
209 166 181
211 167 181
215 168 181
213 168 181
211 167 181
215 168 181
211 167 181
212 167 181
211 167 181
218 170 181
212 167 181
222 171 181
214 168 181
209 166 181
212 168 181
209 166 181
217 169 181
210 166 181
214 168 181
208 165 181
215 169 181
213 168 181
219 170 181
221 171 181
221 171 181
219 170 181
214 168 181
209 166 181
214 168 181
213 168 181
