# This file uses centimeters as units for non-parametric coordinates.

mtllib cubebig.mtl
g default
v -51.320016 -46.565577 70.381863
v 54.657696 -6.065080 82.045443
v -82.744186 50.397899 19.213408
v 23.233526 90.898396 30.876989
v -54.657696 6.065080 -82.045443
v 51.320016 46.565577 -70.381863
v -23.233526 -90.898396 -30.876989
v 82.744186 -50.397899 -19.213408
vt 0.375000 0.000000
vt 0.625000 0.000000
vt 0.375000 0.250000
vt 0.625000 0.250000
vt 0.375000 0.500000
vt 0.625000 0.500000
vt 0.375000 0.750000
vt 0.625000 0.750000
vt 0.375000 1.000000
vt 0.625000 1.000000
vt 0.875000 0.000000
vt 0.875000 0.250000
vt 0.125000 0.000000
vt 0.125000 0.250000
vn -0.246263 0.388711 0.887839
vn -0.246263 0.388711 0.887839
vn -0.246263 0.388711 0.887839
vn -0.246263 0.388711 0.887839
vn -0.275528 0.850177 -0.448646
vn -0.275528 0.850177 -0.448646
vn -0.275528 0.850177 -0.448646
vn -0.275528 0.850177 -0.448646
vn 0.246263 -0.388711 -0.887839
vn 0.246263 -0.388711 -0.887839
vn 0.246263 -0.388711 -0.887839
vn 0.246263 -0.388711 -0.887839
vn 0.275528 -0.850177 0.448646
vn 0.275528 -0.850177 0.448646
vn 0.275528 -0.850177 0.448646
vn 0.275528 -0.850177 0.448646
vn 0.929214 0.355109 0.102266
vn 0.929214 0.355109 0.102266
vn 0.929214 0.355109 0.102266
vn 0.929214 0.355109 0.102266
vn -0.929214 -0.355109 -0.102266
vn -0.929214 -0.355109 -0.102266
vn -0.929214 -0.355109 -0.102266
vn -0.929214 -0.355109 -0.102266
s 1
g pCube1
usemtl initialShadingGroup
f 1/1/1 2/2/2 3/3/3
f 3/3/3 2/2/2 4/4/4
s 2
f 3/3/5 4/4/6 5/5/7
f 5/5/7 4/4/6 6/6/8
s 3
f 5/5/9 6/6/10 7/7/11
f 7/7/11 6/6/10 8/8/12
s 4
f 7/7/13 8/8/14 1/9/15
f 1/9/15 8/8/14 2/10/16
s 5
f 2/2/17 8/11/18 4/4/19
f 4/4/19 8/11/18 6/12/20
s 6
f 7/13/21 1/1/22 5/14/23
f 5/14/23 1/1/22 3/3/24
