# This file uses centimeters as units for non-parametric coordinates.

mtllib cube.mtl
g default
v -0.470631 -1.217364 1.207138
v 1.454603 -0.628379 0.806175
v -1.071183 0.745679 1.207138
v 0.854052 1.334664 0.806175
v -1.454603 0.628379 -0.806175
v 0.470631 1.217364 -1.207138
v -0.854052 -1.334664 -0.806175
v 1.071183 -0.745679 -1.207138
vt 0.375000 0.000000
vt 0.625000 0.000000
vt 0.375000 0.250000
vt 0.625000 0.250000
vt 0.375000 0.500000
vt 0.625000 0.500000
vt 0.375000 0.750000
vt 0.625000 0.750000
vt 0.375000 1.000000
vt 0.625000 1.000000
vt 0.875000 0.000000
vt 0.875000 0.250000
vt 0.125000 0.000000
vt 0.125000 0.250000
vn 0.186775 0.057140 0.980740
vn 0.186775 0.057140 0.980740
vn 0.186775 0.057140 0.980740
vn 0.186775 0.057140 0.980740
vn -0.292545 0.956252 0.000000
vn -0.292545 0.956252 0.000000
vn -0.292545 0.956252 0.000000
vn -0.292545 0.956252 0.000000
vn -0.186775 -0.057140 -0.980740
vn -0.186775 -0.057140 -0.980740
vn -0.186775 -0.057140 -0.980740
vn -0.186775 -0.057140 -0.980740
vn 0.292545 -0.956252 0.000000
vn 0.292545 -0.956252 0.000000
vn 0.292545 -0.956252 0.000000
vn 0.292545 -0.956252 0.000000
vn 0.937834 0.286911 -0.195320
vn 0.937834 0.286911 -0.195320
vn 0.937834 0.286911 -0.195320
vn 0.937834 0.286911 -0.195320
vn -0.937834 -0.286911 0.195320
vn -0.937834 -0.286911 0.195320
vn -0.937834 -0.286911 0.195320
vn -0.937834 -0.286911 0.195320
s 1
g pCube1
usemtl initialShadingGroup
f 1/1/1 2/2/2 3/3/3
f 3/3/3 2/2/2 4/4/4
s 2
f 3/3/5 4/4/6 5/5/7
f 5/5/7 4/4/6 6/6/8
s 3
f 5/5/9 6/6/10 7/7/11
f 7/7/11 6/6/10 8/8/12
s 4
f 7/7/13 8/8/14 1/9/15
f 1/9/15 8/8/14 2/10/16
s 5
f 2/2/17 8/11/18 4/4/19
f 4/4/19 8/11/18 6/12/20
s 6
f 7/13/21 1/1/22 5/14/23
f 5/14/23 1/1/22 3/3/24
