# This file uses centimeters as units for non-parametric coordinates.

mtllib test50.mtl
g default
v -20.123868 -43.517148 24.748797
v 39.189814 -36.408278 7.057715
v -20.123868 14.292792 47.978782
v 36.696395 -7.518312 10.306853
v -39.189814 36.408278 -7.057715
v 9.157038 38.838447 -22.829696
v -39.189814 -21.401660 -30.287699
v 34.162772 -9.063017 -50.740695
v 11.437481 -39.734460 15.335231
v -7.628467 -17.618972 -39.701264
v -7.628467 40.190995 -16.471310
v 8.944059 -10.844492 18.584340
v -28.093890 23.537610 24.972187
v 5.960880 15.025123 18.977840
v 19.812342 13.766325 13.673531
v 45.258699 -21.933713 -18.710766
v 3.467458 -30.489668 -7.671363
v -28.093890 -34.272356 1.742232
v -28.093890 59.012463 39.227178
v 5.960880 50.500001 33.232807
v -7.628467 75.665845 -2.216318
v -39.189814 71.883154 7.197276
v -10.634456 50.144463 -41.241499
v 20.926866 53.927151 -50.655068
v -10.634456 85.619342 -26.986508
v 20.926866 89.402027 -36.400075
v 15.872542 -1.069092 45.741859
v 18.365965 -29.959060 42.492722
v 46.118299 -26.632906 34.215236
v 43.624877 2.257088 37.464373
vt 0.508027 0.250000
vt 0.508027 0.000000
vt 0.625000 0.250000
vt 0.625000 0.000000
vt 0.508027 0.500000
vt 0.508027 0.354506
vt 0.625000 0.500000
vt 0.625000 0.354506
vt 0.508027 0.750000
vt 0.625000 0.750000
vt 0.625000 0.895494
vt 0.508027 0.895494
vt 0.729506 0.000000
vt 0.875000 0.000000
vt 0.729506 0.250000
vt 0.875000 0.250000
vt 0.125000 0.000000
vt 0.270494 0.000000
vt 0.125000 0.250000
vt 0.270494 0.250000
vt 0.375000 0.750000
vt 0.375000 0.895494
vt 0.375000 0.500000
vt 0.508027 0.354506
vt 0.508027 0.500000
vt 0.375000 0.354506
vt 0.375000 0.500000
vt 0.508027 0.000000
vt 0.508027 0.250000
vt 0.375000 0.000000
vt 0.375000 0.250000
vt 0.375000 0.354506
vt 0.625000 0.250000
vt 0.625000 0.000000
vt 0.508027 1.000000
vt 0.625000 1.000000
vt 0.375000 1.000000
vt 0.508027 0.500000
vt 0.375000 0.500000
vt 0.508027 0.500000
vt 0.375000 0.500000
vn 0.293848 -0.081745 0.952350
vn 0.293848 -0.081745 0.952350
vn 0.293848 -0.081745 0.952350
vn 0.293848 -0.081745 0.952350
vn 0.293848 -0.081745 0.952350
vn 0.293848 -0.081745 0.952350
vn 0.253903 0.831978 0.493301
vn 0.549918 0.487701 0.678040
vn 0.255657 0.831517 0.493172
vn 0.255657 0.831517 0.493172
vn 0.549918 0.487701 0.678040
vn 0.322218 0.468334 0.822702
vn -0.306022 0.354969 -0.883373
vn -0.306022 0.354969 -0.883373
vn -0.306022 0.354969 -0.883373
vn -0.306022 0.354969 -0.883373
vn -0.306022 0.354969 -0.883373
vn -0.306022 0.354969 -0.883373
vn 0.072922 -0.902864 -0.423696
vn 0.034834 -0.918475 -0.393941
vn 0.082596 -0.914491 -0.396086
vn 0.082596 -0.914491 -0.396086
vn 0.034834 -0.918475 -0.393941
vn 0.047177 -0.921095 -0.386470
vn 0.852032 0.523324 0.013168
vn 0.853917 0.520377 0.005809
vn 0.865404 0.500924 0.012283
vn 0.865404 0.500924 0.012283
vn 0.853917 0.520377 0.005809
vn 0.895651 0.442710 0.042633
vn -0.952025 -0.114102 0.283954
vn -0.952025 -0.114102 0.283954
vn -0.952025 -0.114102 0.283954
vn -0.952025 -0.114102 0.283954
vn -0.952025 -0.114102 0.283954
vn -0.952025 -0.114102 0.283954
vn 0.000000 -0.927889 -0.372857
vn 0.047177 -0.921095 -0.386470
vn 0.000000 -0.927889 -0.372857
vn 0.000000 -0.927889 -0.372857
vn 0.047177 -0.921095 -0.386470
vn 0.034834 -0.918475 -0.393941
vn -0.306022 0.354969 -0.883373
vn -0.306022 0.354969 -0.883373
vn -0.306022 0.354969 -0.883373
vn -0.306022 0.354969 -0.883373
vn -0.306022 0.354969 -0.883373
vn -0.306022 0.354969 -0.883373
vn 0.291245 0.829227 0.477032
vn 0.160711 0.885819 0.435313
vn 0.193435 0.873594 0.446560
vn 0.193435 0.873594 0.446560
vn 0.160711 0.885819 0.435313
vn 0.000000 0.927889 0.372857
vn 0.293848 -0.081745 0.952350
vn 0.481941 -0.271595 0.833048
vn 0.468235 -0.257074 0.845381
vn 0.468235 -0.257074 0.845381
vn 0.481941 -0.271595 0.833048
vn 0.524399 -0.317477 0.790072
vn 0.544478 0.069706 0.835874
vn 0.549918 0.487701 0.678040
vn 0.518292 0.705080 0.483979
vn 0.518292 0.705080 0.483979
vn 0.549918 0.487701 0.678040
vn 0.278299 0.920713 0.273564
vn 0.549918 0.487701 0.678040
vn 0.544478 0.069706 0.835874
vn 0.322218 0.468334 0.822702
vn 0.322218 0.468334 0.822702
vn 0.544478 0.069706 0.835874
vn 0.277585 0.068625 0.958247
vn 0.964701 0.054280 0.257692
vn 0.852032 0.523324 0.013168
vn 0.886733 0.461133 0.032569
vn 0.886733 0.461133 0.032569
vn 0.852032 0.523324 0.013168
vn 0.865404 0.500924 0.012283
vn 0.000000 -0.927889 -0.372857
vn 0.034834 -0.918475 -0.393941
vn 0.038951 -0.890927 -0.452472
vn 0.038951 -0.890927 -0.452472
vn 0.034834 -0.918475 -0.393941
vn 0.072922 -0.902864 -0.423696
vn 0.000000 -0.927889 -0.372857
vn 0.034834 -0.918475 -0.393941
vn 0.000000 -0.927889 -0.372857
vn 0.000000 -0.927889 -0.372857
vn 0.034834 -0.918475 -0.393941
vn 0.000000 -0.927889 -0.372857
vn -0.952025 -0.114102 0.283954
vn -0.952025 -0.114102 0.283954
vn -0.952025 -0.114102 0.283954
vn -0.952025 -0.114102 0.283954
vn -0.952025 -0.114102 0.283954
vn -0.952025 -0.114102 0.283954
vn 0.069956 -0.371943 0.925616
vn 0.069956 -0.371943 0.925616
vn 0.069956 -0.371943 0.925616
vn 0.069956 -0.371943 0.925616
vn 0.069956 -0.371943 0.925616
vn 0.069956 -0.371943 0.925616
vn 0.952025 0.114102 -0.283954
vn 0.952025 0.114102 -0.283954
vn 0.952025 0.114102 -0.283954
vn 0.952025 0.114102 -0.283954
vn 0.952025 0.114102 -0.283954
vn 0.952025 0.114102 -0.283954
vn -0.306022 0.354969 -0.883373
vn -0.306022 0.354969 -0.883373
vn -0.306022 0.354969 -0.883373
vn -0.306022 0.354969 -0.883373
vn -0.306022 0.354969 -0.883373
vn -0.306022 0.354969 -0.883373
vn -0.952025 -0.114102 0.283954
vn -0.952025 -0.114102 0.283954
vn -0.952025 -0.114102 0.283954
vn -0.952025 -0.114102 0.283954
vn -0.952025 -0.114102 0.283954
vn -0.952025 -0.114102 0.283954
vn 0.000000 -0.927889 -0.372857
vn 0.000000 -0.927889 -0.372857
vn 0.000000 -0.927889 -0.372857
vn 0.000000 -0.927889 -0.372857
vn 0.000000 -0.927889 -0.372857
vn 0.000000 -0.927889 -0.372857
vn -0.790373 0.228422 -0.568449
vn -0.790373 0.228422 -0.568449
vn -0.790373 0.228422 -0.568449
vn -0.790373 0.228422 -0.568449
vn -0.790373 0.228422 -0.568449
vn -0.790373 0.228422 -0.568449
vn 0.000000 0.927889 0.372857
vn 0.000000 0.927889 0.372857
vn 0.000000 0.927889 0.372857
vn 0.000000 0.927889 0.372857
vn 0.000000 0.927889 0.372857
vn 0.000000 0.927889 0.372856
vn 0.790373 -0.228422 0.568449
vn 0.790373 -0.228422 0.568449
vn 0.790373 -0.228422 0.568449
vn 0.790373 -0.228422 0.568449
vn 0.790373 -0.228422 0.568449
vn 0.790373 -0.228422 0.568449
vn -0.952025 -0.114102 0.283954
vn -0.952025 -0.114102 0.283954
vn -0.952025 -0.114102 0.283954
vn -0.952025 -0.114102 0.283954
vn -0.952025 -0.114102 0.283954
vn -0.952025 -0.114102 0.283954
vn 0.197906 -0.937297 0.286892
vn 0.197906 -0.937297 0.286892
vn 0.197906 -0.937297 0.286892
vn 0.197906 -0.937297 0.286892
vn 0.197906 -0.937297 0.286892
vn 0.197906 -0.937297 0.286891
vn 0.952025 0.114102 -0.283954
vn 0.952025 0.114102 -0.283954
vn 0.952025 0.114102 -0.283954
vn 0.952025 0.114102 -0.283954
vn 0.952025 0.114102 -0.283954
vn 0.952025 0.114102 -0.283954
vn -0.197906 0.937297 -0.286891
vn -0.197906 0.937297 -0.286891
vn -0.197906 0.937297 -0.286891
vn -0.197906 0.937297 -0.286891
vn -0.197906 0.937297 -0.286891
vn -0.197906 0.937297 -0.286891
s off
g test2:pCube1
usemtl initialShadingGroup
f 27/1/1 28/2/2 30/3/3
f 30/3/4 28/2/5 29/4/6
f 11/5/7 14/6/8 6/7/9
f 6/7/10 14/6/11 15/8/12
f 11/5/13 6/7/14 10/9/15
f 10/9/16 6/7/17 8/10/18
f 16/11/19 17/12/20 8/10/21
f 8/10/22 17/12/23 10/9/24
f 16/13/25 8/14/26 15/15/27
f 15/15/28 8/14/29 6/16/30
f 7/17/31 18/18/32 5/19/33
f 5/19/34 18/18/35 13/20/36
f 7/21/37 10/9/38 18/22/39
f 18/22/40 10/9/41 17/12/42
f 5/23/43 11/5/44 7/21/45
f 7/21/46 11/5/47 10/9/48
f 20/24/49 21/25/50 19/26/51
f 19/26/52 21/25/53 22/27/54
f 9/28/55 12/29/56 1/30/57
f 1/30/58 12/29/59 3/31/60
f 12/29/61 14/6/62 3/31/63
f 3/31/64 14/6/65 13/32/66
f 14/6/67 12/29/68 15/8/69
f 15/8/70 12/29/71 4/33/72
f 2/34/73 16/13/74 4/33/75
f 4/33/76 16/13/77 15/15/78
f 9/35/79 17/12/80 2/36/81
f 2/36/82 17/12/83 16/11/84
f 18/22/85 17/12/86 1/37/87
f 1/37/88 17/12/89 9/35/90
f 13/20/91 18/18/92 3/31/93
f 3/31/94 18/18/95 1/30/96
f 14/6/97 20/24/98 13/32/99
f 13/32/100 20/24/101 19/26/102
f 14/6/103 11/5/104 20/24/105
f 20/24/106 11/5/107 21/25/108
f 24/38/109 23/39/110 26/40/111
f 26/40/112 23/39/113 25/41/114
f 5/23/115 13/32/116 22/27/117
f 22/27/118 13/32/119 19/26/120
f 5/23/121 23/39/122 11/5/123
f 11/5/124 23/39/125 24/38/126
f 5/23/127 22/27/128 23/39/129
f 23/39/130 22/27/131 25/41/132
f 22/27/133 21/25/134 25/41/135
f 25/41/136 21/25/137 26/40/138
f 21/25/139 11/5/140 26/40/141
f 26/40/142 11/5/143 24/38/144
f 9/28/145 28/2/146 12/29/147
f 12/29/148 28/2/149 27/1/150
f 9/28/151 2/34/152 28/2/153
f 28/2/154 2/34/155 29/4/156
f 2/34/157 4/33/158 29/4/159
f 29/4/160 4/33/161 30/3/162
f 4/33/163 12/29/164 30/3/165
f 30/3/166 12/29/167 27/1/168
